solid 20mm Profiles - Printing
facet normal -1.0 -2.34017068171004e-14 4.25072254954812e-30
outer loop
vertex 18.0000000000001 3.41421356236627 19.9999999999933
vertex 18.0 8.34999999999302 -6.66613004796091e-12
vertex 18.0000000000001 3.41421356236626 -6.66071571231441e-12
endloop
endfacet
facet normal -1.0 -2.34017068171004e-14 4.25072254954812e-30
outer loop
vertex 18.0 8.34999999999302 -6.66613004796091e-12
vertex 18.0000000000001 3.41421356236627 19.9999999999933
vertex 18.0 8.34999999999302 19.9999999999933
endloop
endfacet
facet normal -1.15505827125161e-14 1.0 -1.2490009027033e-16
outer loop
vertex 18.0 8.34999999999302 19.9999999999933
vertex 20.0 8.34999999999304 -6.66360335799254e-12
vertex 18.0 8.34999999999302 -6.66613004796091e-12
endloop
endfacet
facet normal -1.15505827125161e-14 1.0 -1.2490009027033e-16
outer loop
vertex 20.0 8.34999999999304 -6.66360335799254e-12
vertex 18.0 8.34999999999302 19.9999999999933
vertex 20.0 8.34999999999304 19.9999999999933
endloop
endfacet
facet normal -0.442288690219014 0.896872741532682 -1.1201948637843e-16
outer loop
vertex 1.70710678118656 19.5425821165803 19.9999999999933
vertex 2.10765059749674 19.7401084675188 -6.66793482650974e-12
vertex 1.70710678118656 19.5425821165803 -6.67587585212459e-12
endloop
endfacet
facet normal -0.442288690219014 0.896872741532682 -1.1201948637843e-16
outer loop
vertex 2.10765059749674 19.7401084675188 -6.66793482650974e-12
vertex 1.70710678118656 19.5425821165803 19.9999999999933
vertex 2.10765059749674 19.7401084675188 19.9999999999933
endloop
endfacet
facet normal 1.0 9.36068272683958e-14 -1.30193484313543e-29
outer loop
vertex 20.0 8.34999999999304 -6.66360335799254e-12
vertex 20.0000000000004 3.41421356236598 19.9999999999933
vertex 20.0000000000004 3.41421356236597 -6.66468622512184e-12
endloop
endfacet
facet normal 1.0 9.36068272683958e-14 -1.30193484313543e-29
outer loop
vertex 20.0000000000004 3.41421356236598 19.9999999999933
vertex 20.0 8.34999999999304 -6.66360335799254e-12
vertex 20.0 8.34999999999304 19.9999999999933
endloop
endfacet
facet normal 0.997858923238604 -0.0654031292301329 8.16885674480435e-18
outer loop
vertex 20.0000000000004 3.41421356236597 -6.66468622512184e-12
vertex 19.9707909296749 2.96856926664336 19.9999999999933
vertex 19.9707909296749 2.96856926664335 -6.65638424379722e-12
endloop
endfacet
facet normal 0.997858923238604 -0.0654031292301329 8.16885674480435e-18
outer loop
vertex 19.9707909296749 2.96856926664336 19.9999999999933
vertex 20.0000000000004 3.41421356236597 -6.66468622512184e-12
vertex 20.0000000000004 3.41421356236598 19.9999999999933
endloop
endfacet
facet normal 0.980785280403227 -0.195090322016146 2.43667988306832e-17
outer loop
vertex 19.9707909296749 2.96856926664335 -6.65638424379722e-12
vertex 19.8836634939899 2.53055006837648 19.9999999999933
vertex 19.8836634939899 2.53055006837648 -6.65060895244096e-12
endloop
endfacet
facet normal 0.980785280403227 -0.195090322016146 2.43667988306832e-17
outer loop
vertex 19.8836634939899 2.53055006837648 19.9999999999933
vertex 19.9707909296749 2.96856926664335 -6.65638424379722e-12
vertex 19.9707909296749 2.96856926664336 19.9999999999933
endloop
endfacet
facet normal 0.946930129495112 -0.321439465303143 4.0147818232808e-17
outer loop
vertex 19.8836634939899 2.53055006837648 -6.65060895244096e-12
vertex 19.7401084675263 2.10765059748958 19.9999999999933
vertex 19.7401084675263 2.10765059748958 -6.65205277528003e-12
endloop
endfacet
facet normal 0.946930129495112 -0.321439465303143 4.0147818232808e-17
outer loop
vertex 19.7401084675263 2.10765059748958 19.9999999999933
vertex 19.8836634939899 2.53055006837648 -6.65060895244096e-12
vertex 19.8836634939899 2.53055006837648 19.9999999999933
endloop
endfacet
facet normal 0.659345815100044 0.751839807478999 -9.39048598229555e-17
outer loop
vertex 18.664227964798 19.2944641717966 19.9999999999933
vertex 18.9999999999999 18.9999999999934 -6.68345592202968e-12
vertex 18.664227964798 19.2944641717966 -6.68742643483711e-12
endloop
endfacet
facet normal 0.659345815100044 0.751839807478999 -9.39048598229555e-17
outer loop
vertex 18.9999999999999 18.9999999999934 -6.68345592202968e-12
vertex 18.664227964798 19.2944641717966 19.9999999999933
vertex 18.9999999999999 18.9999999999934 19.9999999999933
endloop
endfacet
facet normal -0.19509032201612 0.980785280403232 -1.22500170058174e-16
outer loop
vertex 2.53055006838365 19.8836634939824 -6.66288144657301e-12
vertex 2.9685692666505 19.9707909296674 19.9999999999933
vertex 2.9685692666505 19.9707909296674 -6.66468622512184e-12
endloop
endfacet
facet normal -0.19509032201612 0.980785280403232 -1.22500170058174e-16
outer loop
vertex 2.9685692666505 19.9707909296674 19.9999999999933
vertex 2.53055006838365 19.8836634939824 -6.66288144657301e-12
vertex 2.53055006838365 19.8836634939824 19.9999999999933
endloop
endfacet
facet normal 0.896872741532695 -0.442288690218987 5.52418973338964e-17
outer loop
vertex 19.7401084675263 2.10765059748958 -6.65205277528003e-12
vertex 19.5425821165878 1.7071067811794 19.9999999999933
vertex 19.5425821165878 1.70710678117939 -6.65241373098979e-12
endloop
endfacet
facet normal 0.896872741532695 -0.442288690218987 5.52418973338964e-17
outer loop
vertex 19.5425821165878 1.7071067811794 19.9999999999933
vertex 19.7401084675263 2.10765059748958 -6.65205277528003e-12
vertex 19.7401084675263 2.10765059748958 19.9999999999933
endloop
endfacet
facet normal -0.997858923238604 0.0654031292301362 -8.16885674480475e-18
outer loop
vertex 2.65569451122495e-29 16.5857864376198 19.9999999999933
vertex 0.029209070325514 17.0314307333424 -6.66973960505857e-12
vertex 0.0 16.5857864376198 -6.65024799673119e-12
endloop
endfacet
facet normal -0.997858923238604 0.0654031292301362 -8.16885674480475e-18
outer loop
vertex 0.029209070325514 17.0314307333424 -6.66973960505857e-12
vertex 2.65569451122495e-29 16.5857864376198 19.9999999999933
vertex 0.029209070325514 17.0314307333424 19.9999999999933
endloop
endfacet
facet normal 0.980785280403235 0.195090322016103 -2.43667988306803e-17
outer loop
vertex 19.8836634939895 17.4694499316098 -6.66757387079997e-12
vertex 19.9707909296745 17.0314307333429 19.9999999999933
vertex 19.9707909296745 17.0314307333429 -6.67804158638319e-12
endloop
endfacet
facet normal 0.980785280403235 0.195090322016103 -2.43667988306803e-17
outer loop
vertex 19.9707909296745 17.0314307333429 19.9999999999933
vertex 19.8836634939895 17.4694499316098 -6.66757387079997e-12
vertex 19.8836634939895 17.4694499316098 19.9999999999933
endloop
endfacet
facet normal -0.321439465303173 0.946930129495102 -1.18271658653633e-16
outer loop
vertex 2.10765059749674 19.7401084675188 19.9999999999933
vertex 2.53055006838365 19.8836634939824 -6.66288144657301e-12
vertex 2.10765059749674 19.7401084675188 -6.66793482650974e-12
endloop
endfacet
facet normal -0.321439465303173 0.946930129495102 -1.18271658653633e-16
outer loop
vertex 2.53055006838365 19.8836634939824 -6.66288144657301e-12
vertex 2.10765059749674 19.7401084675188 19.9999999999933
vertex 2.53055006838365 19.8836634939824 19.9999999999933
endloop
endfacet
facet normal 0.831469612302522 -0.555570233019637 6.93907722556598e-17
outer loop
vertex 19.5425821165878 1.70710678117939 -6.65241373098979e-12
vertex 19.2944641718037 1.33577203519476 19.9999999999933
vertex 19.2944641718037 1.33577203519475 -6.66179857944371e-12
endloop
endfacet
facet normal 0.831469612302522 -0.555570233019637 6.93907722556598e-17
outer loop
vertex 19.2944641718037 1.33577203519476 19.9999999999933
vertex 19.5425821165878 1.70710678117939 -6.65241373098979e-12
vertex 19.5425821165878 1.7071067811794 19.9999999999933
endloop
endfacet
facet normal 0.707106781186529 0.707106781186566 -8.83177008009656e-17
outer loop
vertex 14.5000000000002 6.91421356236593 -6.65494042095816e-12
vertex 18.0000000000001 3.41421356236627 19.9999999999933
vertex 18.0000000000001 3.41421356236626 -6.66071571231441e-12
endloop
endfacet
facet normal 0.707106781186529 0.707106781186566 -8.83177008009656e-17
outer loop
vertex 18.0000000000001 3.41421356236627 19.9999999999933
vertex 14.5000000000002 6.91421356236593 -6.65494042095816e-12
vertex 14.5000000000002 6.91421356236593 19.9999999999933
endloop
endfacet
facet normal 0.751839807478997 -0.659345815100046 8.23523518253591e-17
outer loop
vertex 19.2944641718037 1.33577203519475 -6.66179857944371e-12
vertex 19.0000000000004 0.999999999992851 19.9999999999933
vertex 19.0000000000004 0.999999999992848 -6.65891093376558e-12
endloop
endfacet
facet normal 0.751839807478997 -0.659345815100046 8.23523518253591e-17
outer loop
vertex 19.0000000000004 0.999999999992851 19.9999999999933
vertex 19.2944641718037 1.33577203519475 -6.66179857944371e-12
vertex 19.2944641718037 1.33577203519476 19.9999999999933
endloop
endfacet
facet normal 0.659345815100066 -0.75183980747898 9.39048598229513e-17
outer loop
vertex 19.0000000000004 0.999999999992848 -6.65891093376558e-12
vertex 18.6642279647985 0.705535828189608 19.9999999999933
vertex 18.6642279647985 0.705535828189606 -6.65927188947535e-12
endloop
endfacet
facet normal 0.659345815100066 -0.75183980747898 9.39048598229513e-17
outer loop
vertex 18.6642279647985 0.705535828189608 19.9999999999933
vertex 19.0000000000004 0.999999999992848 -6.65891093376558e-12
vertex 19.0000000000004 0.999999999992851 19.9999999999933
endloop
endfacet
facet normal 0.555570233019583 -0.831469612302558 1.03850629633625e-16
outer loop
vertex 18.6642279647985 0.705535828189608 19.9999999999933
vertex 18.2928932188139 0.457417883405481 -6.65818902234605e-12
vertex 18.6642279647985 0.705535828189606 -6.65927188947535e-12
endloop
endfacet
facet normal 0.555570233019583 -0.831469612302558 1.03850629633625e-16
outer loop
vertex 18.2928932188139 0.457417883405481 -6.65818902234605e-12
vertex 18.6642279647985 0.705535828189608 19.9999999999933
vertex 18.2928932188139 0.457417883405484 19.9999999999933
endloop
endfacet
facet normal 0.442288690219009 -0.896872741532684 1.1201948637843e-16
outer loop
vertex 18.2928932188139 0.457417883405481 -6.65818902234605e-12
vertex 17.8923494025037 0.259891532466995 19.9999999999933
vertex 17.8923494025037 0.259891532466993 -6.66649100367067e-12
endloop
endfacet
facet normal 0.442288690219009 -0.896872741532684 1.1201948637843e-16
outer loop
vertex 17.8923494025037 0.259891532466995 19.9999999999933
vertex 18.2928932188139 0.457417883405481 -6.65818902234605e-12
vertex 18.2928932188139 0.457417883405484 19.9999999999933
endloop
endfacet
facet normal -0.980785280403227 0.195090322016147 -2.43667988306832e-17
outer loop
vertex 0.029209070325514 17.0314307333424 19.9999999999933
vertex 0.116336506010526 17.4694499316093 -6.67190533931716e-12
vertex 0.029209070325514 17.0314307333424 -6.66973960505857e-12
endloop
endfacet
facet normal -0.980785280403227 0.195090322016147 -2.43667988306832e-17
outer loop
vertex 0.116336506010526 17.4694499316093 -6.67190533931716e-12
vertex 0.029209070325514 17.0314307333424 19.9999999999933
vertex 0.116336506010526 17.4694499316093 19.9999999999933
endloop
endfacet
facet normal 0.321439465303178 -0.9469301294951 1.18271658653633e-16
outer loop
vertex 17.8923494025037 0.259891532466993 -6.66649100367067e-12
vertex 17.4694499316168 0.116336506003355 19.9999999999933
vertex 17.4694499316168 0.116336506003353 -6.66757387079997e-12
endloop
endfacet
facet normal 0.321439465303178 -0.9469301294951 1.18271658653633e-16
outer loop
vertex 17.4694499316168 0.116336506003355 19.9999999999933
vertex 17.8923494025037 0.259891532466993 -6.66649100367067e-12
vertex 17.8923494025037 0.259891532466995 19.9999999999933
endloop
endfacet
facet normal 1.0 -2.01920086107103e-45 -1.32784725561248e-30
outer loop
vertex 14.5000000000002 13.0857864376201 -6.66432526941207e-12
vertex 14.5000000000002 6.91421356236593 19.9999999999933
vertex 14.5000000000002 6.91421356236593 -6.65494042095816e-12
endloop
endfacet
facet normal 1.0 -2.01920086107103e-45 -1.32784725561248e-30
outer loop
vertex 14.5000000000002 6.91421356236593 19.9999999999933
vertex 14.5000000000002 13.0857864376201 -6.66432526941207e-12
vertex 14.5000000000002 13.0857864376201 19.9999999999933
endloop
endfacet
facet normal 0.195090322016123 -0.980785280403231 1.22500170058174e-16
outer loop
vertex 17.4694499316168 0.116336506003355 19.9999999999933
vertex 17.0314307333499 0.0292090703183572 -6.66107666802418e-12
vertex 17.4694499316168 0.116336506003353 -6.66757387079997e-12
endloop
endfacet
facet normal 0.195090322016123 -0.980785280403231 1.22500170058174e-16
outer loop
vertex 17.0314307333499 0.0292090703183572 -6.66107666802418e-12
vertex 17.4694499316168 0.116336506003355 19.9999999999933
vertex 17.0314307333499 0.0292090703183597 19.9999999999933
endloop
endfacet
facet normal 1.32784725561248e-30 1.2490009027033e-16 1.0
outer loop
vertex 3.41421356237331 -7.34825222892255e-12 19.9999999999933
vertex 3.4142135623732 1.999999999993 19.9999999999933
vertex 2.96856926665068 0.0292090703181641 19.9999999999933
endloop
endfacet
facet normal 1.32784725561248e-30 1.2490009027033e-16 1.0
outer loop
vertex 3.4142135623732 1.999999999993 19.9999999999933
vertex 3.41421356237331 -7.34825222892255e-12 19.9999999999933
vertex 8.35000000000003 1.999999999993 19.9999999999933
endloop
endfacet
facet normal 1.32784725561248e-30 1.2490009027033e-16 1.0
outer loop
vertex 8.35000000000003 1.999999999993 19.9999999999933
vertex 3.41421356237331 -7.34825222892255e-12 19.9999999999933
vertex 8.35000000000003 -6.98896593931408e-12 19.9999999999933
endloop
endfacet
facet normal 1.32784725561248e-30 1.2490009027033e-16 1.0
outer loop
vertex 1.61708157975227e-13 3.41421356236577 19.9999999999933
vertex 2.00000000000001 8.34999999999298 19.9999999999933
vertex 2.65569451122495e-29 8.34999999999297 19.9999999999933
endloop
endfacet
facet normal 1.32784725561248e-30 1.2490009027033e-16 1.0
outer loop
vertex 2.00000000000001 8.34999999999298 19.9999999999933
vertex 1.61708157975227e-13 3.41421356236577 19.9999999999933
vertex 0.0292090703256988 2.96856926664315 19.9999999999933
endloop
endfacet
facet normal 1.32784725561248e-30 1.2490009027033e-16 1.0
outer loop
vertex 2.00000000000001 8.34999999999298 19.9999999999933
vertex 0.0292090703256988 2.96856926664315 19.9999999999933
vertex 0.116336506010687 2.53055006837629 19.9999999999933
endloop
endfacet
facet normal 1.32784725561248e-30 1.2490009027033e-16 1.0
outer loop
vertex 2.00000000000001 8.34999999999298 19.9999999999933
vertex 0.116336506010687 2.53055006837629 19.9999999999933
vertex 0.259891532474328 2.10765059748937 19.9999999999933
endloop
endfacet
facet normal 1.32784725561248e-30 1.2490009027033e-16 1.0
outer loop
vertex 2.00000000000001 8.34999999999298 19.9999999999933
vertex 0.259891532474328 2.10765059748937 19.9999999999933
vertex 0.457417883412813 1.70710678117921 19.9999999999933
endloop
endfacet
facet normal 1.32784725561248e-30 1.2490009027033e-16 1.0
outer loop
vertex 2.00000000000001 8.34999999999298 19.9999999999933
vertex 0.457417883412813 1.70710678117921 19.9999999999933
vertex 0.705535828196937 1.33577203519456 19.9999999999933
endloop
endfacet
facet normal 1.32784725561248e-30 1.2490009027033e-16 1.0
outer loop
vertex 2.00000000000001 8.34999999999298 19.9999999999933
vertex 0.705535828196937 1.33577203519456 19.9999999999933
vertex 1.00000000000019 0.99999999999265 19.9999999999933
endloop
endfacet
facet normal 1.32784725561248e-30 1.2490009027033e-16 1.0
outer loop
vertex 2.00000000000001 8.34999999999298 19.9999999999933
vertex 1.00000000000019 0.99999999999265 19.9999999999933
vertex 1.33577203520209 0.705535828189432 19.9999999999933
endloop
endfacet
facet normal 1.32784725561248e-30 1.2490009027033e-16 1.0
outer loop
vertex 2.00000000000001 8.34999999999298 19.9999999999933
vertex 1.33577203520209 0.705535828189432 19.9999999999933
vertex 1.70710678118673 0.457417883405281 19.9999999999933
endloop
endfacet
facet normal 1.32784725561248e-30 1.2490009027033e-16 1.0
outer loop
vertex 2.00000000000001 8.34999999999298 19.9999999999933
vertex 1.70710678118673 0.457417883405281 19.9999999999933
vertex 2.0000000000001 3.41421356236611 19.9999999999933
endloop
endfacet
facet normal 1.32784725561248e-30 1.2490009027033e-16 1.0
outer loop
vertex 2.0000000000001 3.41421356236611 19.9999999999933
vertex 1.70710678118673 0.457417883405281 19.9999999999933
vertex 2.10765059749692 0.25989153246679 19.9999999999933
endloop
endfacet
facet normal 1.32784725561248e-30 1.2490009027033e-16 1.0
outer loop
vertex 2.0000000000001 3.41421356236611 19.9999999999933
vertex 2.10765059749692 0.25989153246679 19.9999999999933
vertex 5.50000000000023 6.91421356236699 19.9999999999933
endloop
endfacet
facet normal 1.32784725561248e-30 1.2490009027033e-16 1.0
outer loop
vertex 5.50000000000023 6.91421356236699 19.9999999999933
vertex 2.10765059749692 0.25989153246679 19.9999999999933
vertex 2.53055006838381 0.116336506003177 19.9999999999933
endloop
endfacet
facet normal 1.32784725561248e-30 1.2490009027033e-16 1.0
outer loop
vertex 5.50000000000023 6.91421356236699 19.9999999999933
vertex 2.53055006838381 0.116336506003177 19.9999999999933
vertex 3.4142135623732 1.999999999993 19.9999999999933
endloop
endfacet
facet normal 1.32784725561248e-30 1.2490009027033e-16 1.0
outer loop
vertex 3.4142135623732 1.999999999993 19.9999999999933
vertex 2.53055006838381 0.116336506003177 19.9999999999933
vertex 2.96856926665068 0.0292090703181641 19.9999999999933
endloop
endfacet
facet normal 1.32784725561248e-30 1.2490009027033e-16 1.0
outer loop
vertex 5.50000000000023 6.91421356236699 19.9999999999933
vertex 3.4142135623732 1.999999999993 19.9999999999933
vertex 6.9142135623724 5.49999999999288 19.9999999999933
endloop
endfacet
facet normal 1.32784725561248e-30 1.2490009027033e-16 1.0
outer loop
vertex 5.50000000000023 6.91421356236699 19.9999999999933
vertex 6.9142135623724 5.49999999999288 19.9999999999933
vertex 5.50000000000023 13.0857864376195 19.9999999999933
endloop
endfacet
facet normal 1.32784725561248e-30 1.2490009027033e-16 1.0
outer loop
vertex 11.65 -6.98734163862014e-12 19.9999999999933
vertex 16.585786437627 1.99999999999316 19.9999999999933
vertex 11.65 1.99999999999305 19.9999999999933
endloop
endfacet
facet normal 1.32784725561248e-30 1.2490009027033e-16 1.0
outer loop
vertex 16.585786437627 1.99999999999316 19.9999999999933
vertex 11.65 -6.98734163862014e-12 19.9999999999933
vertex 16.5857864376273 -7.17376398284841e-12 19.9999999999933
endloop
endfacet
facet normal 1.32784725561248e-30 1.2490009027033e-16 1.0
outer loop
vertex 16.585786437627 1.99999999999316 19.9999999999933
vertex 14.5000000000002 6.91421356236593 19.9999999999933
vertex 13.0857864376273 5.49999999999288 19.9999999999933
endloop
endfacet
facet normal 1.32784725561248e-30 1.2490009027033e-16 1.0
outer loop
vertex 14.5000000000002 6.91421356236593 19.9999999999933
vertex 16.585786437627 1.99999999999316 19.9999999999933
vertex 18.0000000000001 3.41421356236627 19.9999999999933
endloop
endfacet
facet normal 1.32784725561248e-30 1.2490009027033e-16 1.0
outer loop
vertex 18.0000000000001 3.41421356236627 19.9999999999933
vertex 16.585786437627 1.99999999999316 19.9999999999933
vertex 16.5857864376273 -7.17376398284841e-12 19.9999999999933
endloop
endfacet
facet normal 1.32784725561248e-30 1.2490009027033e-16 1.0
outer loop
vertex 18.0000000000001 3.41421356236627 19.9999999999933
vertex 16.5857864376273 -7.17376398284841e-12 19.9999999999933
vertex 17.0314307333499 0.0292090703183597 19.9999999999933
endloop
endfacet
facet normal 1.32784725561248e-30 1.2490009027033e-16 1.0
outer loop
vertex 18.0000000000001 3.41421356236627 19.9999999999933
vertex 17.0314307333499 0.0292090703183597 19.9999999999933
vertex 17.4694499316168 0.116336506003355 19.9999999999933
endloop
endfacet
facet normal 1.32784725561248e-30 1.2490009027033e-16 1.0
outer loop
vertex 18.0000000000001 3.41421356236627 19.9999999999933
vertex 17.4694499316168 0.116336506003355 19.9999999999933
vertex 17.8923494025037 0.259891532466995 19.9999999999933
endloop
endfacet
facet normal 1.32784725561248e-30 1.2490009027033e-16 1.0
outer loop
vertex 18.0000000000001 3.41421356236627 19.9999999999933
vertex 17.8923494025037 0.259891532466995 19.9999999999933
vertex 18.2928932188139 0.457417883405484 19.9999999999933
endloop
endfacet
facet normal 1.32784725561248e-30 1.2490009027033e-16 1.0
outer loop
vertex 18.0000000000001 3.41421356236627 19.9999999999933
vertex 20.0 8.34999999999304 19.9999999999933
vertex 18.0 8.34999999999302 19.9999999999933
endloop
endfacet
facet normal 1.32784725561248e-30 1.2490009027033e-16 1.0
outer loop
vertex 20.0 8.34999999999304 19.9999999999933
vertex 18.0000000000001 3.41421356236627 19.9999999999933
vertex 18.2928932188139 0.457417883405484 19.9999999999933
endloop
endfacet
facet normal 1.32784725561248e-30 1.2490009027033e-16 1.0
outer loop
vertex 20.0 8.34999999999304 19.9999999999933
vertex 18.2928932188139 0.457417883405484 19.9999999999933
vertex 18.6642279647985 0.705535828189608 19.9999999999933
endloop
endfacet
facet normal 1.32784725561248e-30 1.2490009027033e-16 1.0
outer loop
vertex 20.0 8.34999999999304 19.9999999999933
vertex 18.6642279647985 0.705535828189608 19.9999999999933
vertex 19.0000000000004 0.999999999992851 19.9999999999933
endloop
endfacet
facet normal 1.32784725561248e-30 1.2490009027033e-16 1.0
outer loop
vertex 20.0 8.34999999999304 19.9999999999933
vertex 19.0000000000004 0.999999999992851 19.9999999999933
vertex 19.2944641718037 1.33577203519476 19.9999999999933
endloop
endfacet
facet normal 1.32784725561248e-30 1.2490009027033e-16 1.0
outer loop
vertex 20.0 8.34999999999304 19.9999999999933
vertex 19.2944641718037 1.33577203519476 19.9999999999933
vertex 19.5425821165878 1.7071067811794 19.9999999999933
endloop
endfacet
facet normal 1.32784725561248e-30 1.2490009027033e-16 1.0
outer loop
vertex 20.0 8.34999999999304 19.9999999999933
vertex 19.5425821165878 1.7071067811794 19.9999999999933
vertex 19.7401084675263 2.10765059748958 19.9999999999933
endloop
endfacet
facet normal 1.32784725561248e-30 1.2490009027033e-16 1.0
outer loop
vertex 20.0 8.34999999999304 19.9999999999933
vertex 19.7401084675263 2.10765059748958 19.9999999999933
vertex 19.8836634939899 2.53055006837648 19.9999999999933
endloop
endfacet
facet normal 1.32784725561248e-30 1.2490009027033e-16 1.0
outer loop
vertex 20.0 8.34999999999304 19.9999999999933
vertex 19.8836634939899 2.53055006837648 19.9999999999933
vertex 19.9707909296749 2.96856926664336 19.9999999999933
endloop
endfacet
facet normal 1.32784725561248e-30 1.2490009027033e-16 1.0
outer loop
vertex 20.0 8.34999999999304 19.9999999999933
vertex 19.9707909296749 2.96856926664336 19.9999999999933
vertex 20.0000000000004 3.41421356236598 19.9999999999933
endloop
endfacet
facet normal 1.32784725561248e-30 1.2490009027033e-16 1.0
outer loop
vertex 20.0 11.649999999993 19.9999999999933
vertex 17.9999999999999 16.5857864376199 19.9999999999933
vertex 17.9999999999999 11.649999999993 19.9999999999933
endloop
endfacet
facet normal 1.32784725561248e-30 1.2490009027033e-16 1.0
outer loop
vertex 17.9999999999999 16.5857864376199 19.9999999999933
vertex 20.0 11.649999999993 19.9999999999933
vertex 18.2928932188134 19.5425821165807 19.9999999999933
endloop
endfacet
facet normal 1.32784725561248e-30 1.2490009027033e-16 1.0
outer loop
vertex 18.2928932188134 19.5425821165807 19.9999999999933
vertex 20.0 11.649999999993 19.9999999999933
vertex 18.664227964798 19.2944641717966 19.9999999999933
endloop
endfacet
facet normal 1.32784725561248e-30 1.2490009027033e-16 1.0
outer loop
vertex 18.664227964798 19.2944641717966 19.9999999999933
vertex 20.0 11.649999999993 19.9999999999933
vertex 18.9999999999999 18.9999999999934 19.9999999999933
endloop
endfacet
facet normal 1.32784725561248e-30 1.2490009027033e-16 1.0
outer loop
vertex 18.9999999999999 18.9999999999934 19.9999999999933
vertex 20.0 11.649999999993 19.9999999999933
vertex 19.2944641718032 18.6642279647916 19.9999999999933
endloop
endfacet
facet normal 1.32784725561248e-30 1.2490009027033e-16 1.0
outer loop
vertex 19.2944641718032 18.6642279647916 19.9999999999933
vertex 20.0 11.649999999993 19.9999999999933
vertex 19.5425821165873 18.2928932188069 19.9999999999934
endloop
endfacet
facet normal 1.32784725561248e-30 1.2490009027033e-16 1.0
outer loop
vertex 19.5425821165873 18.2928932188069 19.9999999999934
vertex 20.0 11.649999999993 19.9999999999933
vertex 19.7401084675258 17.8923494024967 19.9999999999933
endloop
endfacet
facet normal 1.32784725561248e-30 1.2490009027033e-16 1.0
outer loop
vertex 19.7401084675258 17.8923494024967 19.9999999999933
vertex 20.0 11.649999999993 19.9999999999933
vertex 19.8836634939895 17.4694499316098 19.9999999999933
endloop
endfacet
facet normal 1.32784725561248e-30 1.2490009027033e-16 1.0
outer loop
vertex 19.8836634939895 17.4694499316098 19.9999999999933
vertex 20.0 11.649999999993 19.9999999999933
vertex 19.9707909296745 17.0314307333429 19.9999999999933
endloop
endfacet
facet normal 1.32784725561248e-30 1.2490009027033e-16 1.0
outer loop
vertex 19.9707909296745 17.0314307333429 19.9999999999933
vertex 20.0 11.649999999993 19.9999999999933
vertex 20.0 16.5857864376203 19.9999999999933
endloop
endfacet
facet normal 1.32784725561248e-30 1.2490009027033e-16 1.0
outer loop
vertex 2.00000000000001 11.649999999993 19.9999999999933
vertex 2.65569451122495e-29 16.5857864376198 19.9999999999933
vertex 2.65569451122495e-29 11.649999999993 19.9999999999933
endloop
endfacet
facet normal 1.32784725561248e-30 1.2490009027033e-16 1.0
outer loop
vertex 2.65569451122495e-29 16.5857864376198 19.9999999999933
vertex 2.00000000000001 11.649999999993 19.9999999999933
vertex 0.029209070325514 17.0314307333424 19.9999999999933
endloop
endfacet
facet normal 1.32784725561248e-30 1.2490009027033e-16 1.0
outer loop
vertex 0.029209070325514 17.0314307333424 19.9999999999933
vertex 2.00000000000001 11.649999999993 19.9999999999933
vertex 0.116336506010526 17.4694499316093 19.9999999999933
endloop
endfacet
facet normal 1.32784725561248e-30 1.2490009027033e-16 1.0
outer loop
vertex 0.116336506010526 17.4694499316093 19.9999999999933
vertex 2.00000000000001 11.649999999993 19.9999999999933
vertex 0.259891532474143 17.8923494024962 19.9999999999933
endloop
endfacet
facet normal 1.32784725561248e-30 1.2490009027033e-16 1.0
outer loop
vertex 0.259891532474143 17.8923494024962 19.9999999999933
vertex 2.00000000000001 11.649999999993 19.9999999999933
vertex 0.457417883412628 18.2928932188064 19.9999999999934
endloop
endfacet
facet normal 1.32784725561248e-30 1.2490009027033e-16 1.0
outer loop
vertex 0.457417883412628 18.2928932188064 19.9999999999934
vertex 2.00000000000001 11.649999999993 19.9999999999933
vertex 0.705535828196775 18.6642279647911 19.9999999999933
endloop
endfacet
facet normal 1.32784725561248e-30 1.2490009027033e-16 1.0
outer loop
vertex 0.705535828196775 18.6642279647911 19.9999999999933
vertex 2.00000000000001 11.649999999993 19.9999999999933
vertex 1.0 18.9999999999929 19.9999999999933
endloop
endfacet
facet normal 1.32784725561248e-30 1.2490009027033e-16 1.0
outer loop
vertex 1.0 18.9999999999929 19.9999999999933
vertex 2.00000000000001 11.649999999993 19.9999999999933
vertex 1.33577203520191 19.2944641717962 19.9999999999933
endloop
endfacet
facet normal 1.32784725561248e-30 1.2490009027033e-16 1.0
outer loop
vertex 1.33577203520191 19.2944641717962 19.9999999999933
vertex 2.00000000000001 11.649999999993 19.9999999999933
vertex 1.70710678118656 19.5425821165803 19.9999999999933
endloop
endfacet
facet normal 1.32784725561248e-30 1.2490009027033e-16 1.0
outer loop
vertex 1.70710678118656 19.5425821165803 19.9999999999933
vertex 2.00000000000001 11.649999999993 19.9999999999933
vertex 2.00000000000001 16.5857864376198 19.9999999999933
endloop
endfacet
facet normal 1.32784725561248e-30 1.2490009027033e-16 1.0
outer loop
vertex 1.70710678118656 19.5425821165803 19.9999999999933
vertex 2.00000000000001 16.5857864376198 19.9999999999933
vertex 2.10765059749674 19.7401084675188 19.9999999999933
endloop
endfacet
facet normal 1.32784725561248e-30 1.2490009027033e-16 1.0
outer loop
vertex 2.10765059749674 19.7401084675188 19.9999999999933
vertex 2.00000000000001 16.5857864376198 19.9999999999933
vertex 5.50000000000023 13.0857864376195 19.9999999999933
endloop
endfacet
facet normal 1.32784725561248e-30 1.2490009027033e-16 1.0
outer loop
vertex 2.10765059749674 19.7401084675188 19.9999999999933
vertex 5.50000000000023 13.0857864376195 19.9999999999933
vertex 2.53055006838365 19.8836634939824 19.9999999999933
endloop
endfacet
facet normal 1.32784725561248e-30 1.2490009027033e-16 1.0
outer loop
vertex 2.53055006838365 19.8836634939824 19.9999999999933
vertex 5.50000000000023 13.0857864376195 19.9999999999933
vertex 3.41421356237313 17.9999999999929 19.9999999999933
endloop
endfacet
facet normal 1.32784725561248e-30 1.2490009027033e-16 1.0
outer loop
vertex 2.53055006838365 19.8836634939824 19.9999999999933
vertex 3.41421356237313 17.9999999999929 19.9999999999933
vertex 2.9685692666505 19.9707909296674 19.9999999999933
endloop
endfacet
facet normal 1.32784725561248e-30 1.2490009027033e-16 1.0
outer loop
vertex 3.41421356237313 17.9999999999929 19.9999999999933
vertex 5.50000000000023 13.0857864376195 19.9999999999933
vertex 6.91421356237342 14.4999999999929 19.9999999999933
endloop
endfacet
facet normal 1.32784725561248e-30 1.2490009027033e-16 1.0
outer loop
vertex 6.91421356237342 14.4999999999929 19.9999999999933
vertex 5.50000000000023 13.0857864376195 19.9999999999933
vertex 6.9142135623724 5.49999999999288 19.9999999999933
endloop
endfacet
facet normal 1.32784725561248e-30 1.2490009027033e-16 1.0
outer loop
vertex 6.91421356237342 14.4999999999929 19.9999999999933
vertex 6.9142135623724 5.49999999999288 19.9999999999933
vertex 13.0857864376273 5.49999999999288 19.9999999999933
endloop
endfacet
facet normal 1.32784725561248e-30 1.2490009027033e-16 1.0
outer loop
vertex 6.91421356237342 14.4999999999929 19.9999999999933
vertex 13.0857864376273 5.49999999999288 19.9999999999933
vertex 13.085786437627 14.4999999999929 19.9999999999933
endloop
endfacet
facet normal 1.32784725561248e-30 1.2490009027033e-16 1.0
outer loop
vertex 13.085786437627 14.4999999999929 19.9999999999933
vertex 13.0857864376273 5.49999999999288 19.9999999999933
vertex 14.5000000000002 13.0857864376201 19.9999999999933
endloop
endfacet
facet normal 1.32784725561248e-30 1.2490009027033e-16 1.0
outer loop
vertex 13.085786437627 14.4999999999929 19.9999999999933
vertex 14.5000000000002 13.0857864376201 19.9999999999933
vertex 16.5857864376268 17.999999999993 19.9999999999933
endloop
endfacet
facet normal 1.32784725561248e-30 1.2490009027033e-16 1.0
outer loop
vertex 14.5000000000002 13.0857864376201 19.9999999999933
vertex 13.0857864376273 5.49999999999288 19.9999999999933
vertex 14.5000000000002 6.91421356236593 19.9999999999933
endloop
endfacet
facet normal 1.32784725561248e-30 1.2490009027033e-16 1.0
outer loop
vertex 16.5857864376268 17.999999999993 19.9999999999933
vertex 14.5000000000002 13.0857864376201 19.9999999999933
vertex 17.9999999999999 16.5857864376199 19.9999999999933
endloop
endfacet
facet normal 1.32784725561248e-30 1.2490009027033e-16 1.0
outer loop
vertex 16.5857864376268 17.999999999993 19.9999999999933
vertex 17.9999999999999 16.5857864376199 19.9999999999933
vertex 17.0314307333494 19.9707909296678 19.9999999999933
endloop
endfacet
facet normal 1.32784725561248e-30 1.2490009027033e-16 1.0
outer loop
vertex 17.0314307333494 19.9707909296678 19.9999999999933
vertex 17.9999999999999 16.5857864376199 19.9999999999933
vertex 17.4694499316163 19.8836634939828 19.9999999999933
endloop
endfacet
facet normal 1.32784725561248e-30 1.2490009027033e-16 1.0
outer loop
vertex 17.4694499316163 19.8836634939828 19.9999999999933
vertex 17.9999999999999 16.5857864376199 19.9999999999933
vertex 17.8923494025032 19.7401084675192 19.9999999999933
endloop
endfacet
facet normal 1.32784725561248e-30 1.2490009027033e-16 1.0
outer loop
vertex 17.8923494025032 19.7401084675192 19.9999999999933
vertex 17.9999999999999 16.5857864376199 19.9999999999933
vertex 18.2928932188134 19.5425821165807 19.9999999999933
endloop
endfacet
facet normal 1.32784725561248e-30 1.2490009027033e-16 1.0
outer loop
vertex 16.5857864376268 17.999999999993 19.9999999999933
vertex 11.6499999999999 19.999999999993 19.9999999999933
vertex 11.6499999999999 17.999999999993 19.9999999999933
endloop
endfacet
facet normal 1.32784725561248e-30 1.2490009027033e-16 1.0
outer loop
vertex 11.6499999999999 19.999999999993 19.9999999999933
vertex 16.5857864376268 17.999999999993 19.9999999999933
vertex 16.5857864376268 19.9999999999933 19.9999999999933
endloop
endfacet
facet normal 1.32784725561248e-30 1.2490009027033e-16 1.0
outer loop
vertex 16.5857864376268 19.9999999999933 19.9999999999933
vertex 16.5857864376268 17.999999999993 19.9999999999933
vertex 17.0314307333494 19.9707909296678 19.9999999999933
endloop
endfacet
facet normal 1.32784725561248e-30 1.2490009027033e-16 1.0
outer loop
vertex 3.41421356237313 17.9999999999929 19.9999999999933
vertex 3.41421356237313 19.9999999999929 19.9999999999933
vertex 2.9685692666505 19.9707909296674 19.9999999999933
endloop
endfacet
facet normal 1.32784725561248e-30 1.2490009027033e-16 1.0
outer loop
vertex 3.41421356237313 19.9999999999929 19.9999999999933
vertex 3.41421356237313 17.9999999999929 19.9999999999933
vertex 8.34999999999994 17.999999999993 19.9999999999933
endloop
endfacet
facet normal 1.32784725561248e-30 1.2490009027033e-16 1.0
outer loop
vertex 3.41421356237313 19.9999999999929 19.9999999999933
vertex 8.34999999999994 17.999999999993 19.9999999999933
vertex 3.49421356237313 19.9999999999929 19.9999999999933
endloop
endfacet
facet normal 1.32784725561248e-30 1.2490009027033e-16 1.0
outer loop
vertex 3.49421356237313 19.9999999999929 19.9999999999933
vertex 8.34999999999994 17.999999999993 19.9999999999933
vertex 8.34999999999994 19.999999999993 19.9999999999933
endloop
endfacet
facet normal 0.0654031292301744 -0.997858923238601 1.24632669589556e-16
outer loop
vertex 17.0314307333499 0.0292090703183597 19.9999999999933
vertex 16.5857864376273 -7.17626198465382e-12 -6.65421850953862e-12
vertex 17.0314307333499 0.0292090703183572 -6.66107666802418e-12
endloop
endfacet
facet normal 0.0654031292301744 -0.997858923238601 1.24632669589556e-16
outer loop
vertex 16.5857864376273 -7.17626198465382e-12 -6.65421850953862e-12
vertex 17.0314307333499 0.0292090703183597 19.9999999999933
vertex 16.5857864376273 -7.17376398284841e-12 19.9999999999933
endloop
endfacet
facet normal 0.997858923238597 0.0654031292302375 -8.16885674482006e-18
outer loop
vertex 19.9707909296745 17.0314307333429 -6.67804158638319e-12
vertex 20.0 16.5857864376203 19.9999999999933
vertex 20.0 16.5857864376203 -6.66071571231441e-12
endloop
endfacet
facet normal 0.997858923238597 0.0654031292302375 -8.16885674482006e-18
outer loop
vertex 20.0 16.5857864376203 19.9999999999933
vertex 19.9707909296745 17.0314307333429 -6.67804158638319e-12
vertex 19.9707909296745 17.0314307333429 19.9999999999933
endloop
endfacet
facet normal -3.77695320865409e-14 -1.0 1.2490009027033e-16
outer loop
vertex 16.5857864376273 -7.17626198465382e-12 -6.65421850953862e-12
vertex 11.65 -6.98734163862014e-12 19.9999999999933
vertex 11.65 -6.98983964042554e-12 -6.65638424379722e-12
endloop
endfacet
facet normal -3.77695320865409e-14 -1.0 1.2490009027033e-16
outer loop
vertex 11.65 -6.98734163862014e-12 19.9999999999933
vertex 16.5857864376273 -7.17626198465382e-12 -6.65421850953862e-12
vertex 16.5857864376273 -7.17376398284841e-12 19.9999999999933
endloop
endfacet
facet normal 0.0 1.0 -1.2490009027033e-16
outer loop
vertex 6.91421356237342 14.4999999999929 19.9999999999933
vertex 13.085786437627 14.4999999999929 -6.65963284518511e-12
vertex 6.91421356237342 14.4999999999929 -6.65963284518511e-12
endloop
endfacet
facet normal 0.0 1.0 -1.2490009027033e-16
outer loop
vertex 13.085786437627 14.4999999999929 -6.65963284518511e-12
vertex 6.91421356237342 14.4999999999929 19.9999999999933
vertex 13.085786437627 14.4999999999929 19.9999999999933
endloop
endfacet
facet normal -0.70710678118658 0.707106781186515 -8.83177008009574e-17
outer loop
vertex 13.085786437627 14.4999999999929 19.9999999999933
vertex 16.5857864376268 17.999999999993 -6.65494042095816e-12
vertex 13.085786437627 14.4999999999929 -6.65963284518511e-12
endloop
endfacet
facet normal -0.70710678118658 0.707106781186515 -8.83177008009574e-17
outer loop
vertex 16.5857864376268 17.999999999993 -6.65494042095816e-12
vertex 13.085786437627 14.4999999999929 19.9999999999933
vertex 16.5857864376268 17.999999999993 19.9999999999933
endloop
endfacet
facet normal 0.751839807478872 0.65934581510019 -8.2352351825379e-17
outer loop
vertex 18.9999999999999 18.9999999999934 -6.68345592202968e-12
vertex 19.2944641718032 18.6642279647916 19.9999999999933
vertex 19.2944641718032 18.6642279647916 -6.65133086386049e-12
endloop
endfacet
facet normal 0.751839807478872 0.65934581510019 -8.2352351825379e-17
outer loop
vertex 19.2944641718032 18.6642279647916 19.9999999999933
vertex 18.9999999999999 18.9999999999934 -6.68345592202968e-12
vertex 18.9999999999999 18.9999999999934 19.9999999999933
endloop
endfacet
facet normal -1.0 -2.3101165425032e-14 4.2131849025488e-30
outer loop
vertex 11.65 -6.98734163862014e-12 19.9999999999933
vertex 11.65 1.99999999999304 -6.65133086386049e-12
vertex 11.65 -6.98983964042554e-12 -6.65638424379722e-12
endloop
endfacet
facet normal -1.0 -2.3101165425032e-14 4.2131849025488e-30
outer loop
vertex 11.65 1.99999999999304 -6.65133086386049e-12
vertex 11.65 -6.98734163862014e-12 19.9999999999933
vertex 11.65 1.99999999999305 19.9999999999933
endloop
endfacet
facet normal 7.30718823483893e-32 -1.0 1.2490009027033e-16
outer loop
vertex 16.5857864376268 17.999999999993 19.9999999999933
vertex 11.6499999999999 17.999999999993 -6.65205277528003e-12
vertex 16.5857864376268 17.999999999993 -6.65494042095816e-12
endloop
endfacet
facet normal 7.30718823483893e-32 -1.0 1.2490009027033e-16
outer loop
vertex 11.6499999999999 17.999999999993 -6.65205277528003e-12
vertex 16.5857864376268 17.999999999993 19.9999999999933
vertex 11.6499999999999 17.999999999993 19.9999999999933
endloop
endfacet
facet normal -0.065403129230144 0.997858923238603 -1.24632669589556e-16
outer loop
vertex 2.9685692666505 19.9707909296674 -6.66468622512184e-12
vertex 3.41421356237313 19.9999999999929 19.9999999999933
vertex 3.41421356237313 19.9999999999929 -6.66540813654137e-12
endloop
endfacet
facet normal -0.065403129230144 0.997858923238603 -1.24632669589556e-16
outer loop
vertex 3.41421356237313 19.9999999999929 19.9999999999933
vertex 2.9685692666505 19.9707909296674 -6.66468622512184e-12
vertex 2.9685692666505 19.9707909296674 19.9999999999933
endloop
endfacet
facet normal -2.30360551480821e-14 1.0 -1.2490009027033e-16
outer loop
vertex 11.65 1.99999999999304 -6.65133086386049e-12
vertex 16.585786437627 1.99999999999316 19.9999999999933
vertex 16.585786437627 1.99999999999316 -6.65854997805582e-12
endloop
endfacet
facet normal -2.30360551480821e-14 1.0 -1.2490009027033e-16
outer loop
vertex 16.585786437627 1.99999999999316 19.9999999999933
vertex 11.65 1.99999999999304 -6.65133086386049e-12
vertex 11.65 1.99999999999305 19.9999999999933
endloop
endfacet
facet normal 0.555570233019633 0.831469612302525 -1.03850629633622e-16
outer loop
vertex 18.2928932188134 19.5425821165807 -6.67768063067342e-12
vertex 18.664227964798 19.2944641717966 19.9999999999933
vertex 18.664227964798 19.2944641717966 -6.68742643483711e-12
endloop
endfacet
facet normal 0.555570233019633 0.831469612302525 -1.03850629633622e-16
outer loop
vertex 18.664227964798 19.2944641717966 19.9999999999933
vertex 18.2928932188134 19.5425821165807 -6.67768063067342e-12
vertex 18.2928932188134 19.5425821165807 19.9999999999933
endloop
endfacet
facet normal -0.707106781186551 -0.707106781186544 8.83177008009629e-17
outer loop
vertex 16.585786437627 1.99999999999316 19.9999999999933
vertex 13.0857864376273 5.49999999999288 -6.66252049086324e-12
vertex 16.585786437627 1.99999999999316 -6.65854997805582e-12
endloop
endfacet
facet normal -0.707106781186551 -0.707106781186544 8.83177008009629e-17
outer loop
vertex 13.0857864376273 5.49999999999288 -6.66252049086324e-12
vertex 16.585786437627 1.99999999999316 19.9999999999933
vertex 13.0857864376273 5.49999999999288 19.9999999999933
endloop
endfacet
facet normal 0.0 -1.0 1.2490009027033e-16
outer loop
vertex 13.0857864376273 5.49999999999288 19.9999999999933
vertex 6.9142135623724 5.49999999999288 -6.66252049086324e-12
vertex 13.0857864376273 5.49999999999288 -6.66252049086324e-12
endloop
endfacet
facet normal 0.0 -1.0 1.2490009027033e-16
outer loop
vertex 6.9142135623724 5.49999999999288 -6.66252049086324e-12
vertex 13.0857864376273 5.49999999999288 19.9999999999933
vertex 6.9142135623724 5.49999999999288 19.9999999999933
endloop
endfacet
facet normal 0.707106781186616 -0.707106781186479 8.83177008009528e-17
outer loop
vertex 6.9142135623724 5.49999999999288 -6.66252049086324e-12
vertex 3.4142135623732 1.999999999993 19.9999999999933
vertex 3.4142135623732 1.999999999993 -6.65277468669956e-12
endloop
endfacet
facet normal 0.707106781186616 -0.707106781186479 8.83177008009528e-17
outer loop
vertex 3.4142135623732 1.999999999993 19.9999999999933
vertex 6.9142135623724 5.49999999999288 -6.66252049086324e-12
vertex 6.9142135623724 5.49999999999288 19.9999999999933
endloop
endfacet
facet normal 0.0 1.0 -1.2490009027033e-16
outer loop
vertex 3.4142135623732 1.999999999993 19.9999999999933
vertex 8.35000000000003 1.999999999993 -6.65277468669956e-12
vertex 3.4142135623732 1.999999999993 -6.65277468669956e-12
endloop
endfacet
facet normal 0.0 1.0 -1.2490009027033e-16
outer loop
vertex 8.35000000000003 1.999999999993 -6.65277468669956e-12
vertex 3.4142135623732 1.999999999993 19.9999999999933
vertex 8.35000000000003 1.999999999993 19.9999999999933
endloop
endfacet
facet normal 1.0 -1.40410240902588e-14 4.25877920748721e-31
outer loop
vertex 20.0 16.5857864376203 -6.66071571231441e-12
vertex 20.0 11.649999999993 19.9999999999933
vertex 20.0 11.649999999993 -6.66396431370231e-12
endloop
endfacet
facet normal 1.0 -1.40410240902588e-14 4.25877920748721e-31
outer loop
vertex 20.0 11.649999999993 19.9999999999933
vertex 20.0 16.5857864376203 -6.66071571231441e-12
vertex 20.0 16.5857864376203 19.9999999999933
endloop
endfacet
facet normal -0.946930129495117 0.321439465303127 -4.01478182328059e-17
outer loop
vertex 0.116336506010526 17.4694499316093 19.9999999999933
vertex 0.259891532474143 17.8923494024962 -6.65638424379722e-12
vertex 0.116336506010526 17.4694499316093 -6.67190533931716e-12
endloop
endfacet
facet normal -0.946930129495117 0.321439465303127 -4.01478182328059e-17
outer loop
vertex 0.259891532474143 17.8923494024962 -6.65638424379722e-12
vertex 0.116336506010526 17.4694499316093 19.9999999999933
vertex 0.259891532474143 17.8923494024962 19.9999999999933
endloop
endfacet
facet normal 1.0 4.79294048610613e-46 -1.32784725561248e-30
outer loop
vertex 8.35000000000003 1.999999999993 -6.65277468669956e-12
vertex 8.35000000000003 -6.98896593931408e-12 19.9999999999933
vertex 8.35000000000003 -6.99146394111949e-12 -6.65349659811909e-12
endloop
endfacet
facet normal 1.0 4.79294048610613e-46 -1.32784725561248e-30
outer loop
vertex 8.35000000000003 -6.98896593931408e-12 19.9999999999933
vertex 8.35000000000003 1.999999999993 -6.65277468669956e-12
vertex 8.35000000000003 1.999999999993 19.9999999999933
endloop
endfacet
facet normal -1.0 9.34623394790706e-45 1.32784725561248e-30
outer loop
vertex 11.6499999999999 17.999999999993 19.9999999999933
vertex 11.6499999999999 19.999999999993 -6.66613004796091e-12
vertex 11.6499999999999 17.999999999993 -6.65205277528003e-12
endloop
endfacet
facet normal -1.0 9.34623394790706e-45 1.32784725561248e-30
outer loop
vertex 11.6499999999999 19.999999999993 -6.66613004796091e-12
vertex 11.6499999999999 17.999999999993 19.9999999999933
vertex 11.6499999999999 19.999999999993 19.9999999999933
endloop
endfacet
facet normal -1.0 -2.52475373911588e-45 1.32784725561248e-30
outer loop
vertex 17.9999999999999 11.649999999993 19.9999999999933
vertex 17.9999999999999 16.5857864376199 -6.64988704102143e-12
vertex 17.9999999999999 11.649999999993 -6.65927188947535e-12
endloop
endfacet
facet normal -1.0 -2.52475373911588e-45 1.32784725561248e-30
outer loop
vertex 17.9999999999999 16.5857864376199 -6.64988704102143e-12
vertex 17.9999999999999 11.649999999993 19.9999999999933
vertex 17.9999999999999 16.5857864376199 19.9999999999933
endloop
endfacet
facet normal 7.27921060095985e-14 -1.0 1.2490009027033e-16
outer loop
vertex 8.35000000000003 -6.99146394111949e-12 -6.65349659811909e-12
vertex 3.41421356237331 -7.34825222892255e-12 19.9999999999933
vertex 3.41421356237331 -7.35075023072795e-12 -6.65891093376558e-12
endloop
endfacet
facet normal 7.27921060095985e-14 -1.0 1.2490009027033e-16
outer loop
vertex 3.41421356237331 -7.34825222892255e-12 19.9999999999933
vertex 8.35000000000003 -6.99146394111949e-12 -6.65349659811909e-12
vertex 8.35000000000003 -6.98896593931408e-12 19.9999999999933
endloop
endfacet
facet normal 0.831469612302551 0.555570233019594 -6.93907722556567e-17
outer loop
vertex 19.2944641718032 18.6642279647916 -6.65133086386049e-12
vertex 19.5425821165873 18.2928932188069 19.9999999999934
vertex 19.5425821165873 18.2928932188069 -6.64663843963353e-12
endloop
endfacet
facet normal 0.831469612302551 0.555570233019594 -6.93907722556567e-17
outer loop
vertex 19.5425821165873 18.2928932188069 19.9999999999934
vertex 19.2944641718032 18.6642279647916 -6.65133086386049e-12
vertex 19.2944641718032 18.6642279647916 19.9999999999933
endloop
endfacet
facet normal -0.0654031292301273 -0.997858923238605 1.24632669589556e-16
outer loop
vertex 3.41421356237331 -7.35075023072795e-12 -6.65891093376558e-12
vertex 2.96856926665068 0.0292090703181641 19.9999999999933
vertex 2.96856926665068 0.0292090703181616 -6.66973960505857e-12
endloop
endfacet
facet normal -0.0654031292301273 -0.997858923238605 1.24632669589556e-16
outer loop
vertex 2.96856926665068 0.0292090703181641 19.9999999999933
vertex 3.41421356237331 -7.35075023072795e-12 -6.65891093376558e-12
vertex 3.41421356237331 -7.34825222892255e-12 19.9999999999933
endloop
endfacet
facet normal -0.195090322016151 -0.980785280403226 1.22500170058174e-16
outer loop
vertex 2.96856926665068 0.0292090703181641 19.9999999999933
vertex 2.53055006838381 0.116336506003175 -6.66396431370231e-12
vertex 2.96856926665068 0.0292090703181616 -6.66973960505857e-12
endloop
endfacet
facet normal -0.195090322016151 -0.980785280403226 1.22500170058174e-16
outer loop
vertex 2.53055006838381 0.116336506003175 -6.66396431370231e-12
vertex 2.96856926665068 0.0292090703181641 19.9999999999933
vertex 2.53055006838381 0.116336506003177 19.9999999999933
endloop
endfacet
facet normal -1.12708501833445e-30 1.0 -1.2490009027033e-16
outer loop
vertex 3.41421356237313 19.9999999999929 -6.66540813654137e-12
vertex 3.49421356237313 19.9999999999929 19.9999999999933
vertex 3.49421356237313 19.9999999999929 -6.66613004796091e-12
endloop
endfacet
facet normal -1.12708501833445e-30 1.0 -1.2490009027033e-16
outer loop
vertex 3.49421356237313 19.9999999999929 19.9999999999933
vertex 3.41421356237313 19.9999999999929 -6.66540813654137e-12
vertex 3.41421356237313 19.9999999999929 19.9999999999933
endloop
endfacet
facet normal -0.707106781186623 0.707106781186472 -8.8317700800952e-17
outer loop
vertex 2.0000000000001 3.41421356236611 19.9999999999933
vertex 5.50000000000023 6.91421356236698 -6.65999380089488e-12
vertex 2.0000000000001 3.41421356236611 -6.65818902234605e-12
endloop
endfacet
facet normal -0.707106781186623 0.707106781186472 -8.8317700800952e-17
outer loop
vertex 5.50000000000023 6.91421356236698 -6.65999380089488e-12
vertex 2.0000000000001 3.41421356236611 19.9999999999933
vertex 5.50000000000023 6.91421356236699 19.9999999999933
endloop
endfacet
facet normal -0.32143946530314 -0.946930129495113 1.18271658653635e-16
outer loop
vertex 2.53055006838381 0.116336506003177 19.9999999999933
vertex 2.10765059749692 0.259891532466788 -6.66143762373395e-12
vertex 2.53055006838381 0.116336506003175 -6.66396431370231e-12
endloop
endfacet
facet normal -0.32143946530314 -0.946930129495113 1.18271658653635e-16
outer loop
vertex 2.10765059749692 0.259891532466788 -6.66143762373395e-12
vertex 2.53055006838381 0.116336506003177 19.9999999999933
vertex 2.10765059749692 0.25989153246679 19.9999999999933
endloop
endfacet
facet normal -7.07901631217277e-14 1.0 -1.2490009027033e-16
outer loop
vertex 11.6499999999999 19.999999999993 19.9999999999933
vertex 16.5857864376268 19.9999999999933 -6.66396431370231e-12
vertex 11.6499999999999 19.999999999993 -6.66613004796091e-12
endloop
endfacet
facet normal -7.07901631217277e-14 1.0 -1.2490009027033e-16
outer loop
vertex 16.5857864376268 19.9999999999933 -6.66396431370231e-12
vertex 11.6499999999999 19.999999999993 19.9999999999933
vertex 16.5857864376268 19.9999999999933 19.9999999999933
endloop
endfacet
facet normal -0.442288690218993 -0.896872741532693 1.12019486378432e-16
outer loop
vertex 2.10765059749692 0.259891532466788 -6.66143762373395e-12
vertex 1.70710678118673 0.457417883405281 19.9999999999933
vertex 1.70710678118673 0.457417883405278 -6.66252049086324e-12
endloop
endfacet
facet normal -0.442288690218993 -0.896872741532693 1.12019486378432e-16
outer loop
vertex 1.70710678118673 0.457417883405281 19.9999999999933
vertex 2.10765059749692 0.259891532466788 -6.66143762373395e-12
vertex 2.10765059749692 0.25989153246679 19.9999999999933
endloop
endfacet
facet normal -1.32784725561248e-30 -1.2490009027033e-16 -1.0
outer loop
vertex 3.49421356237313 19.9999999999929 -6.66613004796091e-12
vertex 3.41421356237313 17.9999999999929 -6.65133086386049e-12
vertex 3.41421356237313 19.9999999999929 -6.66540813654137e-12
endloop
endfacet
facet normal -1.32784725561248e-30 -1.2490009027033e-16 -1.0
outer loop
vertex 3.41421356237313 17.9999999999929 -6.65133086386049e-12
vertex 3.49421356237313 19.9999999999929 -6.66613004796091e-12
vertex 8.34999999999994 17.999999999993 -6.65060895244096e-12
endloop
endfacet
facet normal -1.32784725561248e-30 -1.2490009027033e-16 -1.0
outer loop
vertex 8.34999999999994 17.999999999993 -6.65060895244096e-12
vertex 3.49421356237313 19.9999999999929 -6.66613004796091e-12
vertex 8.34999999999994 19.999999999993 -6.66613004796091e-12
endloop
endfacet
facet normal -1.32784725561248e-30 -1.2490009027033e-16 -1.0
outer loop
vertex 0.029209070325514 17.0314307333424 -6.66973960505857e-12
vertex 0.0 11.649999999993 -6.65963284518511e-12
vertex 0.0 16.5857864376198 -6.65024799673119e-12
endloop
endfacet
facet normal -1.32784725561248e-30 -1.2490009027033e-16 -1.0
outer loop
vertex 0.0 11.649999999993 -6.65963284518511e-12
vertex 0.029209070325514 17.0314307333424 -6.66973960505857e-12
vertex 2.00000000000001 11.649999999993 -6.66071571231441e-12
endloop
endfacet
facet normal -1.32784725561248e-30 -1.2490009027033e-16 -1.0
outer loop
vertex 2.00000000000001 11.649999999993 -6.66071571231441e-12
vertex 0.029209070325514 17.0314307333424 -6.66973960505857e-12
vertex 0.116336506010526 17.4694499316093 -6.67190533931716e-12
endloop
endfacet
facet normal -1.32784725561248e-30 -1.2490009027033e-16 -1.0
outer loop
vertex 2.00000000000001 11.649999999993 -6.66071571231441e-12
vertex 0.116336506010526 17.4694499316093 -6.67190533931716e-12
vertex 0.259891532474143 17.8923494024962 -6.65638424379722e-12
endloop
endfacet
facet normal -1.32784725561248e-30 -1.2490009027033e-16 -1.0
outer loop
vertex 2.00000000000001 11.649999999993 -6.66071571231441e-12
vertex 0.259891532474143 17.8923494024962 -6.65638424379722e-12
vertex 0.457417883412628 18.2928932188064 -6.6469993953433e-12
endloop
endfacet
facet normal -1.32784725561248e-30 -1.2490009027033e-16 -1.0
outer loop
vertex 2.00000000000001 11.649999999993 -6.66071571231441e-12
vertex 0.457417883412628 18.2928932188064 -6.6469993953433e-12
vertex 0.705535828196775 18.6642279647911 -6.6491651296019e-12
endloop
endfacet
facet normal -1.32784725561248e-30 -1.2490009027033e-16 -1.0
outer loop
vertex 2.00000000000001 11.649999999993 -6.66071571231441e-12
vertex 0.705535828196775 18.6642279647911 -6.6491651296019e-12
vertex 1.0 18.9999999999929 -6.68201209919061e-12
endloop
endfacet
facet normal -1.32784725561248e-30 -1.2490009027033e-16 -1.0
outer loop
vertex 2.00000000000001 11.649999999993 -6.66071571231441e-12
vertex 1.0 18.9999999999929 -6.68201209919061e-12
vertex 1.33577203520191 19.2944641717962 -6.68634356770781e-12
endloop
endfacet
facet normal -1.32784725561248e-30 -1.2490009027033e-16 -1.0
outer loop
vertex 2.00000000000001 11.649999999993 -6.66071571231441e-12
vertex 1.33577203520191 19.2944641717962 -6.68634356770781e-12
vertex 1.70710678118656 19.5425821165803 -6.67587585212459e-12
endloop
endfacet
facet normal -1.32784725561248e-30 -1.2490009027033e-16 -1.0
outer loop
vertex 2.00000000000001 11.649999999993 -6.66071571231441e-12
vertex 1.70710678118656 19.5425821165803 -6.67587585212459e-12
vertex 2.00000000000001 16.5857864376198 -6.65133086386049e-12
endloop
endfacet
facet normal -1.32784725561248e-30 -1.2490009027033e-16 -1.0
outer loop
vertex 2.00000000000001 8.34999999999298 -6.66504718083161e-12
vertex 1.61708157975227e-13 3.41421356236577 -6.66252049086324e-12
vertex 0.0 8.34999999999296 -6.66396431370231e-12
endloop
endfacet
facet normal -1.32784725561248e-30 -1.2490009027033e-16 -1.0
outer loop
vertex 1.61708157975227e-13 3.41421356236577 -6.66252049086324e-12
vertex 2.00000000000001 8.34999999999298 -6.66504718083161e-12
vertex 0.0292090703256988 2.96856926664314 -6.65891093376558e-12
endloop
endfacet
facet normal -1.32784725561248e-30 -1.2490009027033e-16 -1.0
outer loop
vertex 0.0292090703256988 2.96856926664314 -6.65891093376558e-12
vertex 2.00000000000001 8.34999999999298 -6.66504718083161e-12
vertex 0.116336506010687 2.53055006837629 -6.65746711092652e-12
endloop
endfacet
facet normal -1.32784725561248e-30 -1.2490009027033e-16 -1.0
outer loop
vertex 0.116336506010687 2.53055006837629 -6.65746711092652e-12
vertex 2.00000000000001 8.34999999999298 -6.66504718083161e-12
vertex 0.259891532474328 2.10765059748937 -6.65169181957026e-12
endloop
endfacet
facet normal -1.32784725561248e-30 -1.2490009027033e-16 -1.0
outer loop
vertex 0.259891532474328 2.10765059748937 -6.65169181957026e-12
vertex 2.00000000000001 8.34999999999298 -6.66504718083161e-12
vertex 0.457417883412813 1.70710678117921 -6.65385755382886e-12
endloop
endfacet
facet normal -1.32784725561248e-30 -1.2490009027033e-16 -1.0
outer loop
vertex 0.457417883412813 1.70710678117921 -6.65385755382886e-12
vertex 2.00000000000001 8.34999999999298 -6.66504718083161e-12
vertex 0.705535828196937 1.33577203519455 -6.66179857944371e-12
endloop
endfacet
facet normal -1.32784725561248e-30 -1.2490009027033e-16 -1.0
outer loop
vertex 0.705535828196937 1.33577203519455 -6.66179857944371e-12
vertex 2.00000000000001 8.34999999999298 -6.66504718083161e-12
vertex 1.00000000000019 0.999999999992648 -6.65638424379722e-12
endloop
endfacet
facet normal -1.32784725561248e-30 -1.2490009027033e-16 -1.0
outer loop
vertex 1.00000000000019 0.999999999992648 -6.65638424379722e-12
vertex 2.00000000000001 8.34999999999298 -6.66504718083161e-12
vertex 1.33577203520209 0.70553582818943 -6.66035475660465e-12
endloop
endfacet
facet normal -1.32784725561248e-30 -1.2490009027033e-16 -1.0
outer loop
vertex 1.33577203520209 0.70553582818943 -6.66035475660465e-12
vertex 2.00000000000001 8.34999999999298 -6.66504718083161e-12
vertex 1.70710678118673 0.457417883405278 -6.66252049086324e-12
endloop
endfacet
facet normal -1.32784725561248e-30 -1.2490009027033e-16 -1.0
outer loop
vertex 1.70710678118673 0.457417883405278 -6.66252049086324e-12
vertex 2.00000000000001 8.34999999999298 -6.66504718083161e-12
vertex 2.0000000000001 3.41421356236611 -6.65818902234605e-12
endloop
endfacet
facet normal -1.32784725561248e-30 -1.2490009027033e-16 -1.0
outer loop
vertex 1.70710678118673 0.457417883405278 -6.66252049086324e-12
vertex 2.0000000000001 3.41421356236611 -6.65818902234605e-12
vertex 2.10765059749692 0.259891532466788 -6.66143762373395e-12
endloop
endfacet
facet normal -1.32784725561248e-30 -1.2490009027033e-16 -1.0
outer loop
vertex 2.10765059749692 0.259891532466788 -6.66143762373395e-12
vertex 2.0000000000001 3.41421356236611 -6.65818902234605e-12
vertex 5.50000000000023 6.91421356236698 -6.65999380089488e-12
endloop
endfacet
facet normal -1.32784725561248e-30 -1.2490009027033e-16 -1.0
outer loop
vertex 2.10765059749692 0.259891532466788 -6.66143762373395e-12
vertex 5.50000000000023 6.91421356236698 -6.65999380089488e-12
vertex 2.53055006838381 0.116336506003175 -6.66396431370231e-12
endloop
endfacet
facet normal -1.32784725561248e-30 -1.2490009027033e-16 -1.0
outer loop
vertex 2.53055006838381 0.116336506003175 -6.66396431370231e-12
vertex 5.50000000000023 6.91421356236698 -6.65999380089488e-12
vertex 3.4142135623732 1.999999999993 -6.65277468669956e-12
endloop
endfacet
facet normal -1.32784725561248e-30 -1.2490009027033e-16 -1.0
outer loop
vertex 2.53055006838381 0.116336506003175 -6.66396431370231e-12
vertex 3.4142135623732 1.999999999993 -6.65277468669956e-12
vertex 2.96856926665068 0.0292090703181616 -6.66973960505857e-12
endloop
endfacet
facet normal -1.32784725561248e-30 -1.2490009027033e-16 -1.0
outer loop
vertex 3.4142135623732 1.999999999993 -6.65277468669956e-12
vertex 5.50000000000023 6.91421356236698 -6.65999380089488e-12
vertex 6.9142135623724 5.49999999999288 -6.66252049086324e-12
endloop
endfacet
facet normal -1.32784725561248e-30 -1.2490009027033e-16 -1.0
outer loop
vertex 16.5857864376268 19.9999999999933 -6.66396431370231e-12
vertex 11.6499999999999 17.999999999993 -6.65205277528003e-12
vertex 11.6499999999999 19.999999999993 -6.66613004796091e-12
endloop
endfacet
facet normal -1.32784725561248e-30 -1.2490009027033e-16 -1.0
outer loop
vertex 11.6499999999999 17.999999999993 -6.65205277528003e-12
vertex 16.5857864376268 19.9999999999933 -6.66396431370231e-12
vertex 16.5857864376268 17.999999999993 -6.65494042095816e-12
endloop
endfacet
facet normal -1.32784725561248e-30 -1.2490009027033e-16 -1.0
outer loop
vertex 16.5857864376268 17.999999999993 -6.65494042095816e-12
vertex 16.5857864376268 19.9999999999933 -6.66396431370231e-12
vertex 17.0314307333494 19.9707909296678 -6.66396431370231e-12
endloop
endfacet
facet normal -1.32784725561248e-30 -1.2490009027033e-16 -1.0
outer loop
vertex 2.10765059749674 19.7401084675188 -6.66793482650974e-12
vertex 2.00000000000001 16.5857864376198 -6.65133086386049e-12
vertex 1.70710678118656 19.5425821165803 -6.67587585212459e-12
endloop
endfacet
facet normal -1.32784725561248e-30 -1.2490009027033e-16 -1.0
outer loop
vertex 2.00000000000001 16.5857864376198 -6.65133086386049e-12
vertex 2.10765059749674 19.7401084675188 -6.66793482650974e-12
vertex 5.50000000000023 13.0857864376195 -6.66179857944371e-12
endloop
endfacet
facet normal -1.32784725561248e-30 -1.2490009027033e-16 -1.0
outer loop
vertex 5.50000000000023 13.0857864376195 -6.66179857944371e-12
vertex 2.10765059749674 19.7401084675188 -6.66793482650974e-12
vertex 2.53055006838365 19.8836634939824 -6.66288144657301e-12
endloop
endfacet
facet normal -1.32784725561248e-30 -1.2490009027033e-16 -1.0
outer loop
vertex 5.50000000000023 13.0857864376195 -6.66179857944371e-12
vertex 2.53055006838365 19.8836634939824 -6.66288144657301e-12
vertex 3.41421356237313 17.9999999999929 -6.65133086386049e-12
endloop
endfacet
facet normal -1.32784725561248e-30 -1.2490009027033e-16 -1.0
outer loop
vertex 3.41421356237313 17.9999999999929 -6.65133086386049e-12
vertex 2.53055006838365 19.8836634939824 -6.66288144657301e-12
vertex 2.9685692666505 19.9707909296674 -6.66468622512184e-12
endloop
endfacet
facet normal -1.32784725561248e-30 -1.2490009027033e-16 -1.0
outer loop
vertex 3.41421356237313 17.9999999999929 -6.65133086386049e-12
vertex 2.9685692666505 19.9707909296674 -6.66468622512184e-12
vertex 3.41421356237313 19.9999999999929 -6.66540813654137e-12
endloop
endfacet
facet normal -1.32784725561248e-30 -1.2490009027033e-16 -1.0
outer loop
vertex 5.50000000000023 13.0857864376195 -6.66179857944371e-12
vertex 3.41421356237313 17.9999999999929 -6.65133086386049e-12
vertex 6.91421356237342 14.4999999999929 -6.65963284518511e-12
endloop
endfacet
facet normal -1.32784725561248e-30 -1.2490009027033e-16 -1.0
outer loop
vertex 5.50000000000023 13.0857864376195 -6.66179857944371e-12
vertex 6.91421356237342 14.4999999999929 -6.65963284518511e-12
vertex 5.50000000000023 6.91421356236698 -6.65999380089488e-12
endloop
endfacet
facet normal -1.32784725561248e-30 -1.2490009027033e-16 -1.0
outer loop
vertex 5.50000000000023 6.91421356236698 -6.65999380089488e-12
vertex 6.91421356237342 14.4999999999929 -6.65963284518511e-12
vertex 6.9142135623724 5.49999999999288 -6.66252049086324e-12
endloop
endfacet
facet normal -1.32784725561248e-30 -1.2490009027033e-16 -1.0
outer loop
vertex 6.9142135623724 5.49999999999288 -6.66252049086324e-12
vertex 6.91421356237342 14.4999999999929 -6.65963284518511e-12
vertex 13.0857864376273 5.49999999999288 -6.66252049086324e-12
endloop
endfacet
facet normal -1.32784725561248e-30 -1.2490009027033e-16 -1.0
outer loop
vertex 13.0857864376273 5.49999999999288 -6.66252049086324e-12
vertex 6.91421356237342 14.4999999999929 -6.65963284518511e-12
vertex 13.085786437627 14.4999999999929 -6.65963284518511e-12
endloop
endfacet
facet normal -1.32784725561248e-30 -1.2490009027033e-16 -1.0
outer loop
vertex 13.0857864376273 5.49999999999288 -6.66252049086324e-12
vertex 13.085786437627 14.4999999999929 -6.65963284518511e-12
vertex 14.5000000000002 13.0857864376201 -6.66432526941207e-12
endloop
endfacet
facet normal -1.32784725561248e-30 -1.2490009027033e-16 -1.0
outer loop
vertex 14.5000000000002 13.0857864376201 -6.66432526941207e-12
vertex 13.085786437627 14.4999999999929 -6.65963284518511e-12
vertex 16.5857864376268 17.999999999993 -6.65494042095816e-12
endloop
endfacet
facet normal -1.32784725561248e-30 -1.2490009027033e-16 -1.0
outer loop
vertex 14.5000000000002 13.0857864376201 -6.66432526941207e-12
vertex 16.5857864376268 17.999999999993 -6.65494042095816e-12
vertex 17.9999999999999 16.5857864376199 -6.64988704102143e-12
endloop
endfacet
facet normal -1.32784725561248e-30 -1.2490009027033e-16 -1.0
outer loop
vertex 17.9999999999999 16.5857864376199 -6.64988704102143e-12
vertex 16.5857864376268 17.999999999993 -6.65494042095816e-12
vertex 17.0314307333494 19.9707909296678 -6.66396431370231e-12
endloop
endfacet
facet normal -1.32784725561248e-30 -1.2490009027033e-16 -1.0
outer loop
vertex 17.9999999999999 16.5857864376199 -6.64988704102143e-12
vertex 17.0314307333494 19.9707909296678 -6.66396431370231e-12
vertex 17.4694499316163 19.8836634939828 -6.66504718083161e-12
endloop
endfacet
facet normal -1.32784725561248e-30 -1.2490009027033e-16 -1.0
outer loop
vertex 17.9999999999999 16.5857864376199 -6.64988704102143e-12
vertex 17.4694499316163 19.8836634939828 -6.66504718083161e-12
vertex 17.8923494025032 19.7401084675192 -6.67190533931716e-12
endloop
endfacet
facet normal -1.32784725561248e-30 -1.2490009027033e-16 -1.0
outer loop
vertex 17.9999999999999 16.5857864376199 -6.64988704102143e-12
vertex 17.8923494025032 19.7401084675192 -6.67190533931716e-12
vertex 18.2928932188134 19.5425821165807 -6.67768063067342e-12
endloop
endfacet
facet normal -1.32784725561248e-30 -1.2490009027033e-16 -1.0
outer loop
vertex 17.9999999999999 16.5857864376199 -6.64988704102143e-12
vertex 18.2928932188134 19.5425821165807 -6.67768063067342e-12
vertex 17.9999999999999 11.649999999993 -6.65927188947535e-12
endloop
endfacet
facet normal -1.32784725561248e-30 -1.2490009027033e-16 -1.0
outer loop
vertex 17.9999999999999 11.649999999993 -6.65927188947535e-12
vertex 18.2928932188134 19.5425821165807 -6.67768063067342e-12
vertex 20.0 11.649999999993 -6.66396431370231e-12
endloop
endfacet
facet normal -1.32784725561248e-30 -1.2490009027033e-16 -1.0
outer loop
vertex 20.0 11.649999999993 -6.66396431370231e-12
vertex 18.2928932188134 19.5425821165807 -6.67768063067342e-12
vertex 18.664227964798 19.2944641717966 -6.68742643483711e-12
endloop
endfacet
facet normal -1.32784725561248e-30 -1.2490009027033e-16 -1.0
outer loop
vertex 20.0 11.649999999993 -6.66396431370231e-12
vertex 18.664227964798 19.2944641717966 -6.68742643483711e-12
vertex 18.9999999999999 18.9999999999934 -6.68345592202968e-12
endloop
endfacet
facet normal -1.32784725561248e-30 -1.2490009027033e-16 -1.0
outer loop
vertex 20.0 11.649999999993 -6.66396431370231e-12
vertex 18.9999999999999 18.9999999999934 -6.68345592202968e-12
vertex 19.2944641718032 18.6642279647916 -6.65133086386049e-12
endloop
endfacet
facet normal -1.32784725561248e-30 -1.2490009027033e-16 -1.0
outer loop
vertex 20.0 11.649999999993 -6.66396431370231e-12
vertex 19.2944641718032 18.6642279647916 -6.65133086386049e-12
vertex 19.5425821165873 18.2928932188069 -6.64663843963353e-12
endloop
endfacet
facet normal -1.32784725561248e-30 -1.2490009027033e-16 -1.0
outer loop
vertex 20.0 11.649999999993 -6.66396431370231e-12
vertex 19.5425821165873 18.2928932188069 -6.64663843963353e-12
vertex 19.7401084675258 17.8923494024967 -6.65927188947535e-12
endloop
endfacet
facet normal -1.32784725561248e-30 -1.2490009027033e-16 -1.0
outer loop
vertex 20.0 11.649999999993 -6.66396431370231e-12
vertex 19.7401084675258 17.8923494024967 -6.65927188947535e-12
vertex 19.8836634939895 17.4694499316098 -6.66757387079997e-12
endloop
endfacet
facet normal -1.32784725561248e-30 -1.2490009027033e-16 -1.0
outer loop
vertex 20.0 11.649999999993 -6.66396431370231e-12
vertex 19.8836634939895 17.4694499316098 -6.66757387079997e-12
vertex 19.9707909296745 17.0314307333429 -6.67804158638319e-12
endloop
endfacet
facet normal -1.32784725561248e-30 -1.2490009027033e-16 -1.0
outer loop
vertex 20.0 11.649999999993 -6.66396431370231e-12
vertex 19.9707909296745 17.0314307333429 -6.67804158638319e-12
vertex 20.0 16.5857864376203 -6.66071571231441e-12
endloop
endfacet
facet normal -1.32784725561248e-30 -1.2490009027033e-16 -1.0
outer loop
vertex 20.0 8.34999999999304 -6.66360335799254e-12
vertex 18.0000000000001 3.41421356236626 -6.66071571231441e-12
vertex 18.0 8.34999999999302 -6.66613004796091e-12
endloop
endfacet
facet normal -1.32784725561248e-30 -1.2490009027033e-16 -1.0
outer loop
vertex 18.0000000000001 3.41421356236626 -6.66071571231441e-12
vertex 20.0 8.34999999999304 -6.66360335799254e-12
vertex 18.2928932188139 0.457417883405481 -6.65818902234605e-12
endloop
endfacet
facet normal -1.32784725561248e-30 -1.2490009027033e-16 -1.0
outer loop
vertex 18.2928932188139 0.457417883405481 -6.65818902234605e-12
vertex 20.0 8.34999999999304 -6.66360335799254e-12
vertex 18.6642279647985 0.705535828189606 -6.65927188947535e-12
endloop
endfacet
facet normal -1.32784725561248e-30 -1.2490009027033e-16 -1.0
outer loop
vertex 18.6642279647985 0.705535828189606 -6.65927188947535e-12
vertex 20.0 8.34999999999304 -6.66360335799254e-12
vertex 19.0000000000004 0.999999999992848 -6.65891093376558e-12
endloop
endfacet
facet normal -1.32784725561248e-30 -1.2490009027033e-16 -1.0
outer loop
vertex 19.0000000000004 0.999999999992848 -6.65891093376558e-12
vertex 20.0 8.34999999999304 -6.66360335799254e-12
vertex 19.2944641718037 1.33577203519475 -6.66179857944371e-12
endloop
endfacet
facet normal -1.32784725561248e-30 -1.2490009027033e-16 -1.0
outer loop
vertex 19.2944641718037 1.33577203519475 -6.66179857944371e-12
vertex 20.0 8.34999999999304 -6.66360335799254e-12
vertex 19.5425821165878 1.70710678117939 -6.65241373098979e-12
endloop
endfacet
facet normal -1.32784725561248e-30 -1.2490009027033e-16 -1.0
outer loop
vertex 19.5425821165878 1.70710678117939 -6.65241373098979e-12
vertex 20.0 8.34999999999304 -6.66360335799254e-12
vertex 19.7401084675263 2.10765059748958 -6.65205277528003e-12
endloop
endfacet
facet normal -1.32784725561248e-30 -1.2490009027033e-16 -1.0
outer loop
vertex 19.7401084675263 2.10765059748958 -6.65205277528003e-12
vertex 20.0 8.34999999999304 -6.66360335799254e-12
vertex 19.8836634939899 2.53055006837648 -6.65060895244096e-12
endloop
endfacet
facet normal -1.32784725561248e-30 -1.2490009027033e-16 -1.0
outer loop
vertex 19.8836634939899 2.53055006837648 -6.65060895244096e-12
vertex 20.0 8.34999999999304 -6.66360335799254e-12
vertex 19.9707909296749 2.96856926664335 -6.65638424379722e-12
endloop
endfacet
facet normal -1.32784725561248e-30 -1.2490009027033e-16 -1.0
outer loop
vertex 19.9707909296749 2.96856926664335 -6.65638424379722e-12
vertex 20.0 8.34999999999304 -6.66360335799254e-12
vertex 20.0000000000004 3.41421356236597 -6.66468622512184e-12
endloop
endfacet
facet normal -1.32784725561248e-30 -1.2490009027033e-16 -1.0
outer loop
vertex 13.0857864376273 5.49999999999288 -6.66252049086324e-12
vertex 14.5000000000002 6.91421356236593 -6.65494042095816e-12
vertex 16.585786437627 1.99999999999316 -6.65854997805582e-12
endloop
endfacet
facet normal -1.32784725561248e-30 -1.2490009027033e-16 -1.0
outer loop
vertex 14.5000000000002 6.91421356236593 -6.65494042095816e-12
vertex 13.0857864376273 5.49999999999288 -6.66252049086324e-12
vertex 14.5000000000002 13.0857864376201 -6.66432526941207e-12
endloop
endfacet
facet normal -1.32784725561248e-30 -1.2490009027033e-16 -1.0
outer loop
vertex 16.585786437627 1.99999999999316 -6.65854997805582e-12
vertex 14.5000000000002 6.91421356236593 -6.65494042095816e-12
vertex 18.0000000000001 3.41421356236626 -6.66071571231441e-12
endloop
endfacet
facet normal -1.32784725561248e-30 -1.2490009027033e-16 -1.0
outer loop
vertex 16.585786437627 1.99999999999316 -6.65854997805582e-12
vertex 18.0000000000001 3.41421356236626 -6.66071571231441e-12
vertex 16.5857864376273 -7.17626198465382e-12 -6.65421850953862e-12
endloop
endfacet
facet normal -1.32784725561248e-30 -1.2490009027033e-16 -1.0
outer loop
vertex 16.5857864376273 -7.17626198465382e-12 -6.65421850953862e-12
vertex 18.0000000000001 3.41421356236626 -6.66071571231441e-12
vertex 17.0314307333499 0.0292090703183572 -6.66107666802418e-12
endloop
endfacet
facet normal -1.32784725561248e-30 -1.2490009027033e-16 -1.0
outer loop
vertex 17.0314307333499 0.0292090703183572 -6.66107666802418e-12
vertex 18.0000000000001 3.41421356236626 -6.66071571231441e-12
vertex 17.4694499316168 0.116336506003353 -6.66757387079997e-12
endloop
endfacet
facet normal -1.32784725561248e-30 -1.2490009027033e-16 -1.0
outer loop
vertex 17.4694499316168 0.116336506003353 -6.66757387079997e-12
vertex 18.0000000000001 3.41421356236626 -6.66071571231441e-12
vertex 17.8923494025037 0.259891532466993 -6.66649100367067e-12
endloop
endfacet
facet normal -1.32784725561248e-30 -1.2490009027033e-16 -1.0
outer loop
vertex 17.8923494025037 0.259891532466993 -6.66649100367067e-12
vertex 18.0000000000001 3.41421356236626 -6.66071571231441e-12
vertex 18.2928932188139 0.457417883405481 -6.65818902234605e-12
endloop
endfacet
facet normal -1.32784725561248e-30 -1.2490009027033e-16 -1.0
outer loop
vertex 16.585786437627 1.99999999999316 -6.65854997805582e-12
vertex 11.65 -6.98983964042554e-12 -6.65638424379722e-12
vertex 11.65 1.99999999999304 -6.65133086386049e-12
endloop
endfacet
facet normal -1.32784725561248e-30 -1.2490009027033e-16 -1.0
outer loop
vertex 11.65 -6.98983964042554e-12 -6.65638424379722e-12
vertex 16.585786437627 1.99999999999316 -6.65854997805582e-12
vertex 16.5857864376273 -7.17626198465382e-12 -6.65421850953862e-12
endloop
endfacet
facet normal -1.32784725561248e-30 -1.2490009027033e-16 -1.0
outer loop
vertex 3.4142135623732 1.999999999993 -6.65277468669956e-12
vertex 3.41421356237331 -7.35075023072795e-12 -6.65891093376558e-12
vertex 2.96856926665068 0.0292090703181616 -6.66973960505857e-12
endloop
endfacet
facet normal -1.32784725561248e-30 -1.2490009027033e-16 -1.0
outer loop
vertex 3.41421356237331 -7.35075023072795e-12 -6.65891093376558e-12
vertex 3.4142135623732 1.999999999993 -6.65277468669956e-12
vertex 8.35000000000003 1.999999999993 -6.65277468669956e-12
endloop
endfacet
facet normal -1.32784725561248e-30 -1.2490009027033e-16 -1.0
outer loop
vertex 3.41421356237331 -7.35075023072795e-12 -6.65891093376558e-12
vertex 8.35000000000003 1.999999999993 -6.65277468669956e-12
vertex 8.35000000000003 -6.99146394111949e-12 -6.65349659811909e-12
endloop
endfacet
facet normal -8.32553902711685e-15 1.0 -1.2490009027033e-16
outer loop
vertex 3.49421356237313 19.9999999999929 19.9999999999933
vertex 8.34999999999994 19.999999999993 -6.66613004796091e-12
vertex 3.49421356237313 19.9999999999929 -6.66613004796091e-12
endloop
endfacet
facet normal -8.32553902711685e-15 1.0 -1.2490009027033e-16
outer loop
vertex 8.34999999999994 19.999999999993 -6.66613004796091e-12
vertex 3.49421356237313 19.9999999999929 19.9999999999933
vertex 8.34999999999994 19.999999999993 19.9999999999933
endloop
endfacet
facet normal 0.707106781186555 -0.70710678118654 8.83177008009605e-17
outer loop
vertex 17.9999999999999 16.5857864376199 -6.64988704102143e-12
vertex 14.5000000000002 13.0857864376201 19.9999999999933
vertex 14.5000000000002 13.0857864376201 -6.66432526941207e-12
endloop
endfacet
facet normal 0.707106781186555 -0.70710678118654 8.83177008009605e-17
outer loop
vertex 14.5000000000002 13.0857864376201 19.9999999999933
vertex 17.9999999999999 16.5857864376199 -6.64988704102143e-12
vertex 17.9999999999999 16.5857864376199 19.9999999999933
endloop
endfacet
facet normal -0.555570233019648 -0.831469612302515 1.03850629633621e-16
outer loop
vertex 1.70710678118673 0.457417883405281 19.9999999999933
vertex 1.33577203520209 0.70553582818943 -6.66035475660465e-12
vertex 1.70710678118673 0.457417883405278 -6.66252049086324e-12
endloop
endfacet
facet normal -0.555570233019648 -0.831469612302515 1.03850629633621e-16
outer loop
vertex 1.33577203520209 0.70553582818943 -6.66035475660465e-12
vertex 1.70710678118673 0.457417883405281 19.9999999999933
vertex 1.33577203520209 0.705535828189432 19.9999999999933
endloop
endfacet
facet normal -0.896872741532696 0.442288690218985 -5.52418973338961e-17
outer loop
vertex 0.259891532474143 17.8923494024962 19.9999999999933
vertex 0.457417883412628 18.2928932188064 -6.6469993953433e-12
vertex 0.259891532474143 17.8923494024962 -6.65638424379722e-12
endloop
endfacet
facet normal -0.896872741532696 0.442288690218985 -5.52418973338961e-17
outer loop
vertex 0.457417883412628 18.2928932188064 -6.6469993953433e-12
vertex 0.259891532474143 17.8923494024962 19.9999999999933
vertex 0.457417883412628 18.2928932188064 19.9999999999934
endloop
endfacet
facet normal 0.065403129230099 0.997858923238606 -1.24632669589556e-16
outer loop
vertex 16.5857864376268 19.9999999999933 19.9999999999933
vertex 17.0314307333494 19.9707909296678 -6.66396431370231e-12
vertex 16.5857864376268 19.9999999999933 -6.66396431370231e-12
endloop
endfacet
facet normal 0.065403129230099 0.997858923238606 -1.24632669589556e-16
outer loop
vertex 17.0314307333494 19.9707909296678 -6.66396431370231e-12
vertex 16.5857864376268 19.9999999999933 19.9999999999933
vertex 17.0314307333494 19.9707909296678 19.9999999999933
endloop
endfacet
facet normal -0.659345815100035 -0.751839807479008 9.39048598229565e-17
outer loop
vertex 1.33577203520209 0.705535828189432 19.9999999999933
vertex 1.00000000000019 0.999999999992648 -6.65638424379722e-12
vertex 1.33577203520209 0.70553582818943 -6.66035475660465e-12
endloop
endfacet
facet normal -0.659345815100035 -0.751839807479008 9.39048598229565e-17
outer loop
vertex 1.00000000000019 0.999999999992648 -6.65638424379722e-12
vertex 1.33577203520209 0.705535828189432 19.9999999999933
vertex 1.00000000000019 0.99999999999265 19.9999999999933
endloop
endfacet
facet normal 1.0 -1.03048220451281e-44 -1.32784725561248e-30
outer loop
vertex 8.34999999999994 19.999999999993 -6.66613004796091e-12
vertex 8.34999999999994 17.999999999993 19.9999999999933
vertex 8.34999999999994 17.999999999993 -6.65060895244096e-12
endloop
endfacet
facet normal 1.0 -1.03048220451281e-44 -1.32784725561248e-30
outer loop
vertex 8.34999999999994 17.999999999993 19.9999999999933
vertex 8.34999999999994 19.999999999993 -6.66613004796091e-12
vertex 8.34999999999994 19.999999999993 19.9999999999933
endloop
endfacet
facet normal 2.88764567812897e-15 -1.0 1.2490009027033e-16
outer loop
vertex 20.0 11.649999999993 19.9999999999933
vertex 17.9999999999999 11.649999999993 -6.65927188947535e-12
vertex 20.0 11.649999999993 -6.66396431370231e-12
endloop
endfacet
facet normal 2.88764567812897e-15 -1.0 1.2490009027033e-16
outer loop
vertex 17.9999999999999 11.649999999993 -6.65927188947535e-12
vertex 20.0 11.649999999993 19.9999999999933
vertex 17.9999999999999 11.649999999993 19.9999999999933
endloop
endfacet
facet normal 0.896872741532668 0.442288690219042 -5.52418973339056e-17
outer loop
vertex 19.5425821165873 18.2928932188069 -6.64663843963353e-12
vertex 19.7401084675258 17.8923494024967 19.9999999999933
vertex 19.7401084675258 17.8923494024967 -6.65927188947535e-12
endloop
endfacet
facet normal 0.896872741532668 0.442288690219042 -5.52418973339056e-17
outer loop
vertex 19.7401084675258 17.8923494024967 19.9999999999933
vertex 19.5425821165873 18.2928932188069 -6.64663843963353e-12
vertex 19.5425821165873 18.2928932188069 19.9999999999934
endloop
endfacet
facet normal -0.751839807478972 -0.659345815100075 8.23523518253648e-17
outer loop
vertex 1.00000000000019 0.99999999999265 19.9999999999933
vertex 0.705535828196937 1.33577203519455 -6.66179857944371e-12
vertex 1.00000000000019 0.999999999992648 -6.65638424379722e-12
endloop
endfacet
facet normal -0.751839807478972 -0.659345815100075 8.23523518253648e-17
outer loop
vertex 0.705535828196937 1.33577203519455 -6.66179857944371e-12
vertex 1.00000000000019 0.99999999999265 19.9999999999933
vertex 0.705535828196937 1.33577203519456 19.9999999999933
endloop
endfacet
facet normal 0.442288690218962 0.896872741532708 -1.12019486378434e-16
outer loop
vertex 17.8923494025032 19.7401084675192 -6.67190533931716e-12
vertex 18.2928932188134 19.5425821165807 19.9999999999933
vertex 18.2928932188134 19.5425821165807 -6.67768063067342e-12
endloop
endfacet
facet normal 0.442288690218962 0.896872741532708 -1.12019486378434e-16
outer loop
vertex 18.2928932188134 19.5425821165807 19.9999999999933
vertex 17.8923494025032 19.7401084675192 -6.67190533931716e-12
vertex 17.8923494025032 19.7401084675192 19.9999999999933
endloop
endfacet
facet normal -0.831469612302557 -0.555570233019584 6.93907722556555e-17
outer loop
vertex 0.705535828196937 1.33577203519456 19.9999999999933
vertex 0.457417883412813 1.70710678117921 -6.65385755382886e-12
vertex 0.705535828196937 1.33577203519455 -6.66179857944371e-12
endloop
endfacet
facet normal -0.831469612302557 -0.555570233019584 6.93907722556555e-17
outer loop
vertex 0.457417883412813 1.70710678117921 -6.65385755382886e-12
vertex 0.705535828196937 1.33577203519456 19.9999999999933
vertex 0.457417883412813 1.70710678117921 19.9999999999933
endloop
endfacet
facet normal -0.831469612302521 0.555570233019638 -6.93907722556601e-17
outer loop
vertex 0.457417883412628 18.2928932188064 19.9999999999934
vertex 0.705535828196775 18.6642279647911 -6.6491651296019e-12
vertex 0.457417883412628 18.2928932188064 -6.6469993953433e-12
endloop
endfacet
facet normal -0.831469612302521 0.555570233019638 -6.93907722556601e-17
outer loop
vertex 0.705535828196775 18.6642279647911 -6.6491651296019e-12
vertex 0.457417883412628 18.2928932188064 19.9999999999934
vertex 0.705535828196775 18.6642279647911 19.9999999999933
endloop
endfacet
facet normal 0.195090322016104 0.980785280403235 -1.22500170058175e-16
outer loop
vertex 17.0314307333494 19.9707909296678 -6.66396431370231e-12
vertex 17.4694499316163 19.8836634939828 19.9999999999933
vertex 17.4694499316163 19.8836634939828 -6.66504718083161e-12
endloop
endfacet
facet normal 0.195090322016104 0.980785280403235 -1.22500170058175e-16
outer loop
vertex 17.4694499316163 19.8836634939828 19.9999999999933
vertex 17.0314307333494 19.9707909296678 -6.66396431370231e-12
vertex 17.0314307333494 19.9707909296678 19.9999999999933
endloop
endfacet
facet normal -0.896872741532682 -0.442288690219014 5.52418973339021e-17
outer loop
vertex 0.457417883412813 1.70710678117921 19.9999999999933
vertex 0.259891532474328 2.10765059748937 -6.65169181957026e-12
vertex 0.457417883412813 1.70710678117921 -6.65385755382886e-12
endloop
endfacet
facet normal -0.896872741532682 -0.442288690219014 5.52418973339021e-17
outer loop
vertex 0.259891532474328 2.10765059748937 -6.65169181957026e-12
vertex 0.457417883412813 1.70710678117921 19.9999999999933
vertex 0.259891532474328 2.10765059748937 19.9999999999933
endloop
endfacet
facet normal -0.946930129495101 -0.321439465303174 4.01478182328144e-17
outer loop
vertex 0.259891532474328 2.10765059748937 19.9999999999933
vertex 0.116336506010687 2.53055006837629 -6.65746711092652e-12
vertex 0.259891532474328 2.10765059748937 -6.65169181957026e-12
endloop
endfacet
facet normal -0.946930129495101 -0.321439465303174 4.01478182328144e-17
outer loop
vertex 0.116336506010687 2.53055006837629 -6.65746711092652e-12
vertex 0.259891532474328 2.10765059748937 19.9999999999933
vertex 0.116336506010687 2.53055006837629 19.9999999999933
endloop
endfacet
facet normal -0.555570233019618 0.831469612302535 -1.03850629633622e-16
outer loop
vertex 1.33577203520191 19.2944641717962 19.9999999999933
vertex 1.70710678118656 19.5425821165803 -6.67587585212459e-12
vertex 1.33577203520191 19.2944641717962 -6.68634356770781e-12
endloop
endfacet
facet normal -0.555570233019618 0.831469612302535 -1.03850629633622e-16
outer loop
vertex 1.70710678118656 19.5425821165803 -6.67587585212459e-12
vertex 1.33577203520191 19.2944641717962 19.9999999999933
vertex 1.70710678118656 19.5425821165803 19.9999999999933
endloop
endfacet
facet normal -0.980785280403235 -0.195090322016105 2.43667988306806e-17
outer loop
vertex 0.116336506010687 2.53055006837629 19.9999999999933
vertex 0.0292090703256988 2.96856926664314 -6.65891093376558e-12
vertex 0.116336506010687 2.53055006837629 -6.65746711092652e-12
endloop
endfacet
facet normal -0.980785280403235 -0.195090322016105 2.43667988306806e-17
outer loop
vertex 0.0292090703256988 2.96856926664314 -6.65891093376558e-12
vertex 0.116336506010687 2.53055006837629 19.9999999999933
vertex 0.0292090703256988 2.96856926664315 19.9999999999933
endloop
endfacet
facet normal -0.997858923238601 -0.065403129230184 8.16885674481338e-18
outer loop
vertex 0.0292090703256988 2.96856926664315 19.9999999999933
vertex 1.61708157975227e-13 3.41421356236577 -6.66252049086324e-12
vertex 0.0292090703256988 2.96856926664314 -6.65891093376558e-12
endloop
endfacet
facet normal -0.997858923238601 -0.065403129230184 8.16885674481338e-18
outer loop
vertex 1.61708157975227e-13 3.41421356236577 -6.66252049086324e-12
vertex 0.0292090703256988 2.96856926664315 19.9999999999933
vertex 1.61708157975227e-13 3.41421356236577 19.9999999999933
endloop
endfacet
facet normal -1.0 -3.27623895439377e-14 5.41987266712201e-30
outer loop
vertex 1.61708157975227e-13 3.41421356236577 19.9999999999933
vertex 0.0 8.34999999999296 -6.66396431370231e-12
vertex 1.61708157975227e-13 3.41421356236577 -6.66252049086324e-12
endloop
endfacet
facet normal -1.0 -3.27623895439377e-14 5.41987266712201e-30
outer loop
vertex 0.0 8.34999999999296 -6.66396431370231e-12
vertex 1.61708157975227e-13 3.41421356236577 19.9999999999933
vertex 2.65569451122495e-29 8.34999999999297 19.9999999999933
endloop
endfacet
facet normal 0.94693012949509 0.321439465303208 -4.01478182328185e-17
outer loop
vertex 19.7401084675258 17.8923494024967 -6.65927188947535e-12
vertex 19.8836634939895 17.4694499316098 19.9999999999933
vertex 19.8836634939895 17.4694499316098 -6.66757387079997e-12
endloop
endfacet
facet normal 0.94693012949509 0.321439465303208 -4.01478182328185e-17
outer loop
vertex 19.8836634939895 17.4694499316098 19.9999999999933
vertex 19.7401084675258 17.8923494024967 -6.65927188947535e-12
vertex 19.7401084675258 17.8923494024967 19.9999999999933
endloop
endfacet
facet normal -0.707106781186555 -0.70710678118654 8.83177008009623e-17
outer loop
vertex 5.50000000000023 13.0857864376195 19.9999999999933
vertex 2.00000000000001 16.5857864376198 -6.65133086386049e-12
vertex 5.50000000000023 13.0857864376195 -6.66179857944371e-12
endloop
endfacet
facet normal -0.707106781186555 -0.70710678118654 8.83177008009623e-17
outer loop
vertex 2.00000000000001 16.5857864376198 -6.65133086386049e-12
vertex 5.50000000000023 13.0857864376195 19.9999999999933
vertex 2.00000000000001 16.5857864376198 19.9999999999933
endloop
endfacet
facet normal 1.08286712929839e-14 -1.0 1.2490009027033e-16
outer loop
vertex 2.00000000000001 11.649999999993 19.9999999999933
vertex 0.0 11.649999999993 -6.65963284518511e-12
vertex 2.00000000000001 11.649999999993 -6.66071571231441e-12
endloop
endfacet
facet normal 1.08286712929839e-14 -1.0 1.2490009027033e-16
outer loop
vertex 0.0 11.649999999993 -6.65963284518511e-12
vertex 2.00000000000001 11.649999999993 19.9999999999933
vertex 2.65569451122495e-29 11.649999999993 19.9999999999933
endloop
endfacet
facet normal -7.21911419532259e-15 1.0 -1.2490009027033e-16
outer loop
vertex 0.0 8.34999999999296 -6.66396431370231e-12
vertex 2.00000000000001 8.34999999999298 19.9999999999933
vertex 2.00000000000001 8.34999999999298 -6.66504718083161e-12
endloop
endfacet
facet normal -7.21911419532259e-15 1.0 -1.2490009027033e-16
outer loop
vertex 2.00000000000001 8.34999999999298 19.9999999999933
vertex 0.0 8.34999999999296 -6.66396431370231e-12
vertex 2.65569451122495e-29 8.34999999999297 19.9999999999933
endloop
endfacet
facet normal 9.94572539726758e-15 -1.0 1.2490009027033e-16
outer loop
vertex 8.34999999999994 17.999999999993 -6.65060895244096e-12
vertex 3.41421356237313 17.9999999999929 19.9999999999933
vertex 3.41421356237313 17.9999999999929 -6.65133086386049e-12
endloop
endfacet
facet normal 9.94572539726758e-15 -1.0 1.2490009027033e-16
outer loop
vertex 3.41421356237313 17.9999999999929 19.9999999999933
vertex 8.34999999999994 17.999999999993 -6.65060895244096e-12
vertex 8.34999999999994 17.999999999993 19.9999999999933
endloop
endfacet
facet normal 1.0 1.87213654536799e-14 -3.66614749076094e-30
outer loop
vertex 2.00000000000001 8.34999999999298 -6.66504718083161e-12
vertex 2.0000000000001 3.41421356236611 19.9999999999933
vertex 2.0000000000001 3.41421356236611 -6.65818902234605e-12
endloop
endfacet
facet normal 1.0 1.87213654536799e-14 -3.66614749076094e-30
outer loop
vertex 2.0000000000001 3.41421356236611 19.9999999999933
vertex 2.00000000000001 8.34999999999298 -6.66504718083161e-12
vertex 2.00000000000001 8.34999999999298 19.9999999999933
endloop
endfacet
facet normal -1.0 -2.52475373911588e-45 1.32784725561248e-30
outer loop
vertex 2.65569451122495e-29 11.649999999993 19.9999999999933
vertex 0.0 16.5857864376198 -6.65024799673119e-12
vertex 0.0 11.649999999993 -6.65963284518511e-12
endloop
endfacet
facet normal -1.0 -2.52475373911588e-45 1.32784725561248e-30
outer loop
vertex 0.0 16.5857864376198 -6.65024799673119e-12
vertex 2.65569451122495e-29 11.649999999993 19.9999999999933
vertex 2.65569451122495e-29 16.5857864376198 19.9999999999933
endloop
endfacet
facet normal 0.321439465303143 0.946930129495112 -1.18271658653635e-16
outer loop
vertex 17.4694499316163 19.8836634939828 -6.66504718083161e-12
vertex 17.8923494025032 19.7401084675192 19.9999999999933
vertex 17.8923494025032 19.7401084675192 -6.67190533931716e-12
endloop
endfacet
facet normal 0.321439465303143 0.946930129495112 -1.18271658653635e-16
outer loop
vertex 17.8923494025032 19.7401084675192 19.9999999999933
vertex 17.4694499316163 19.8836634939828 -6.66504718083161e-12
vertex 17.4694499316163 19.8836634939828 19.9999999999933
endloop
endfacet
facet normal 0.707106781186522 0.707106781186573 -8.83177008009665e-17
outer loop
vertex 3.41421356237313 17.9999999999929 -6.65133086386049e-12
vertex 6.91421356237342 14.4999999999929 19.9999999999933
vertex 6.91421356237342 14.4999999999929 -6.65963284518511e-12
endloop
endfacet
facet normal 0.707106781186522 0.707106781186573 -8.83177008009665e-17
outer loop
vertex 6.91421356237342 14.4999999999929 19.9999999999933
vertex 3.41421356237313 17.9999999999929 -6.65133086386049e-12
vertex 3.41421356237313 17.9999999999929 19.9999999999933
endloop
endfacet
facet normal -0.751839807478945 0.659345815100105 -8.23523518253665e-17
outer loop
vertex 0.705535828196775 18.6642279647911 19.9999999999933
vertex 1.0 18.9999999999929 -6.68201209919061e-12
vertex 0.705535828196775 18.6642279647911 -6.6491651296019e-12
endloop
endfacet
facet normal -0.751839807478945 0.659345815100105 -8.23523518253665e-17
outer loop
vertex 1.0 18.9999999999929 -6.68201209919061e-12
vertex 0.705535828196775 18.6642279647911 19.9999999999933
vertex 1.0 18.9999999999929 19.9999999999933
endloop
endfacet
facet normal -0.659345815100073 0.751839807478974 -9.39048598229505e-17
outer loop
vertex 1.0 18.9999999999929 -6.68201209919061e-12
vertex 1.33577203520191 19.2944641717962 19.9999999999933
vertex 1.33577203520191 19.2944641717962 -6.68634356770781e-12
endloop
endfacet
facet normal -0.659345815100073 0.751839807478974 -9.39048598229505e-17
outer loop
vertex 1.33577203520191 19.2944641717962 19.9999999999933
vertex 1.0 18.9999999999929 -6.68201209919061e-12
vertex 1.0 18.9999999999929 19.9999999999933
endloop
endfacet
facet normal 1.0 2.52475373911589e-45 -1.32784725561248e-30
outer loop
vertex 2.00000000000001 16.5857864376198 -6.65133086386049e-12
vertex 2.00000000000001 11.649999999993 19.9999999999933
vertex 2.00000000000001 11.649999999993 -6.66071571231441e-12
endloop
endfacet
facet normal 1.0 2.52475373911589e-45 -1.32784725561248e-30
outer loop
vertex 2.00000000000001 11.649999999993 19.9999999999933
vertex 2.00000000000001 16.5857864376198 -6.65133086386049e-12
vertex 2.00000000000001 16.5857864376198 19.9999999999933
endloop
endfacet
facet normal -1.0 3.88307857898378e-46 1.32784725561248e-30
outer loop
vertex 5.50000000000023 6.91421356236699 19.9999999999933
vertex 5.50000000000023 13.0857864376195 -6.66179857944371e-12
vertex 5.50000000000023 6.91421356236698 -6.65999380089488e-12
endloop
endfacet
facet normal -1.0 3.88307857898378e-46 1.32784725561248e-30
outer loop
vertex 5.50000000000023 13.0857864376195 -6.66179857944371e-12
vertex 5.50000000000023 6.91421356236699 19.9999999999933
vertex 5.50000000000023 13.0857864376195 19.9999999999933
endloop
endfacet
endsolid 20mm Profiles - Printing
