solid OpenSCAD_Model
  facet normal -1 0 0
    outer loop
      vertex -3 -6 -3.5
      vertex -3 -7.5 2.5
      vertex -3 7.5 2.5
    endloop
  endfacet
  facet normal -1 0 0
    outer loop
      vertex -3 6 -6.5
      vertex -3 7.5 2.5
      vertex -3 7.5 -7.5
    endloop
  endfacet
  facet normal -1 0 0
    outer loop
      vertex -3 6 -3.5
      vertex -3 7.5 2.5
      vertex -3 6 -6.5
    endloop
  endfacet
  facet normal -1 0 0
    outer loop
      vertex -3 5 -7.5
      vertex -3 6 -6.5
      vertex -3 7.5 -7.5
    endloop
  endfacet
  facet normal -1 0 0
    outer loop
      vertex -3 -6 -3.5
      vertex -3 7.5 2.5
      vertex -3 6 -3.5
    endloop
  endfacet
  facet normal -1 0 0
    outer loop
      vertex -3 -7.5 -7.5
      vertex -3 -7.5 2.5
      vertex -3 -6 -3.5
    endloop
  endfacet
  facet normal -1 0 0
    outer loop
      vertex -3 -5 -6.5
      vertex -3 -5 -7.5
      vertex -3 -6 -6.5
    endloop
  endfacet
  facet normal -1 0 0
    outer loop
      vertex -3 -7.5 -7.5
      vertex -3 -6 -3.5
      vertex -3 -6 -6.5
    endloop
  endfacet
  facet normal -1 0 0
    outer loop
      vertex -3 -7.5 -7.5
      vertex -3 -6 -6.5
      vertex -3 -5 -7.5
    endloop
  endfacet
  facet normal -1 0 0
    outer loop
      vertex -3 6 -6.5
      vertex -3 5 -7.5
      vertex -3 5 -6.5
    endloop
  endfacet
  facet normal 0 -1 0
    outer loop
      vertex 2.6939 -7.5 -2.6
      vertex -3 -7.5 -7.5
      vertex 24 -7.5 -7.5
    endloop
  endfacet
  facet normal 0 -1 0
    outer loop
      vertex 2.6939 -7.5 -2.6
      vertex 2.6939 -7.5 2.5
      vertex -3 -7.5 2.5
    endloop
  endfacet
  facet normal 0 -1 0
    outer loop
      vertex -3 -7.5 2.5
      vertex -3 -7.5 -7.5
      vertex 2.6939 -7.5 -2.6
    endloop
  endfacet
  facet normal 0 -1 0
    outer loop
      vertex 24 -7.5 -2.6
      vertex 2.6939 -7.5 -2.6
      vertex 24 -7.5 -7.5
    endloop
  endfacet
  facet normal 0 0 -1
    outer loop
      vertex -3 -7.5 -7.5
      vertex -3 -5 -7.5
      vertex 24 -7.5 -7.5
    endloop
  endfacet
  facet normal 0 0 -1
    outer loop
      vertex 24 -7.5 -7.5
      vertex -3 -5 -7.5
      vertex 24 -5 -7.5
    endloop
  endfacet
  facet normal 0 1 0
    outer loop
      vertex 24 -5 -6.5
      vertex 24 -5 -7.5
      vertex -3 -5 -6.5
    endloop
  endfacet
  facet normal 0 1 0
    outer loop
      vertex -3 -5 -6.5
      vertex 24 -5 -7.5
      vertex -3 -5 -7.5
    endloop
  endfacet
  facet normal 0 0 1
    outer loop
      vertex 24 -6 -6.5
      vertex 24 -5 -6.5
      vertex -3 -5 -6.5
    endloop
  endfacet
  facet normal 0 0 1
    outer loop
      vertex -3 -6 -6.5
      vertex 24 -6 -6.5
      vertex -3 -5 -6.5
    endloop
  endfacet
  facet normal 0 1 0
    outer loop
      vertex 24 -6 -3.5
      vertex 24 -6 -6.5
      vertex -3 -6 -3.5
    endloop
  endfacet
  facet normal 0 1 0
    outer loop
      vertex -3 -6 -3.5
      vertex 24 -6 -6.5
      vertex -3 -6 -6.5
    endloop
  endfacet
  facet normal 0 0 -1
    outer loop
      vertex 24 6 -3.5
      vertex 24 -6 -3.5
      vertex -3 6 -3.5
    endloop
  endfacet
  facet normal 0 0 -1
    outer loop
      vertex -3 6 -3.5
      vertex 24 -6 -3.5
      vertex -3 -6 -3.5
    endloop
  endfacet
  facet normal 0 -1 0
    outer loop
      vertex 24 6 -6.5
      vertex 24 6 -3.5
      vertex -3 6 -3.5
    endloop
  endfacet
  facet normal 0 -1 0
    outer loop
      vertex -3 6 -6.5
      vertex 24 6 -6.5
      vertex -3 6 -3.5
    endloop
  endfacet
  facet normal 0 0 1
    outer loop
      vertex 24 5 -6.5
      vertex 24 6 -6.5
      vertex -3 6 -6.5
    endloop
  endfacet
  facet normal 0 0 1
    outer loop
      vertex -3 5 -6.5
      vertex 24 5 -6.5
      vertex -3 6 -6.5
    endloop
  endfacet
  facet normal 0 -1 0
    outer loop
      vertex 24 5 -7.5
      vertex 24 5 -6.5
      vertex -3 5 -6.5
    endloop
  endfacet
  facet normal 0 -1 0
    outer loop
      vertex -3 5 -7.5
      vertex 24 5 -7.5
      vertex -3 5 -6.5
    endloop
  endfacet
  facet normal 0 0 -1
    outer loop
      vertex -3 5 -7.5
      vertex -3 7.5 -7.5
      vertex 24 5 -7.5
    endloop
  endfacet
  facet normal 0 0 -1
    outer loop
      vertex 24 5 -7.5
      vertex -3 7.5 -7.5
      vertex 24 7.5 -7.5
    endloop
  endfacet
  facet normal 0 1 0
    outer loop
      vertex 24 7.5 -2.6
      vertex 24 7.5 -7.5
      vertex 2.6939 7.5 -2.6
    endloop
  endfacet
  facet normal 0 1 0
    outer loop
      vertex -3 7.5 -7.5
      vertex -3 7.5 2.5
      vertex 2.6939 7.5 -2.6
    endloop
  endfacet
  facet normal 0 1 0
    outer loop
      vertex -3 7.5 -7.5
      vertex 2.6939 7.5 -2.6
      vertex 24 7.5 -7.5
    endloop
  endfacet
  facet normal 0 1 0
    outer loop
      vertex 2.6939 7.5 -2.6
      vertex -3 7.5 2.5
      vertex 2.6939 7.5 2.5
    endloop
  endfacet
  facet normal 0 0 1
    outer loop
      vertex 2.2918 -7.05342 2.5
      vertex -3 -7.5 2.5
      vertex 2.6939 -7.5 2.5
    endloop
  endfacet
  facet normal 0 0 1
    outer loop
      vertex 1.03746 -4.88084 2.5
      vertex -3 -7.5 2.5
      vertex 2.2918 -7.05342 2.5
    endloop
  endfacet
  facet normal 0 0 1
    outer loop
      vertex -2 -2 2.5
      vertex -3 -7.5 2.5
      vertex 1.03746 -4.88084 2.5
    endloop
  endfacet
  facet normal 0 0 1
    outer loop
      vertex -2 2 2.5
      vertex 0.210209 2 2.5
      vertex -3 7.5 2.5
    endloop
  endfacet
  facet normal 0 0 1
    outer loop
      vertex -3 7.5 2.5
      vertex -3 -7.5 2.5
      vertex -2 -2 2.5
    endloop
  endfacet
  facet normal 0 0 1
    outer loop
      vertex -3 7.5 2.5
      vertex -2 -2 2.5
      vertex -2 2 2.5
    endloop
  endfacet
  facet normal 0 0 1
    outer loop
      vertex 0.262229 2.49494 2.5
      vertex -3 7.5 2.5
      vertex 0.210209 2 2.5
    endloop
  endfacet
  facet normal 0 0 1
    outer loop
      vertex 1.03746 4.88084 2.5
      vertex -3 7.5 2.5
      vertex 0.262229 2.49494 2.5
    endloop
  endfacet
  facet normal 0 0 1
    outer loop
      vertex 2.2918 7.05342 2.5
      vertex -3 7.5 2.5
      vertex 1.03746 4.88084 2.5
    endloop
  endfacet
  facet normal 0 0 1
    outer loop
      vertex 2.6939 7.5 2.5
      vertex -3 7.5 2.5
      vertex 2.2918 7.05342 2.5
    endloop
  endfacet
  facet normal 0 0 1
    outer loop
      vertex 0.262229 -2.49494 2.5
      vertex -2 -2 2.5
      vertex 1.03746 -4.88084 2.5
    endloop
  endfacet
  facet normal 0 0 1
    outer loop
      vertex 0.210209 -2 2.5
      vertex -2 -2 2.5
      vertex 0.262229 -2.49494 2.5
    endloop
  endfacet
  facet normal -0.743145 -0.669131 0
    outer loop
      vertex 2.2918 -7.05342 2.5
      vertex 2.6939 -7.5 2.5
      vertex 2.2918 -7.05342 2.6
    endloop
  endfacet
  facet normal -0.743145 -0.669131 0
    outer loop
      vertex 3.97043 -8.91774 -2.6
      vertex 2.6939 -7.5 2.5
      vertex 2.6939 -7.5 -2.6
    endloop
  endfacet
  facet normal -0.743145 -0.669131 0
    outer loop
      vertex 3.97043 -8.91774 2.6
      vertex 2.6939 -7.5 2.5
      vertex 3.97043 -8.91774 -2.6
    endloop
  endfacet
  facet normal -0.743145 -0.669131 0
    outer loop
      vertex 2.2918 -7.05342 2.6
      vertex 2.6939 -7.5 2.5
      vertex 3.97043 -8.91774 2.6
    endloop
  endfacet
  facet normal 0 0 -1
    outer loop
      vertex 2.6939 -7.5 -2.6
      vertex 24 -7.5 -2.6
      vertex 3.97043 -8.91774 -2.6
    endloop
  endfacet
  facet normal 0 0 -1
    outer loop
      vertex 3.97043 -8.91774 -2.6
      vertex 24 -7.5 -2.6
      vertex 24 -12 -2.6
    endloop
  endfacet
  facet normal 0 0 -1
    outer loop
      vertex 12 -11.9343 -2.6
      vertex 24 -12 -2.6
      vertex 12 -12 -2.6
    endloop
  endfacet
  facet normal 0 0 -1
    outer loop
      vertex 3.97043 -8.91774 -2.6
      vertex 24 -12 -2.6
      vertex 12 -11.9343 -2.6
    endloop
  endfacet
  facet normal 0 0 -1
    outer loop
      vertex 3.97043 -8.91774 -2.6
      vertex 10.7457 -11.9343 -2.6
      vertex 8.2918 -11.4127 -2.6
    endloop
  endfacet
  facet normal 0 0 -1
    outer loop
      vertex 3.97043 -8.91774 -2.6
      vertex 8.2918 -11.4127 -2.6
      vertex 6 -10.3923 -2.6
    endloop
  endfacet
  facet normal 0 0 -1
    outer loop
      vertex 10.7457 -11.9343 -2.6
      vertex 3.97043 -8.91774 -2.6
      vertex 12 -11.9343 -2.6
    endloop
  endfacet
  facet normal 1 0 0
    outer loop
      vertex 24 -10 -1.6
      vertex 24 -12 -2.6
      vertex 24 -7.5 -2.6
    endloop
  endfacet
  facet normal 1 0 0
    outer loop
      vertex 24 -6 -6.5
      vertex 24 -6 -3.5
      vertex 24 -7.5 -2.6
    endloop
  endfacet
  facet normal 1 0 0
    outer loop
      vertex 24 6 -6.5
      vertex 24 7.5 -7.5
      vertex 24 6 -3.5
    endloop
  endfacet
  facet normal 1 0 0
    outer loop
      vertex 24 -7.5 -7.5
      vertex 24 -6 -6.5
      vertex 24 -7.5 -2.6
    endloop
  endfacet
  facet normal 1 0 0
    outer loop
      vertex 24 -7.5 -7.5
      vertex 24 -5 -7.5
      vertex 24 -6 -6.5
    endloop
  endfacet
  facet normal 1 0 0
    outer loop
      vertex 24 9 1.6
      vertex 24 10 1.6
      vertex 24 9 2.6
    endloop
  endfacet
  facet normal 1 0 0
    outer loop
      vertex 24 -9 1.6
      vertex 24 -9 2.6
      vertex 24 -12 2.6
    endloop
  endfacet
  facet normal 1 0 0
    outer loop
      vertex 24 10 -1.6
      vertex 24 7.5 -2.6
      vertex 24 12 -2.6
    endloop
  endfacet
  facet normal 1 0 0
    outer loop
      vertex 24 -10 1.6
      vertex 24 -9 1.6
      vertex 24 -12 2.6
    endloop
  endfacet
  facet normal 1 0 0
    outer loop
      vertex 24 5 -7.5
      vertex 24 7.5 -7.5
      vertex 24 6 -6.5
    endloop
  endfacet
  facet normal 1 0 0
    outer loop
      vertex 24 7.5 -7.5
      vertex 24 7.5 -2.6
      vertex 24 6 -3.5
    endloop
  endfacet
  facet normal 1 0 0
    outer loop
      vertex 24 10 1.6
      vertex 24 12 2.6
      vertex 24 9 2.6
    endloop
  endfacet
  facet normal 1 0 0
    outer loop
      vertex 24 -10 1.6
      vertex 24 10 1.6
      vertex 24 9 1.6
    endloop
  endfacet
  facet normal 1 0 0
    outer loop
      vertex 24 -10 -1.6
      vertex 24 -10 1.6
      vertex 24 -12 2.6
    endloop
  endfacet
  facet normal 1 0 0
    outer loop
      vertex 24 10 1.6
      vertex 24 10 -1.6
      vertex 24 12 -2.6
    endloop
  endfacet
  facet normal 1 0 0
    outer loop
      vertex 24 -12 2.6
      vertex 24 -12 -2.6
      vertex 24 -10 -1.6
    endloop
  endfacet
  facet normal 1 0 0
    outer loop
      vertex 24 -10 1.6
      vertex 24 9 1.6
      vertex 24 -9 1.6
    endloop
  endfacet
  facet normal 1 0 0
    outer loop
      vertex 24 12 -2.6
      vertex 24 12 2.6
      vertex 24 10 1.6
    endloop
  endfacet
  facet normal 1 0 0
    outer loop
      vertex 24 5 -6.5
      vertex 24 5 -7.5
      vertex 24 6 -6.5
    endloop
  endfacet
  facet normal 1 0 0
    outer loop
      vertex 24 -5 -6.5
      vertex 24 -6 -6.5
      vertex 24 -5 -7.5
    endloop
  endfacet
  facet normal 1 0 0
    outer loop
      vertex 24 7.5 -2.6
      vertex 24 -6 -3.5
      vertex 24 6 -3.5
    endloop
  endfacet
  facet normal 1 0 0
    outer loop
      vertex 24 10 -1.6
      vertex 24 -6 -3.5
      vertex 24 7.5 -2.6
    endloop
  endfacet
  facet normal 1 0 0
    outer loop
      vertex 24 10 -1.6
      vertex 24 -7.5 -2.6
      vertex 24 -6 -3.5
    endloop
  endfacet
  facet normal 1 0 0
    outer loop
      vertex 24 10 -1.6
      vertex 24 -10 -1.6
      vertex 24 -7.5 -2.6
    endloop
  endfacet
  facet normal 0 0 -1
    outer loop
      vertex 2.6939 7.5 -2.6
      vertex 3.97043 8.91774 -2.6
      vertex 24 7.5 -2.6
    endloop
  endfacet
  facet normal 0 0 -1
    outer loop
      vertex 24 7.5 -2.6
      vertex 3.97043 8.91774 -2.6
      vertex 6 10.3923 -2.6
    endloop
  endfacet
  facet normal 0 0 -1
    outer loop
      vertex 24 7.5 -2.6
      vertex 6 10.3923 -2.6
      vertex 8.2918 11.4127 -2.6
    endloop
  endfacet
  facet normal 0 0 -1
    outer loop
      vertex 24 7.5 -2.6
      vertex 8.2918 11.4127 -2.6
      vertex 10.7457 11.9343 -2.6
    endloop
  endfacet
  facet normal 0 0 -1
    outer loop
      vertex 24 7.5 -2.6
      vertex 10.7457 11.9343 -2.6
      vertex 12 11.9343 -2.6
    endloop
  endfacet
  facet normal 0 0 -1
    outer loop
      vertex 24 7.5 -2.6
      vertex 12 11.9343 -2.6
      vertex 12 12 -2.6
    endloop
  endfacet
  facet normal 0 0 -1
    outer loop
      vertex 24 7.5 -2.6
      vertex 12 12 -2.6
      vertex 24 12 -2.6
    endloop
  endfacet
  facet normal -0.743145 0.669131 0
    outer loop
      vertex 2.2918 7.05342 2.5
      vertex 2.2918 7.05342 2.6
      vertex 2.6939 7.5 2.5
    endloop
  endfacet
  facet normal -0.743145 0.669131 0
    outer loop
      vertex 2.6939 7.5 2.5
      vertex 2.2918 7.05342 2.6
      vertex 3.97043 8.91774 2.6
    endloop
  endfacet
  facet normal -0.743145 0.669131 0
    outer loop
      vertex 2.6939 7.5 2.5
      vertex 3.97043 8.91774 2.6
      vertex 3.97043 8.91774 -2.6
    endloop
  endfacet
  facet normal -0.743145 0.669131 0
    outer loop
      vertex 2.6939 7.5 2.5
      vertex 3.97043 8.91774 -2.6
      vertex 2.6939 7.5 -2.6
    endloop
  endfacet
  facet normal -0.866025 0.5 0
    outer loop
      vertex 1.03746 4.88084 2.5
      vertex 1.03746 4.88084 2.6
      vertex 2.2918 7.05342 2.5
    endloop
  endfacet
  facet normal -0.866025 0.5 0
    outer loop
      vertex 2.2918 7.05342 2.5
      vertex 1.03746 4.88084 2.6
      vertex 2.2918 7.05342 2.6
    endloop
  endfacet
  facet normal -0.951057 0.309017 0
    outer loop
      vertex 0.262229 2.49494 2.5
      vertex 0.262229 2.49494 2.6
      vertex 1.03746 4.88084 2.5
    endloop
  endfacet
  facet normal -0.951057 0.309017 0
    outer loop
      vertex 1.03746 4.88084 2.5
      vertex 0.262229 2.49494 2.6
      vertex 1.03746 4.88084 2.6
    endloop
  endfacet
  facet normal -0.994522 0.104529 0
    outer loop
      vertex 0.210209 2 2.5
      vertex 0.210209 2 2.6
      vertex 0.262229 2.49494 2.5
    endloop
  endfacet
  facet normal -0.994522 0.104529 0
    outer loop
      vertex 0.262229 2.49494 2.5
      vertex 0.210209 2 2.6
      vertex 0.262229 2.49494 2.6
    endloop
  endfacet
  facet normal 0 -1 0
    outer loop
      vertex 2.21021 2 1.6
      vertex 0.210209 2 2.6
      vertex 2.21021 2 -1.6
    endloop
  endfacet
  facet normal 0 -1 0
    outer loop
      vertex 6 2 -2
      vertex 6 2 -1.6
      vertex 2.21021 2 -1.6
    endloop
  endfacet
  facet normal 0 -1 0
    outer loop
      vertex 3.2788 2 1.6
      vertex 3.2788 2 2.6
      vertex 2.21021 2 1.6
    endloop
  endfacet
  facet normal 0 -1 0
    outer loop
      vertex -2 2 -2
      vertex 6 2 -2
      vertex 2.21021 2 -1.6
    endloop
  endfacet
  facet normal 0 -1 0
    outer loop
      vertex 0.210209 2 2.5
      vertex -2 2 2.5
      vertex 2.21021 2 -1.6
    endloop
  endfacet
  facet normal 0 -1 0
    outer loop
      vertex 3.2788 2 2.6
      vertex 0.210209 2 2.6
      vertex 2.21021 2 1.6
    endloop
  endfacet
  facet normal 0 -1 0
    outer loop
      vertex 0.210209 2 2.6
      vertex 0.210209 2 2.5
      vertex 2.21021 2 -1.6
    endloop
  endfacet
  facet normal 0 -1 0
    outer loop
      vertex -2 2 2.5
      vertex -2 2 -2
      vertex 2.21021 2 -1.6
    endloop
  endfacet
  facet normal 1 0 0
    outer loop
      vertex -2 2 -2
      vertex -2 2 2.5
      vertex -2 -2 2.5
    endloop
  endfacet
  facet normal 1 0 0
    outer loop
      vertex -2 -2 -2
      vertex -2 2 -2
      vertex -2 -2 2.5
    endloop
  endfacet
  facet normal 0 1 0
    outer loop
      vertex 0.210209 -2 2.5
      vertex 0.210209 -2 2.6
      vertex 3.2788 -2 2.6
    endloop
  endfacet
  facet normal 0 1 0
    outer loop
      vertex 0.210209 -2 2.5
      vertex 3.2788 -2 2.6
      vertex 3.2788 -2 1.6
    endloop
  endfacet
  facet normal 0 1 0
    outer loop
      vertex 0.210209 -2 2.5
      vertex 3.2788 -2 1.6
      vertex -2 -2 2.5
    endloop
  endfacet
  facet normal 0 1 0
    outer loop
      vertex 3.2788 -2 1.6
      vertex 2.21021 -2 1.6
      vertex -2 -2 2.5
    endloop
  endfacet
  facet normal 0 1 0
    outer loop
      vertex -2 -2 -2
      vertex -2 -2 2.5
      vertex 2.21021 -2 -1.6
    endloop
  endfacet
  facet normal 0 1 0
    outer loop
      vertex 2.21021 -2 1.6
      vertex 2.21021 -2 -1.6
      vertex -2 -2 2.5
    endloop
  endfacet
  facet normal 0 1 0
    outer loop
      vertex 6 -2 -1.6
      vertex 6 -2 -2
      vertex 2.21021 -2 -1.6
    endloop
  endfacet
  facet normal 0 1 0
    outer loop
      vertex 6 -2 -2
      vertex -2 -2 -2
      vertex 2.21021 -2 -1.6
    endloop
  endfacet
  facet normal -0.994522 -0.104529 0
    outer loop
      vertex 0.210209 -2 2.5
      vertex 0.262229 -2.49494 2.5
      vertex 0.210209 -2 2.6
    endloop
  endfacet
  facet normal -0.994522 -0.104529 0
    outer loop
      vertex 0.210209 -2 2.6
      vertex 0.262229 -2.49494 2.5
      vertex 0.262229 -2.49494 2.6
    endloop
  endfacet
  facet normal -0.951057 -0.309017 0
    outer loop
      vertex 0.262229 -2.49494 2.5
      vertex 1.03746 -4.88084 2.5
      vertex 0.262229 -2.49494 2.6
    endloop
  endfacet
  facet normal -0.951057 -0.309017 0
    outer loop
      vertex 0.262229 -2.49494 2.6
      vertex 1.03746 -4.88084 2.5
      vertex 1.03746 -4.88084 2.6
    endloop
  endfacet
  facet normal -0.866025 -0.5 0
    outer loop
      vertex 1.03746 -4.88084 2.5
      vertex 2.2918 -7.05342 2.5
      vertex 1.03746 -4.88084 2.6
    endloop
  endfacet
  facet normal -0.866025 -0.5 0
    outer loop
      vertex 1.03746 -4.88084 2.6
      vertex 2.2918 -7.05342 2.5
      vertex 2.2918 -7.05342 2.6
    endloop
  endfacet
  facet normal 0 0 1
    outer loop
      vertex 3.2788 -2 2.6
      vertex 0.210209 -2 2.6
      vertex 0.262229 -2.49494 2.6
    endloop
  endfacet
  facet normal 0 0 1
    outer loop
      vertex 2.2918 -7.05342 2.6
      vertex 3.2788 -2 2.6
      vertex 1.03746 -4.88084 2.6
    endloop
  endfacet
  facet normal 0 0 1
    outer loop
      vertex 1.03746 -4.88084 2.6
      vertex 3.2788 -2 2.6
      vertex 0.262229 -2.49494 2.6
    endloop
  endfacet
  facet normal 0 0 1
    outer loop
      vertex 3.97043 -8.91774 2.6
      vertex 3.2788 -2 2.6
      vertex 2.2918 -7.05342 2.6
    endloop
  endfacet
  facet normal 0 0 1
    outer loop
      vertex 3.47112 -2.87371 2.6
      vertex 3.2788 -2 2.6
      vertex 3.97043 -8.91774 2.6
    endloop
  endfacet
  facet normal 0 0 1
    outer loop
      vertex 4.28829 -4.63998 2.6
      vertex 3.47112 -2.87371 2.6
      vertex 6 -10.3923 2.6
    endloop
  endfacet
  facet normal 0 0 1
    outer loop
      vertex 6.94932 -7.4492 2.6
      vertex 5.46604 -6.18929 2.6
      vertex 8.2918 -11.4127 2.6
    endloop
  endfacet
  facet normal 0 0 1
    outer loop
      vertex 8.66876 -8.36079 2.6
      vertex 6.94932 -7.4492 2.6
      vertex 10.7457 -11.9343 2.6
    endloop
  endfacet
  facet normal 0 0 1
    outer loop
      vertex 24 -12 2.6
      vertex 12 -11.9343 2.6
      vertex 12 -12 2.6
    endloop
  endfacet
  facet normal 0 0 1
    outer loop
      vertex 24 -12 2.6
      vertex 12 -9 2.6
      vertex 12 -11.9343 2.6
    endloop
  endfacet
  facet normal 0 0 1
    outer loop
      vertex 10.544 -8.88144 2.6
      vertex 8.66876 -8.36079 2.6
      vertex 12 -11.9343 2.6
    endloop
  endfacet
  facet normal 0 0 1
    outer loop
      vertex 12 -8.96038 2.6
      vertex 10.544 -8.88144 2.6
      vertex 12 -9 2.6
    endloop
  endfacet
  facet normal 0 0 1
    outer loop
      vertex 12 -9 2.6
      vertex 10.544 -8.88144 2.6
      vertex 12 -11.9343 2.6
    endloop
  endfacet
  facet normal 0 0 1
    outer loop
      vertex 12 -11.9343 2.6
      vertex 8.66876 -8.36079 2.6
      vertex 10.7457 -11.9343 2.6
    endloop
  endfacet
  facet normal 0 0 1
    outer loop
      vertex 10.7457 -11.9343 2.6
      vertex 6.94932 -7.4492 2.6
      vertex 8.2918 -11.4127 2.6
    endloop
  endfacet
  facet normal 0 0 1
    outer loop
      vertex 8.2918 -11.4127 2.6
      vertex 5.46604 -6.18929 2.6
      vertex 6 -10.3923 2.6
    endloop
  endfacet
  facet normal 0 0 1
    outer loop
      vertex 5.46604 -6.18929 2.6
      vertex 4.28829 -4.63998 2.6
      vertex 6 -10.3923 2.6
    endloop
  endfacet
  facet normal 0 0 1
    outer loop
      vertex 6 -10.3923 2.6
      vertex 3.47112 -2.87371 2.6
      vertex 3.97043 -8.91774 2.6
    endloop
  endfacet
  facet normal 0 0 1
    outer loop
      vertex 24 -9 2.6
      vertex 12 -9 2.6
      vertex 24 -12 2.6
    endloop
  endfacet
  facet normal -0.587785 -0.809017 0
    outer loop
      vertex 3.97043 -8.91774 2.6
      vertex 3.97043 -8.91774 -2.6
      vertex 6 -10.3923 -2.6
    endloop
  endfacet
  facet normal -0.587785 -0.809017 0
    outer loop
      vertex 6 -10.3923 2.6
      vertex 3.97043 -8.91774 2.6
      vertex 6 -10.3923 -2.6
    endloop
  endfacet
  facet normal -0.406737 -0.913546 0
    outer loop
      vertex 6 -10.3923 2.6
      vertex 6 -10.3923 -2.6
      vertex 8.2918 -11.4127 -2.6
    endloop
  endfacet
  facet normal -0.406737 -0.913546 0
    outer loop
      vertex 8.2918 -11.4127 2.6
      vertex 6 -10.3923 2.6
      vertex 8.2918 -11.4127 -2.6
    endloop
  endfacet
  facet normal -0.207912 -0.978148 0
    outer loop
      vertex 8.2918 -11.4127 2.6
      vertex 8.2918 -11.4127 -2.6
      vertex 10.7457 -11.9343 -2.6
    endloop
  endfacet
  facet normal -0.207912 -0.978148 0
    outer loop
      vertex 10.7457 -11.9343 2.6
      vertex 8.2918 -11.4127 2.6
      vertex 10.7457 -11.9343 -2.6
    endloop
  endfacet
  facet normal 0 -1 0
    outer loop
      vertex 10.7457 -11.9343 2.6
      vertex 10.7457 -11.9343 -2.6
      vertex 12 -11.9343 -2.6
    endloop
  endfacet
  facet normal 0 -1 0
    outer loop
      vertex 12 -11.9343 2.6
      vertex 10.7457 -11.9343 2.6
      vertex 12 -11.9343 -2.6
    endloop
  endfacet
  facet normal -1 0 0
    outer loop
      vertex 12 -12 -2.6
      vertex 12 -12 2.6
      vertex 12 -11.9343 -2.6
    endloop
  endfacet
  facet normal -1 0 0
    outer loop
      vertex 12 -11.9343 -2.6
      vertex 12 -12 2.6
      vertex 12 -11.9343 2.6
    endloop
  endfacet
  facet normal 0 -1 0
    outer loop
      vertex 12 -12 2.6
      vertex 12 -12 -2.6
      vertex 24 -12 -2.6
    endloop
  endfacet
  facet normal 0 -1 0
    outer loop
      vertex 24 -12 2.6
      vertex 12 -12 2.6
      vertex 24 -12 -2.6
    endloop
  endfacet
  facet normal 0 1 0
    outer loop
      vertex 24 -9 2.6
      vertex 24 -9 1.6
      vertex 12 -9 2.6
    endloop
  endfacet
  facet normal 0 1 0
    outer loop
      vertex 12 -9 2.6
      vertex 24 -9 1.6
      vertex 12 -9 1.6
    endloop
  endfacet
  facet normal 0 0 1
    outer loop
      vertex 12.4872 8.9868 1.6
      vertex 24 9 1.6
      vertex 12 9 1.6
    endloop
  endfacet
  facet normal 0 0 1
    outer loop
      vertex 20.7896 1.93473 1.6
      vertex 21 0 1.6
      vertex 24 -9 1.6
    endloop
  endfacet
  facet normal 0 0 1
    outer loop
      vertex 14.4078 8.67195 1.6
      vertex 24 9 1.6
      vertex 12.4872 8.9868 1.6
    endloop
  endfacet
  facet normal 0 0 1
    outer loop
      vertex 16.2157 7.95161 1.6
      vertex 24 9 1.6
      vertex 14.4078 8.67195 1.6
    endloop
  endfacet
  facet normal 0 0 1
    outer loop
      vertex 17.8265 6.85946 1.6
      vertex 24 9 1.6
      vertex 16.2157 7.95161 1.6
    endloop
  endfacet
  facet normal 0 0 1
    outer loop
      vertex 19.1648 5.44657 1.6
      vertex 24 9 1.6
      vertex 17.8265 6.85946 1.6
    endloop
  endfacet
  facet normal 0 0 1
    outer loop
      vertex 20.1682 3.779 1.6
      vertex 24 9 1.6
      vertex 19.1648 5.44657 1.6
    endloop
  endfacet
  facet normal 0 0 1
    outer loop
      vertex 20.7896 1.93473 1.6
      vertex 24 9 1.6
      vertex 20.1682 3.779 1.6
    endloop
  endfacet
  facet normal 0 0 1
    outer loop
      vertex 24 -9 1.6
      vertex 24 9 1.6
      vertex 20.7896 1.93473 1.6
    endloop
  endfacet
  facet normal 0 0 1
    outer loop
      vertex 19.1648 -5.44657 1.6
      vertex 24 -9 1.6
      vertex 20.1682 -3.779 1.6
    endloop
  endfacet
  facet normal 0 0 1
    outer loop
      vertex 17.8265 -6.85946 1.6
      vertex 24 -9 1.6
      vertex 19.1648 -5.44657 1.6
    endloop
  endfacet
  facet normal 0 0 1
    outer loop
      vertex 16.2157 -7.95161 1.6
      vertex 24 -9 1.6
      vertex 17.8265 -6.85946 1.6
    endloop
  endfacet
  facet normal 0 0 1
    outer loop
      vertex 14.4078 -8.67195 1.6
      vertex 24 -9 1.6
      vertex 16.2157 -7.95161 1.6
    endloop
  endfacet
  facet normal 0 0 1
    outer loop
      vertex 12.4872 -8.9868 1.6
      vertex 24 -9 1.6
      vertex 14.4078 -8.67195 1.6
    endloop
  endfacet
  facet normal 0 0 1
    outer loop
      vertex 12 -9 1.6
      vertex 24 -9 1.6
      vertex 12.4872 -8.9868 1.6
    endloop
  endfacet
  facet normal 0 0 1
    outer loop
      vertex 12 -9 1.6
      vertex 12.4872 -8.9868 1.6
      vertex 12 -8.96038 1.6
    endloop
  endfacet
  facet normal 0 0 1
    outer loop
      vertex 12 8.96038 1.6
      vertex 12.4872 8.9868 1.6
      vertex 12 9 1.6
    endloop
  endfacet
  facet normal 0 0 1
    outer loop
      vertex 21 0 1.6
      vertex 20.7896 -1.93473 1.6
      vertex 24 -9 1.6
    endloop
  endfacet
  facet normal 0 0 1
    outer loop
      vertex 20.7896 -1.93473 1.6
      vertex 20.1682 -3.779 1.6
      vertex 24 -9 1.6
    endloop
  endfacet
  facet normal 0 -1 0
    outer loop
      vertex 24 9 1.6
      vertex 24 9 2.6
      vertex 12 9 2.6
    endloop
  endfacet
  facet normal 0 -1 0
    outer loop
      vertex 12 9 1.6
      vertex 24 9 1.6
      vertex 12 9 2.6
    endloop
  endfacet
  facet normal 0 0 1
    outer loop
      vertex 0.262229 2.49494 2.6
      vertex 0.210209 2 2.6
      vertex 3.2788 2 2.6
    endloop
  endfacet
  facet normal 0 0 1
    outer loop
      vertex 4.28829 4.63998 2.6
      vertex 0.262229 2.49494 2.6
      vertex 3.47112 2.87371 2.6
    endloop
  endfacet
  facet normal 0 0 1
    outer loop
      vertex 3.47112 2.87371 2.6
      vertex 0.262229 2.49494 2.6
      vertex 3.2788 2 2.6
    endloop
  endfacet
  facet normal 0 0 1
    outer loop
      vertex 5.46604 6.18929 2.6
      vertex 0.262229 2.49494 2.6
      vertex 4.28829 4.63998 2.6
    endloop
  endfacet
  facet normal 0 0 1
    outer loop
      vertex 6.94932 7.4492 2.6
      vertex 0.262229 2.49494 2.6
      vertex 5.46604 6.18929 2.6
    endloop
  endfacet
  facet normal 0 0 1
    outer loop
      vertex 12 9 2.6
      vertex 10.544 8.88144 2.6
      vertex 12 8.96038 2.6
    endloop
  endfacet
  facet normal 0 0 1
    outer loop
      vertex 24 12 2.6
      vertex 10.544 8.88144 2.6
      vertex 12 9 2.6
    endloop
  endfacet
  facet normal 0 0 1
    outer loop
      vertex 24 12 2.6
      vertex 12 9 2.6
      vertex 24 9 2.6
    endloop
  endfacet
  facet normal 0 0 1
    outer loop
      vertex 12 11.9343 2.6
      vertex 10.544 8.88144 2.6
      vertex 24 12 2.6
    endloop
  endfacet
  facet normal 0 0 1
    outer loop
      vertex 12 12 2.6
      vertex 12 11.9343 2.6
      vertex 24 12 2.6
    endloop
  endfacet
  facet normal 0 0 1
    outer loop
      vertex 8.2918 11.4127 2.6
      vertex 0.262229 2.49494 2.6
      vertex 10.7457 11.9343 2.6
    endloop
  endfacet
  facet normal 0 0 1
    outer loop
      vertex 6 10.3923 2.6
      vertex 0.262229 2.49494 2.6
      vertex 8.2918 11.4127 2.6
    endloop
  endfacet
  facet normal 0 0 1
    outer loop
      vertex 3.97043 8.91774 2.6
      vertex 0.262229 2.49494 2.6
      vertex 6 10.3923 2.6
    endloop
  endfacet
  facet normal 0 0 1
    outer loop
      vertex 2.2918 7.05342 2.6
      vertex 0.262229 2.49494 2.6
      vertex 3.97043 8.91774 2.6
    endloop
  endfacet
  facet normal 0 0 1
    outer loop
      vertex 1.03746 4.88084 2.6
      vertex 0.262229 2.49494 2.6
      vertex 2.2918 7.05342 2.6
    endloop
  endfacet
  facet normal 0 0 1
    outer loop
      vertex 12 11.9343 2.6
      vertex 8.66876 8.36079 2.6
      vertex 10.544 8.88144 2.6
    endloop
  endfacet
  facet normal 0 0 1
    outer loop
      vertex 12 11.9343 2.6
      vertex 6.94932 7.4492 2.6
      vertex 8.66876 8.36079 2.6
    endloop
  endfacet
  facet normal 0 0 1
    outer loop
      vertex 12 11.9343 2.6
      vertex 0.262229 2.49494 2.6
      vertex 6.94932 7.4492 2.6
    endloop
  endfacet
  facet normal 0 0 1
    outer loop
      vertex 12 11.9343 2.6
      vertex 10.7457 11.9343 2.6
      vertex 0.262229 2.49494 2.6
    endloop
  endfacet
  facet normal 0 1 0
    outer loop
      vertex 12 12 -2.6
      vertex 12 12 2.6
      vertex 24 12 -2.6
    endloop
  endfacet
  facet normal 0 1 0
    outer loop
      vertex 24 12 -2.6
      vertex 12 12 2.6
      vertex 24 12 2.6
    endloop
  endfacet
  facet normal 0 0 1
    outer loop
      vertex 2.21852 -2.07912 -1.6
      vertex 2.86454 -4.06737 -1.6
      vertex 3.90983 -5.87785 -1.6
    endloop
  endfacet
  facet normal 0 0 1
    outer loop
      vertex 7 -8.66025 -1.6
      vertex 2.21852 -2.07912 -1.6
      vertex 5.30869 -7.43145 -1.6
    endloop
  endfacet
  facet normal 0 0 1
    outer loop
      vertex 5.30869 -7.43145 -1.6
      vertex 2.21852 -2.07912 -1.6
      vertex 3.90983 -5.87785 -1.6
    endloop
  endfacet
  facet normal 0 0 1
    outer loop
      vertex 8.90983 -9.51056 -1.6
      vertex 2.21852 -2.07912 -1.6
      vertex 7 -8.66025 -1.6
    endloop
  endfacet
  facet normal 0 0 1
    outer loop
      vertex 10.9547 -9.94522 -1.6
      vertex 2.21852 -2.07912 -1.6
      vertex 8.90983 -9.51056 -1.6
    endloop
  endfacet
  facet normal 0 0 1
    outer loop
      vertex 13.0453 -9.94522 -1.6
      vertex 2.21852 -2.07912 -1.6
      vertex 10.9547 -9.94522 -1.6
    endloop
  endfacet
  facet normal 0 0 1
    outer loop
      vertex 14.5 -9.63601 -1.6
      vertex 2.21852 -2.07912 -1.6
      vertex 13.0453 -9.94522 -1.6
    endloop
  endfacet
  facet normal 0 0 1
    outer loop
      vertex 15.9547 -9.94522 -1.6
      vertex 2.21852 -2.07912 -1.6
      vertex 14.5 -9.63601 -1.6
    endloop
  endfacet
  facet normal 0 0 1
    outer loop
      vertex 17 -9.94522 -1.6
      vertex 2.21852 -2.07912 -1.6
      vertex 15.9547 -9.94522 -1.6
    endloop
  endfacet
  facet normal 0 0 1
    outer loop
      vertex 24 -10 -1.6
      vertex 2.21852 -2.07912 -1.6
      vertex 17 -9.94522 -1.6
    endloop
  endfacet
  facet normal 0 0 1
    outer loop
      vertex 24 -10 -1.6
      vertex 17 -9.94522 -1.6
      vertex 17 -10 -1.6
    endloop
  endfacet
  facet normal 0 0 1
    outer loop
      vertex 6 -2 -1.6
      vertex 2.21852 -2.07912 -1.6
      vertex 24 -10 -1.6
    endloop
  endfacet
  facet normal 0 0 1
    outer loop
      vertex 17 10 -1.6
      vertex 17 9.94522 -1.6
      vertex 24 10 -1.6
    endloop
  endfacet
  facet normal 0 0 1
    outer loop
      vertex 2.21021 2 -1.6
      vertex 2.86454 4.06737 -1.6
      vertex 2.21852 2.07912 -1.6
    endloop
  endfacet
  facet normal 0 0 1
    outer loop
      vertex 6 2 -1.6
      vertex 15.9547 9.94522 -1.6
      vertex 14.5 9.63601 -1.6
    endloop
  endfacet
  facet normal 0 0 1
    outer loop
      vertex 6 2 -1.6
      vertex 17 9.94522 -1.6
      vertex 15.9547 9.94522 -1.6
    endloop
  endfacet
  facet normal 0 0 1
    outer loop
      vertex 6 2 -1.6
      vertex 24 10 -1.6
      vertex 17 9.94522 -1.6
    endloop
  endfacet
  facet normal 0 0 1
    outer loop
      vertex 6 2 -1.6
      vertex 6 -2 -1.6
      vertex 24 10 -1.6
    endloop
  endfacet
  facet normal 0 0 1
    outer loop
      vertex 13.0453 9.94522 -1.6
      vertex 6 2 -1.6
      vertex 14.5 9.63601 -1.6
    endloop
  endfacet
  facet normal 0 0 1
    outer loop
      vertex 24 10 -1.6
      vertex 6 -2 -1.6
      vertex 24 -10 -1.6
    endloop
  endfacet
  facet normal 0 0 1
    outer loop
      vertex 6 -2 -1.6
      vertex 2.21021 -2 -1.6
      vertex 2.21852 -2.07912 -1.6
    endloop
  endfacet
  facet normal 0 0 1
    outer loop
      vertex 2.21021 2 -1.6
      vertex 3.90983 5.87785 -1.6
      vertex 2.86454 4.06737 -1.6
    endloop
  endfacet
  facet normal 0 0 1
    outer loop
      vertex 2.21021 2 -1.6
      vertex 5.30869 7.43145 -1.6
      vertex 3.90983 5.87785 -1.6
    endloop
  endfacet
  facet normal 0 0 1
    outer loop
      vertex 2.21021 2 -1.6
      vertex 7 8.66025 -1.6
      vertex 5.30869 7.43145 -1.6
    endloop
  endfacet
  facet normal 0 0 1
    outer loop
      vertex 2.21021 2 -1.6
      vertex 8.90983 9.51056 -1.6
      vertex 7 8.66025 -1.6
    endloop
  endfacet
  facet normal 0 0 1
    outer loop
      vertex 2.21021 2 -1.6
      vertex 10.9547 9.94522 -1.6
      vertex 8.90983 9.51056 -1.6
    endloop
  endfacet
  facet normal 0 0 1
    outer loop
      vertex 2.21021 2 -1.6
      vertex 13.0453 9.94522 -1.6
      vertex 10.9547 9.94522 -1.6
    endloop
  endfacet
  facet normal 0 0 1
    outer loop
      vertex 2.21021 2 -1.6
      vertex 6 2 -1.6
      vertex 13.0453 9.94522 -1.6
    endloop
  endfacet
  facet normal 0 1 0
    outer loop
      vertex 24 -10 1.6
      vertex 24 -10 -1.6
      vertex 17 -10 1.6
    endloop
  endfacet
  facet normal 0 1 0
    outer loop
      vertex 17 -10 1.6
      vertex 24 -10 -1.6
      vertex 17 -10 -1.6
    endloop
  endfacet
  facet normal 0 -1 0
    outer loop
      vertex 24 10 -1.6
      vertex 24 10 1.6
      vertex 17 10 1.6
    endloop
  endfacet
  facet normal 0 -1 0
    outer loop
      vertex 17 10 -1.6
      vertex 24 10 -1.6
      vertex 17 10 1.6
    endloop
  endfacet
  facet normal 0 0 -1
    outer loop
      vertex 14.5 -9.63601 1.6
      vertex 10.544 -8.88144 1.6
      vertex 17 -9.94522 1.6
    endloop
  endfacet
  facet normal 0 0 -1
    outer loop
      vertex 5.30869 -7.43145 1.6
      vertex 4.28829 -4.63998 1.6
      vertex 7 -8.66025 1.6
    endloop
  endfacet
  facet normal 0 0 -1
    outer loop
      vertex 7 -8.66025 1.6
      vertex 5.46604 -6.18929 1.6
      vertex 8.90983 -9.51056 1.6
    endloop
  endfacet
  facet normal 0 0 -1
    outer loop
      vertex 8.90983 -9.51056 1.6
      vertex 6.94932 -7.4492 1.6
      vertex 10.9547 -9.94522 1.6
    endloop
  endfacet
  facet normal 0 0 -1
    outer loop
      vertex 10.9547 -9.94522 1.6
      vertex 8.66876 -8.36079 1.6
      vertex 13.0453 -9.94522 1.6
    endloop
  endfacet
  facet normal 0 0 -1
    outer loop
      vertex 17 -9.94522 1.6
      vertex 10.544 -8.88144 1.6
      vertex 24 -10 1.6
    endloop
  endfacet
  facet normal 0 0 -1
    outer loop
      vertex 10.544 -8.88144 1.6
      vertex 12.4872 -8.9868 1.6
      vertex 24 -10 1.6
    endloop
  endfacet
  facet normal 0 0 -1
    outer loop
      vertex 12.4872 -8.9868 1.6
      vertex 14.4078 -8.67195 1.6
      vertex 24 -10 1.6
    endloop
  endfacet
  facet normal 0 0 -1
    outer loop
      vertex 14.4078 -8.67195 1.6
      vertex 16.2157 -7.95161 1.6
      vertex 24 -10 1.6
    endloop
  endfacet
  facet normal 0 0 -1
    outer loop
      vertex 16.2157 -7.95161 1.6
      vertex 17.8265 -6.85946 1.6
      vertex 24 -10 1.6
    endloop
  endfacet
  facet normal 0 0 -1
    outer loop
      vertex 17.8265 -6.85946 1.6
      vertex 19.1648 -5.44657 1.6
      vertex 24 -10 1.6
    endloop
  endfacet
  facet normal 0 0 -1
    outer loop
      vertex 19.1648 -5.44657 1.6
      vertex 20.1682 -3.779 1.6
      vertex 24 -10 1.6
    endloop
  endfacet
  facet normal 0 0 -1
    outer loop
      vertex 24 -10 1.6
      vertex 20.7896 -1.93473 1.6
      vertex 24 10 1.6
    endloop
  endfacet
  facet normal 0 0 -1
    outer loop
      vertex 20.7896 -1.93473 1.6
      vertex 21 0 1.6
      vertex 24 10 1.6
    endloop
  endfacet
  facet normal 0 0 -1
    outer loop
      vertex 21 0 1.6
      vertex 20.7896 1.93473 1.6
      vertex 24 10 1.6
    endloop
  endfacet
  facet normal 0 0 -1
    outer loop
      vertex 17 10 1.6
      vertex 20.1682 3.779 1.6
      vertex 17 9.94522 1.6
    endloop
  endfacet
  facet normal 0 0 -1
    outer loop
      vertex 17 9.94522 1.6
      vertex 19.1648 5.44657 1.6
      vertex 15.9547 9.94522 1.6
    endloop
  endfacet
  facet normal 0 0 -1
    outer loop
      vertex 15.9547 9.94522 1.6
      vertex 17.8265 6.85946 1.6
      vertex 14.5 9.63601 1.6
    endloop
  endfacet
  facet normal 0 0 -1
    outer loop
      vertex 14.5 9.63601 1.6
      vertex 16.2157 7.95161 1.6
      vertex 13.0453 9.94522 1.6
    endloop
  endfacet
  facet normal 0 0 -1
    outer loop
      vertex 13.0453 9.94522 1.6
      vertex 14.4078 8.67195 1.6
      vertex 10.9547 9.94522 1.6
    endloop
  endfacet
  facet normal 0 0 -1
    outer loop
      vertex 10.9547 9.94522 1.6
      vertex 12.4872 8.9868 1.6
      vertex 8.90983 9.51056 1.6
    endloop
  endfacet
  facet normal 0 0 -1
    outer loop
      vertex 7 8.66025 1.6
      vertex 10.544 8.88144 1.6
      vertex 5.30869 7.43145 1.6
    endloop
  endfacet
  facet normal 0 0 -1
    outer loop
      vertex 5.30869 7.43145 1.6
      vertex 8.66876 8.36079 1.6
      vertex 3.90983 5.87785 1.6
    endloop
  endfacet
  facet normal 0 0 -1
    outer loop
      vertex 3.90983 5.87785 1.6
      vertex 6.94932 7.4492 1.6
      vertex 2.86454 4.06737 1.6
    endloop
  endfacet
  facet normal 0 0 -1
    outer loop
      vertex 2.21852 2.07912 1.6
      vertex 5.46604 6.18929 1.6
      vertex 2.21021 2 1.6
    endloop
  endfacet
  facet normal 0 0 -1
    outer loop
      vertex 5.46604 6.18929 1.6
      vertex 4.28829 4.63998 1.6
      vertex 2.21021 2 1.6
    endloop
  endfacet
  facet normal 0 0 -1
    outer loop
      vertex 4.28829 4.63998 1.6
      vertex 3.47112 2.87371 1.6
      vertex 2.21021 2 1.6
    endloop
  endfacet
  facet normal 0 0 -1
    outer loop
      vertex 3.47112 2.87371 1.6
      vertex 3.2788 2 1.6
      vertex 2.21021 2 1.6
    endloop
  endfacet
  facet normal 0 0 -1
    outer loop
      vertex 2.86454 4.06737 1.6
      vertex 5.46604 6.18929 1.6
      vertex 2.21852 2.07912 1.6
    endloop
  endfacet
  facet normal 0 0 -1
    outer loop
      vertex 6.94932 7.4492 1.6
      vertex 5.46604 6.18929 1.6
      vertex 2.86454 4.06737 1.6
    endloop
  endfacet
  facet normal 0 0 -1
    outer loop
      vertex 8.66876 8.36079 1.6
      vertex 6.94932 7.4492 1.6
      vertex 3.90983 5.87785 1.6
    endloop
  endfacet
  facet normal 0 0 -1
    outer loop
      vertex 10.544 8.88144 1.6
      vertex 8.66876 8.36079 1.6
      vertex 5.30869 7.43145 1.6
    endloop
  endfacet
  facet normal 0 0 -1
    outer loop
      vertex 8.90983 9.51056 1.6
      vertex 10.544 8.88144 1.6
      vertex 7 8.66025 1.6
    endloop
  endfacet
  facet normal 0 0 -1
    outer loop
      vertex 12.4872 8.9868 1.6
      vertex 10.544 8.88144 1.6
      vertex 8.90983 9.51056 1.6
    endloop
  endfacet
  facet normal 0 0 -1
    outer loop
      vertex 14.4078 8.67195 1.6
      vertex 12.4872 8.9868 1.6
      vertex 10.9547 9.94522 1.6
    endloop
  endfacet
  facet normal 0 0 -1
    outer loop
      vertex 16.2157 7.95161 1.6
      vertex 14.4078 8.67195 1.6
      vertex 13.0453 9.94522 1.6
    endloop
  endfacet
  facet normal 0 0 -1
    outer loop
      vertex 17.8265 6.85946 1.6
      vertex 16.2157 7.95161 1.6
      vertex 14.5 9.63601 1.6
    endloop
  endfacet
  facet normal 0 0 -1
    outer loop
      vertex 19.1648 5.44657 1.6
      vertex 17.8265 6.85946 1.6
      vertex 15.9547 9.94522 1.6
    endloop
  endfacet
  facet normal 0 0 -1
    outer loop
      vertex 20.1682 3.779 1.6
      vertex 19.1648 5.44657 1.6
      vertex 17 9.94522 1.6
    endloop
  endfacet
  facet normal 0 0 -1
    outer loop
      vertex 24 10 1.6
      vertex 20.1682 3.779 1.6
      vertex 17 10 1.6
    endloop
  endfacet
  facet normal 0 0 -1
    outer loop
      vertex 20.7896 1.93473 1.6
      vertex 20.1682 3.779 1.6
      vertex 24 10 1.6
    endloop
  endfacet
  facet normal 0 0 -1
    outer loop
      vertex 20.1682 -3.779 1.6
      vertex 20.7896 -1.93473 1.6
      vertex 24 -10 1.6
    endloop
  endfacet
  facet normal 0 0 -1
    outer loop
      vertex 17 -10 1.6
      vertex 17 -9.94522 1.6
      vertex 24 -10 1.6
    endloop
  endfacet
  facet normal 0 0 -1
    outer loop
      vertex 13.0453 -9.94522 1.6
      vertex 10.544 -8.88144 1.6
      vertex 14.5 -9.63601 1.6
    endloop
  endfacet
  facet normal 0 0 -1
    outer loop
      vertex 8.66876 -8.36079 1.6
      vertex 10.544 -8.88144 1.6
      vertex 13.0453 -9.94522 1.6
    endloop
  endfacet
  facet normal 0 0 -1
    outer loop
      vertex 6.94932 -7.4492 1.6
      vertex 8.66876 -8.36079 1.6
      vertex 10.9547 -9.94522 1.6
    endloop
  endfacet
  facet normal 0 0 -1
    outer loop
      vertex 5.46604 -6.18929 1.6
      vertex 6.94932 -7.4492 1.6
      vertex 8.90983 -9.51056 1.6
    endloop
  endfacet
  facet normal 0 0 -1
    outer loop
      vertex 4.28829 -4.63998 1.6
      vertex 5.46604 -6.18929 1.6
      vertex 7 -8.66025 1.6
    endloop
  endfacet
  facet normal 0 0 -1
    outer loop
      vertex 3.47112 -2.87371 1.6
      vertex 4.28829 -4.63998 1.6
      vertex 5.30869 -7.43145 1.6
    endloop
  endfacet
  facet normal 0 0 -1
    outer loop
      vertex 3.47112 -2.87371 1.6
      vertex 5.30869 -7.43145 1.6
      vertex 3.90983 -5.87785 1.6
    endloop
  endfacet
  facet normal 0 0 -1
    outer loop
      vertex 15.9547 -9.94522 1.6
      vertex 14.5 -9.63601 1.6
      vertex 17 -9.94522 1.6
    endloop
  endfacet
  facet normal 0 0 -1
    outer loop
      vertex 3.2788 -2 1.6
      vertex 3.47112 -2.87371 1.6
      vertex 3.90983 -5.87785 1.6
    endloop
  endfacet
  facet normal 0 0 -1
    outer loop
      vertex 3.2788 -2 1.6
      vertex 3.90983 -5.87785 1.6
      vertex 2.86454 -4.06737 1.6
    endloop
  endfacet
  facet normal 0 0 -1
    outer loop
      vertex 3.2788 -2 1.6
      vertex 2.86454 -4.06737 1.6
      vertex 2.21852 -2.07912 1.6
    endloop
  endfacet
  facet normal 0 0 -1
    outer loop
      vertex 3.2788 -2 1.6
      vertex 2.21852 -2.07912 1.6
      vertex 2.21021 -2 1.6
    endloop
  endfacet
  facet normal -1 0 0
    outer loop
      vertex 12 11.9343 -2.6
      vertex 12 11.9343 2.6
      vertex 12 12 -2.6
    endloop
  endfacet
  facet normal -1 0 0
    outer loop
      vertex 12 12 -2.6
      vertex 12 11.9343 2.6
      vertex 12 12 2.6
    endloop
  endfacet
  facet normal 0 1 0
    outer loop
      vertex 10.7457 11.9343 -2.6
      vertex 10.7457 11.9343 2.6
      vertex 12 11.9343 -2.6
    endloop
  endfacet
  facet normal 0 1 0
    outer loop
      vertex 12 11.9343 -2.6
      vertex 10.7457 11.9343 2.6
      vertex 12 11.9343 2.6
    endloop
  endfacet
  facet normal -0.207912 0.978148 0
    outer loop
      vertex 8.2918 11.4127 -2.6
      vertex 8.2918 11.4127 2.6
      vertex 10.7457 11.9343 -2.6
    endloop
  endfacet
  facet normal -0.207912 0.978148 0
    outer loop
      vertex 10.7457 11.9343 -2.6
      vertex 8.2918 11.4127 2.6
      vertex 10.7457 11.9343 2.6
    endloop
  endfacet
  facet normal -0.406737 0.913546 0
    outer loop
      vertex 6 10.3923 -2.6
      vertex 6 10.3923 2.6
      vertex 8.2918 11.4127 -2.6
    endloop
  endfacet
  facet normal -0.406737 0.913546 0
    outer loop
      vertex 8.2918 11.4127 -2.6
      vertex 6 10.3923 2.6
      vertex 8.2918 11.4127 2.6
    endloop
  endfacet
  facet normal -0.587785 0.809017 0
    outer loop
      vertex 3.97043 8.91774 -2.6
      vertex 3.97043 8.91774 2.6
      vertex 6 10.3923 -2.6
    endloop
  endfacet
  facet normal -0.587785 0.809017 0
    outer loop
      vertex 6 10.3923 -2.6
      vertex 3.97043 8.91774 2.6
      vertex 6 10.3923 2.6
    endloop
  endfacet
  facet normal -1 0 0
    outer loop
      vertex 6 2 -1.6
      vertex 6 2 -2
      vertex 6 -2 -1.6
    endloop
  endfacet
  facet normal -1 0 0
    outer loop
      vertex 6 -2 -1.6
      vertex 6 2 -2
      vertex 6 -2 -2
    endloop
  endfacet
  facet normal 0 0 1
    outer loop
      vertex 6 -2 -2
      vertex 6 2 -2
      vertex -2 2 -2
    endloop
  endfacet
  facet normal 0 0 1
    outer loop
      vertex -2 -2 -2
      vertex 6 -2 -2
      vertex -2 2 -2
    endloop
  endfacet
  facet normal 0.976621 -0.21497 0
    outer loop
      vertex 3.47112 2.87371 1.6
      vertex 3.47112 2.87371 2.6
      vertex 3.2788 2 2.6
    endloop
  endfacet
  facet normal 0.976621 -0.21497 0
    outer loop
      vertex 3.2788 2 1.6
      vertex 3.47112 2.87371 1.6
      vertex 3.2788 2 2.6
    endloop
  endfacet
  facet normal 0.994522 -0.104528 0
    outer loop
      vertex 2.21852 2.07912 -1.6
      vertex 2.21852 2.07912 1.6
      vertex 2.21021 2 1.6
    endloop
  endfacet
  facet normal 0.994522 -0.104528 0
    outer loop
      vertex 2.21021 2 -1.6
      vertex 2.21852 2.07912 -1.6
      vertex 2.21021 2 1.6
    endloop
  endfacet
  facet normal 0.994522 0.104528 0
    outer loop
      vertex 2.21021 -2 1.6
      vertex 2.21852 -2.07912 1.6
      vertex 2.21852 -2.07912 -1.6
    endloop
  endfacet
  facet normal 0.994522 0.104528 0
    outer loop
      vertex 2.21021 -2 -1.6
      vertex 2.21021 -2 1.6
      vertex 2.21852 -2.07912 -1.6
    endloop
  endfacet
  facet normal 0.976621 0.21497 0
    outer loop
      vertex 3.2788 -2 2.6
      vertex 3.47112 -2.87371 2.6
      vertex 3.47112 -2.87371 1.6
    endloop
  endfacet
  facet normal 0.976621 0.21497 0
    outer loop
      vertex 3.2788 -2 1.6
      vertex 3.2788 -2 2.6
      vertex 3.47112 -2.87371 1.6
    endloop
  endfacet
  facet normal 0.907575 0.419889 0
    outer loop
      vertex 3.47112 -2.87371 2.6
      vertex 4.28829 -4.63998 2.6
      vertex 4.28829 -4.63998 1.6
    endloop
  endfacet
  facet normal 0.907575 0.419889 0
    outer loop
      vertex 3.47112 -2.87371 1.6
      vertex 3.47112 -2.87371 2.6
      vertex 4.28829 -4.63998 1.6
    endloop
  endfacet
  facet normal 0.796093 0.605175 0
    outer loop
      vertex 4.28829 -4.63998 2.6
      vertex 5.46604 -6.18929 2.6
      vertex 5.46604 -6.18929 1.6
    endloop
  endfacet
  facet normal 0.796093 0.605175 0
    outer loop
      vertex 4.28829 -4.63998 1.6
      vertex 4.28829 -4.63998 2.6
      vertex 5.46604 -6.18929 1.6
    endloop
  endfacet
  facet normal 0.647387 0.762162 0
    outer loop
      vertex 6.94932 -7.4492 2.6
      vertex 6.94932 -7.4492 1.6
      vertex 5.46604 -6.18929 2.6
    endloop
  endfacet
  facet normal 0.647387 0.762162 0
    outer loop
      vertex 5.46604 -6.18929 2.6
      vertex 6.94932 -7.4492 1.6
      vertex 5.46604 -6.18929 1.6
    endloop
  endfacet
  facet normal 0.468408 0.883512 0
    outer loop
      vertex 8.66876 -8.36079 2.6
      vertex 8.66876 -8.36079 1.6
      vertex 6.94932 -7.4492 2.6
    endloop
  endfacet
  facet normal 0.468408 0.883512 0
    outer loop
      vertex 6.94932 -7.4492 2.6
      vertex 8.66876 -8.36079 1.6
      vertex 6.94932 -7.4492 1.6
    endloop
  endfacet
  facet normal 0.267529 0.96355 0
    outer loop
      vertex 10.544 -8.88144 2.6
      vertex 10.544 -8.88144 1.6
      vertex 8.66876 -8.36079 2.6
    endloop
  endfacet
  facet normal 0.267529 0.96355 0
    outer loop
      vertex 8.66876 -8.36079 2.6
      vertex 10.544 -8.88144 1.6
      vertex 8.66876 -8.36079 1.6
    endloop
  endfacet
  facet normal 0.0541389 0.998533 0
    outer loop
      vertex 12 -8.96038 2.6
      vertex 12 -8.96038 1.6
      vertex 10.544 -8.88144 2.6
    endloop
  endfacet
  facet normal 0.0541389 0.998533 0
    outer loop
      vertex 10.544 -8.88144 1.6
      vertex 12 -8.96038 1.6
      vertex 12.4872 -8.9868 1.6
    endloop
  endfacet
  facet normal 0.0541389 0.998533 0
    outer loop
      vertex 10.544 -8.88144 2.6
      vertex 12 -8.96038 1.6
      vertex 10.544 -8.88144 1.6
    endloop
  endfacet
  facet normal 1 0 0
    outer loop
      vertex 12 -8.96038 1.6
      vertex 12 -8.96038 2.6
      vertex 12 -9 2.6
    endloop
  endfacet
  facet normal 1 0 0
    outer loop
      vertex 12 -9 1.6
      vertex 12 -8.96038 1.6
      vertex 12 -9 2.6
    endloop
  endfacet
  facet normal 0.0541389 -0.998533 0
    outer loop
      vertex 10.544 8.88144 1.6
      vertex 12.4872 8.9868 1.6
      vertex 12 8.96038 1.6
    endloop
  endfacet
  facet normal 0.0541389 -0.998533 0
    outer loop
      vertex 12 8.96038 2.6
      vertex 10.544 8.88144 2.6
      vertex 12 8.96038 1.6
    endloop
  endfacet
  facet normal 0.0541389 -0.998533 0
    outer loop
      vertex 10.544 8.88144 2.6
      vertex 10.544 8.88144 1.6
      vertex 12 8.96038 1.6
    endloop
  endfacet
  facet normal 1 0 0
    outer loop
      vertex 12 9 1.6
      vertex 12 9 2.6
      vertex 12 8.96038 2.6
    endloop
  endfacet
  facet normal 1 0 0
    outer loop
      vertex 12 8.96038 1.6
      vertex 12 9 1.6
      vertex 12 8.96038 2.6
    endloop
  endfacet
  facet normal 0.267529 -0.96355 0
    outer loop
      vertex 10.544 8.88144 1.6
      vertex 10.544 8.88144 2.6
      vertex 8.66876 8.36079 2.6
    endloop
  endfacet
  facet normal 0.267529 -0.96355 0
    outer loop
      vertex 8.66876 8.36079 1.6
      vertex 10.544 8.88144 1.6
      vertex 8.66876 8.36079 2.6
    endloop
  endfacet
  facet normal 0.468408 -0.883512 0
    outer loop
      vertex 8.66876 8.36079 1.6
      vertex 8.66876 8.36079 2.6
      vertex 6.94932 7.4492 2.6
    endloop
  endfacet
  facet normal 0.468408 -0.883512 0
    outer loop
      vertex 6.94932 7.4492 1.6
      vertex 8.66876 8.36079 1.6
      vertex 6.94932 7.4492 2.6
    endloop
  endfacet
  facet normal 0.647387 -0.762162 0
    outer loop
      vertex 6.94932 7.4492 1.6
      vertex 6.94932 7.4492 2.6
      vertex 5.46604 6.18929 2.6
    endloop
  endfacet
  facet normal 0.647387 -0.762162 0
    outer loop
      vertex 5.46604 6.18929 1.6
      vertex 6.94932 7.4492 1.6
      vertex 5.46604 6.18929 2.6
    endloop
  endfacet
  facet normal 0.796093 -0.605175 0
    outer loop
      vertex 5.46604 6.18929 1.6
      vertex 5.46604 6.18929 2.6
      vertex 4.28829 4.63998 2.6
    endloop
  endfacet
  facet normal 0.796093 -0.605175 0
    outer loop
      vertex 4.28829 4.63998 1.6
      vertex 5.46604 6.18929 1.6
      vertex 4.28829 4.63998 2.6
    endloop
  endfacet
  facet normal 0.907575 -0.419889 0
    outer loop
      vertex 4.28829 4.63998 1.6
      vertex 4.28829 4.63998 2.6
      vertex 3.47112 2.87371 2.6
    endloop
  endfacet
  facet normal 0.907575 -0.419889 0
    outer loop
      vertex 3.47112 2.87371 1.6
      vertex 4.28829 4.63998 1.6
      vertex 3.47112 2.87371 2.6
    endloop
  endfacet
  facet normal 0.951057 0.309017 0
    outer loop
      vertex 2.21852 -2.07912 1.6
      vertex 2.86454 -4.06737 1.6
      vertex 2.86454 -4.06737 -1.6
    endloop
  endfacet
  facet normal 0.951057 0.309017 0
    outer loop
      vertex 2.21852 -2.07912 -1.6
      vertex 2.21852 -2.07912 1.6
      vertex 2.86454 -4.06737 -1.6
    endloop
  endfacet
  facet normal 0.951057 -0.309017 0
    outer loop
      vertex 2.86454 4.06737 -1.6
      vertex 2.86454 4.06737 1.6
      vertex 2.21852 2.07912 1.6
    endloop
  endfacet
  facet normal 0.951057 -0.309017 0
    outer loop
      vertex 2.21852 2.07912 -1.6
      vertex 2.86454 4.06737 -1.6
      vertex 2.21852 2.07912 1.6
    endloop
  endfacet
  facet normal 0.866025 -0.5 0
    outer loop
      vertex 3.90983 5.87785 -1.6
      vertex 3.90983 5.87785 1.6
      vertex 2.86454 4.06737 1.6
    endloop
  endfacet
  facet normal 0.866025 -0.5 0
    outer loop
      vertex 2.86454 4.06737 -1.6
      vertex 3.90983 5.87785 -1.6
      vertex 2.86454 4.06737 1.6
    endloop
  endfacet
  facet normal 0.743145 -0.669131 0
    outer loop
      vertex 5.30869 7.43145 -1.6
      vertex 5.30869 7.43145 1.6
      vertex 3.90983 5.87785 1.6
    endloop
  endfacet
  facet normal 0.743145 -0.669131 0
    outer loop
      vertex 3.90983 5.87785 -1.6
      vertex 5.30869 7.43145 -1.6
      vertex 3.90983 5.87785 1.6
    endloop
  endfacet
  facet normal 0.587785 -0.809017 0
    outer loop
      vertex 7 8.66025 -1.6
      vertex 7 8.66025 1.6
      vertex 5.30869 7.43145 1.6
    endloop
  endfacet
  facet normal 0.587785 -0.809017 0
    outer loop
      vertex 5.30869 7.43145 -1.6
      vertex 7 8.66025 -1.6
      vertex 5.30869 7.43145 1.6
    endloop
  endfacet
  facet normal 0.406737 -0.913545 0
    outer loop
      vertex 8.90983 9.51056 -1.6
      vertex 8.90983 9.51056 1.6
      vertex 7 8.66025 1.6
    endloop
  endfacet
  facet normal 0.406737 -0.913545 0
    outer loop
      vertex 7 8.66025 -1.6
      vertex 8.90983 9.51056 -1.6
      vertex 7 8.66025 1.6
    endloop
  endfacet
  facet normal 0.207912 -0.978148 0
    outer loop
      vertex 10.9547 9.94522 -1.6
      vertex 10.9547 9.94522 1.6
      vertex 8.90983 9.51056 1.6
    endloop
  endfacet
  facet normal 0.207912 -0.978148 0
    outer loop
      vertex 8.90983 9.51056 -1.6
      vertex 10.9547 9.94522 -1.6
      vertex 8.90983 9.51056 1.6
    endloop
  endfacet
  facet normal 0 -1 0
    outer loop
      vertex 13.0453 9.94522 -1.6
      vertex 13.0453 9.94522 1.6
      vertex 10.9547 9.94522 1.6
    endloop
  endfacet
  facet normal 0 -1 0
    outer loop
      vertex 10.9547 9.94522 -1.6
      vertex 13.0453 9.94522 -1.6
      vertex 10.9547 9.94522 1.6
    endloop
  endfacet
  facet normal -0.207912 -0.978148 0
    outer loop
      vertex 14.5 9.63601 -1.6
      vertex 14.5 9.63601 1.6
      vertex 13.0453 9.94522 1.6
    endloop
  endfacet
  facet normal -0.207912 -0.978148 0
    outer loop
      vertex 13.0453 9.94522 -1.6
      vertex 14.5 9.63601 -1.6
      vertex 13.0453 9.94522 1.6
    endloop
  endfacet
  facet normal 0.207912 -0.978148 0
    outer loop
      vertex 15.9547 9.94522 -1.6
      vertex 15.9547 9.94522 1.6
      vertex 14.5 9.63601 1.6
    endloop
  endfacet
  facet normal 0.207912 -0.978148 0
    outer loop
      vertex 14.5 9.63601 -1.6
      vertex 15.9547 9.94522 -1.6
      vertex 14.5 9.63601 1.6
    endloop
  endfacet
  facet normal 0 -1 0
    outer loop
      vertex 17 9.94522 -1.6
      vertex 17 9.94522 1.6
      vertex 15.9547 9.94522 1.6
    endloop
  endfacet
  facet normal 0 -1 0
    outer loop
      vertex 15.9547 9.94522 -1.6
      vertex 17 9.94522 -1.6
      vertex 15.9547 9.94522 1.6
    endloop
  endfacet
  facet normal 1 0 0
    outer loop
      vertex 17 10 -1.6
      vertex 17 10 1.6
      vertex 17 9.94522 1.6
    endloop
  endfacet
  facet normal 1 0 0
    outer loop
      vertex 17 9.94522 -1.6
      vertex 17 10 -1.6
      vertex 17 9.94522 1.6
    endloop
  endfacet
  facet normal 1 0 0
    outer loop
      vertex 17 -9.94522 -1.6
      vertex 17 -9.94522 1.6
      vertex 17 -10 1.6
    endloop
  endfacet
  facet normal 1 0 0
    outer loop
      vertex 17 -10 -1.6
      vertex 17 -9.94522 -1.6
      vertex 17 -10 1.6
    endloop
  endfacet
  facet normal 0 1 0
    outer loop
      vertex 17 -9.94522 1.6
      vertex 17 -9.94522 -1.6
      vertex 15.9547 -9.94522 1.6
    endloop
  endfacet
  facet normal 0 1 0
    outer loop
      vertex 15.9547 -9.94522 1.6
      vertex 17 -9.94522 -1.6
      vertex 15.9547 -9.94522 -1.6
    endloop
  endfacet
  facet normal 0.207912 0.978148 0
    outer loop
      vertex 15.9547 -9.94522 1.6
      vertex 15.9547 -9.94522 -1.6
      vertex 14.5 -9.63601 1.6
    endloop
  endfacet
  facet normal 0.207912 0.978148 0
    outer loop
      vertex 14.5 -9.63601 1.6
      vertex 15.9547 -9.94522 -1.6
      vertex 14.5 -9.63601 -1.6
    endloop
  endfacet
  facet normal -0.207912 0.978148 0
    outer loop
      vertex 14.5 -9.63601 1.6
      vertex 14.5 -9.63601 -1.6
      vertex 13.0453 -9.94522 1.6
    endloop
  endfacet
  facet normal -0.207912 0.978148 0
    outer loop
      vertex 13.0453 -9.94522 1.6
      vertex 14.5 -9.63601 -1.6
      vertex 13.0453 -9.94522 -1.6
    endloop
  endfacet
  facet normal 0 1 0
    outer loop
      vertex 13.0453 -9.94522 1.6
      vertex 13.0453 -9.94522 -1.6
      vertex 10.9547 -9.94522 1.6
    endloop
  endfacet
  facet normal 0 1 0
    outer loop
      vertex 10.9547 -9.94522 1.6
      vertex 13.0453 -9.94522 -1.6
      vertex 10.9547 -9.94522 -1.6
    endloop
  endfacet
  facet normal 0.207912 0.978148 0
    outer loop
      vertex 10.9547 -9.94522 1.6
      vertex 10.9547 -9.94522 -1.6
      vertex 8.90983 -9.51056 1.6
    endloop
  endfacet
  facet normal 0.207912 0.978148 0
    outer loop
      vertex 8.90983 -9.51056 1.6
      vertex 10.9547 -9.94522 -1.6
      vertex 8.90983 -9.51056 -1.6
    endloop
  endfacet
  facet normal 0.406737 0.913545 0
    outer loop
      vertex 8.90983 -9.51056 1.6
      vertex 8.90983 -9.51056 -1.6
      vertex 7 -8.66025 1.6
    endloop
  endfacet
  facet normal 0.406737 0.913545 0
    outer loop
      vertex 7 -8.66025 1.6
      vertex 8.90983 -9.51056 -1.6
      vertex 7 -8.66025 -1.6
    endloop
  endfacet
  facet normal 0.587785 0.809017 0
    outer loop
      vertex 7 -8.66025 1.6
      vertex 7 -8.66025 -1.6
      vertex 5.30869 -7.43145 1.6
    endloop
  endfacet
  facet normal 0.587785 0.809017 0
    outer loop
      vertex 5.30869 -7.43145 1.6
      vertex 7 -8.66025 -1.6
      vertex 5.30869 -7.43145 -1.6
    endloop
  endfacet
  facet normal 0.743145 0.669131 0
    outer loop
      vertex 3.90983 -5.87785 1.6
      vertex 5.30869 -7.43145 1.6
      vertex 5.30869 -7.43145 -1.6
    endloop
  endfacet
  facet normal 0.743145 0.669131 0
    outer loop
      vertex 3.90983 -5.87785 -1.6
      vertex 3.90983 -5.87785 1.6
      vertex 5.30869 -7.43145 -1.6
    endloop
  endfacet
  facet normal 0.866025 0.5 0
    outer loop
      vertex 2.86454 -4.06737 1.6
      vertex 3.90983 -5.87785 1.6
      vertex 3.90983 -5.87785 -1.6
    endloop
  endfacet
  facet normal 0.866025 0.5 0
    outer loop
      vertex 2.86454 -4.06737 -1.6
      vertex 2.86454 -4.06737 1.6
      vertex 3.90983 -5.87785 -1.6
    endloop
  endfacet
endsolid OpenSCAD_Model
