solid Default
  facet normal 6.177084e-01 -7.864074e-01 -0.000000e+00
    outer loop
      vertex -3.229491e+01 -3.294382e+01 2.500000e+01
      vertex -3.303141e+01 -3.352233e+01 0.000000e+00
      vertex -3.229491e+01 -3.294382e+01 0.000000e+00
    endloop
  endfacet
  facet normal 6.177084e-01 -7.864074e-01 0.000000e+00
    outer loop
      vertex -3.303141e+01 -3.352233e+01 0.000000e+00
      vertex -3.229491e+01 -3.294382e+01 2.500000e+01
      vertex -3.303141e+01 -3.352233e+01 2.500000e+01
    endloop
  endfacet
  facet normal 8.006623e-01 -5.991160e-01 0.000000e+00
    outer loop
      vertex -3.173395e+01 -3.219414e+01 2.500000e+01
      vertex -3.229491e+01 -3.294382e+01 0.000000e+00
      vertex -3.173395e+01 -3.219414e+01 0.000000e+00
    endloop
  endfacet
  facet normal 8.006623e-01 -5.991160e-01 0.000000e+00
    outer loop
      vertex -3.229491e+01 -3.294382e+01 0.000000e+00
      vertex -3.173395e+01 -3.219414e+01 2.500000e+01
      vertex -3.229491e+01 -3.294382e+01 2.500000e+01
    endloop
  endfacet
  facet normal 3.942668e-01 -9.189960e-01 -0.000000e+00
    outer loop
      vertex -3.303141e+01 -3.352233e+01 2.500000e+01
      vertex -3.389194e+01 -3.389151e+01 0.000000e+00
      vertex -3.303141e+01 -3.352233e+01 0.000000e+00
    endloop
  endfacet
  facet normal 3.942668e-01 -9.189960e-01 0.000000e+00
    outer loop
      vertex -3.389194e+01 -3.389151e+01 0.000000e+00
      vertex -3.303141e+01 -3.352233e+01 2.500000e+01
      vertex -3.389194e+01 -3.389151e+01 2.500000e+01
    endloop
  endfacet
  facet normal 1.422725e-01 -9.898275e-01 -0.000000e+00
    outer loop
      vertex -3.389194e+01 -3.389151e+01 2.500000e+01
      vertex -3.482029e+01 -3.402495e+01 0.000000e+00
      vertex -3.389194e+01 -3.389151e+01 0.000000e+00
    endloop
  endfacet
  facet normal 1.422725e-01 -9.898275e-01 0.000000e+00
    outer loop
      vertex -3.482029e+01 -3.402495e+01 0.000000e+00
      vertex -3.389194e+01 -3.389151e+01 2.500000e+01
      vertex -3.482029e+01 -3.402495e+01 2.500000e+01
    endloop
  endfacet
  facet normal -1.183406e-01 -9.929731e-01 0.000000e+00
    outer loop
      vertex -3.575043e+01 -3.391409e+01 2.500000e+01
      vertex -3.482029e+01 -3.402495e+01 0.000000e+00
      vertex -3.482029e+01 -3.402495e+01 2.500000e+01
    endloop
  endfacet
  facet normal -1.183406e-01 -9.929731e-01 0.000000e+00
    outer loop
      vertex -3.482029e+01 -3.402495e+01 0.000000e+00
      vertex -3.575043e+01 -3.391409e+01 2.500000e+01
      vertex -3.575043e+01 -3.391409e+01 0.000000e+00
    endloop
  endfacet
  facet normal -3.704167e-01 -9.288657e-01 0.000000e+00
    outer loop
      vertex -3.662061e+01 -3.356708e+01 2.500000e+01
      vertex -3.575043e+01 -3.391409e+01 0.000000e+00
      vertex -3.575043e+01 -3.391409e+01 2.500000e+01
    endloop
  endfacet
  facet normal -3.704167e-01 -9.288657e-01 0.000000e+00
    outer loop
      vertex -3.575043e+01 -3.391409e+01 0.000000e+00
      vertex -3.662061e+01 -3.356708e+01 2.500000e+01
      vertex -3.662061e+01 -3.356708e+01 0.000000e+00
    endloop
  endfacet
  facet normal -5.991160e-01 -8.006623e-01 0.000000e+00
    outer loop
      vertex -3.737029e+01 -3.300612e+01 2.500000e+01
      vertex -3.662061e+01 -3.356708e+01 0.000000e+00
      vertex -3.662061e+01 -3.356708e+01 2.500000e+01
    endloop
  endfacet
  facet normal -5.991160e-01 -8.006623e-01 0.000000e+00
    outer loop
      vertex -3.662061e+01 -3.356708e+01 0.000000e+00
      vertex -3.737029e+01 -3.300612e+01 2.500000e+01
      vertex -3.737029e+01 -3.300612e+01 0.000000e+00
    endloop
  endfacet
  facet normal -7.864073e-01 -6.177083e-01 0.000000e+00
    outer loop
      vertex -3.794880e+01 -3.226961e+01 2.500000e+01
      vertex -3.737029e+01 -3.300612e+01 0.000000e+00
      vertex -3.737029e+01 -3.300612e+01 2.500000e+01
    endloop
  endfacet
  facet normal -7.864073e-01 -6.177083e-01 0.000000e+00
    outer loop
      vertex -3.737029e+01 -3.300612e+01 0.000000e+00
      vertex -3.794880e+01 -3.226961e+01 2.500000e+01
      vertex -3.794880e+01 -3.226961e+01 0.000000e+00
    endloop
  endfacet
  facet normal -9.189960e-01 -3.942668e-01 0.000000e+00
    outer loop
      vertex -3.831798e+01 -3.140908e+01 2.500000e+01
      vertex -3.794880e+01 -3.226961e+01 0.000000e+00
      vertex -3.794880e+01 -3.226961e+01 2.500000e+01
    endloop
  endfacet
  facet normal -9.189960e-01 -3.942668e-01 0.000000e+00
    outer loop
      vertex -3.794880e+01 -3.226961e+01 0.000000e+00
      vertex -3.831798e+01 -3.140908e+01 2.500000e+01
      vertex -3.831798e+01 -3.140908e+01 0.000000e+00
    endloop
  endfacet
  facet normal -9.898275e-01 -1.422724e-01 0.000000e+00
    outer loop
      vertex -3.845142e+01 -3.048074e+01 2.500000e+01
      vertex -3.831798e+01 -3.140908e+01 0.000000e+00
      vertex -3.831798e+01 -3.140908e+01 2.500000e+01
    endloop
  endfacet
  facet normal -9.898275e-01 -1.422724e-01 0.000000e+00
    outer loop
      vertex -3.831798e+01 -3.140908e+01 0.000000e+00
      vertex -3.845142e+01 -3.048074e+01 2.500000e+01
      vertex -3.845142e+01 -3.048074e+01 0.000000e+00
    endloop
  endfacet
  facet normal -9.929731e-01 1.183407e-01 0.000000e+00
    outer loop
      vertex -3.845142e+01 -3.048074e+01 2.500000e+01
      vertex -3.834057e+01 -2.955059e+01 0.000000e+00
      vertex -3.845142e+01 -3.048074e+01 0.000000e+00
    endloop
  endfacet
  facet normal -9.929731e-01 1.183407e-01 0.000000e+00
    outer loop
      vertex -3.834057e+01 -2.955059e+01 0.000000e+00
      vertex -3.845142e+01 -3.048074e+01 2.500000e+01
      vertex -3.834057e+01 -2.955059e+01 2.500000e+01
    endloop
  endfacet
  facet normal -9.281661e-01 3.721662e-01 0.000000e+00
    outer loop
      vertex -3.834057e+01 -2.955059e+01 2.500000e+01
      vertex -3.799226e+01 -2.868194e+01 0.000000e+00
      vertex -3.834057e+01 -2.955059e+01 0.000000e+00
    endloop
  endfacet
  facet normal -9.281661e-01 3.721662e-01 0.000000e+00
    outer loop
      vertex -3.799226e+01 -2.868194e+01 0.000000e+00
      vertex -3.834057e+01 -2.955059e+01 2.500000e+01
      vertex -3.799226e+01 -2.868194e+01 2.500000e+01
    endloop
  endfacet
  facet normal -8.306881e-01 5.567380e-01 0.000000e+00
    outer loop
      vertex -3.799226e+01 -2.868194e+01 2.500000e+01
      vertex -3.005625e+01 -1.684091e+01 6.250000e+00
      vertex -3.799226e+01 -2.868194e+01 0.000000e+00
    endloop
  endfacet
  facet normal -8.306773e-01 5.567542e-01 4.424238e-05
    outer loop
      vertex -2.211870e+01 -4.998586e+00 2.500000e+01
      vertex -3.005625e+01 -1.684091e+01 1.875200e+01
      vertex -3.799226e+01 -2.868194e+01 2.500000e+01
    endloop
  endfacet
  facet normal 1.278622e-01 9.917920e-01 0.000000e+00
    outer loop
      vertex 3.595376e+01 3.110992e+01 2.000000e-03
      vertex 1.334267e+01 3.402495e+01 2.000000e-03
      vertex 2.464821e+01 3.256743e+01 1.250000e+01
    endloop
  endfacet
  facet normal 1.278622e-01 9.917920e-01 0.000000e+00
    outer loop
      vertex 1.334267e+01 3.402495e+01 2.500000e+01
      vertex 2.464821e+01 3.256743e+01 1.250000e+01
      vertex 1.334267e+01 3.402495e+01 2.000000e-03
    endloop
  endfacet
  facet normal 2.556826e-01 9.667608e-01 0.000000e+00
    outer loop
      vertex 3.595376e+01 3.110992e+01 2.000000e-03
      vertex 3.668383e+01 3.091683e+01 2.500000e+01
      vertex 3.668383e+01 3.091683e+01 2.000000e-03
    endloop
  endfacet
  facet normal 2.556826e-01 9.667608e-01 0.000000e+00
    outer loop
      vertex 3.668383e+01 3.091683e+01 2.500000e+01
      vertex 3.595376e+01 3.110992e+01 2.000000e-03
      vertex 3.595376e+01 3.110992e+01 2.500000e+01
    endloop
  endfacet
  facet normal 4.980433e-01 8.671521e-01 0.000000e+00
    outer loop
      vertex 3.668383e+01 3.091683e+01 2.000000e-03
      vertex 3.733726e+01 3.054154e+01 2.500000e+01
      vertex 3.733726e+01 3.054154e+01 2.000000e-03
    endloop
  endfacet
  facet normal 4.980433e-01 8.671521e-01 0.000000e+00
    outer loop
      vertex 3.733726e+01 3.054154e+01 2.500000e+01
      vertex 3.668383e+01 3.091683e+01 2.000000e-03
      vertex 3.668383e+01 3.091683e+01 2.500000e+01
    endloop
  endfacet
  facet normal 7.055949e-01 7.086155e-01 0.000000e+00
    outer loop
      vertex 3.733726e+01 3.054154e+01 2.000000e-03
      vertex 3.787219e+01 3.000889e+01 2.500000e+01
      vertex 3.787219e+01 3.000889e+01 2.000000e-03
    endloop
  endfacet
  facet normal 7.055949e-01 7.086155e-01 0.000000e+00
    outer loop
      vertex 3.787219e+01 3.000889e+01 2.500000e+01
      vertex 3.733726e+01 3.054154e+01 2.000000e-03
      vertex 3.733726e+01 3.054154e+01 2.500000e+01
    endloop
  endfacet
  facet normal 8.643103e-01 5.029588e-01 0.000000e+00
    outer loop
      vertex 3.787219e+01 3.000889e+01 2.000000e-03
      vertex 3.825206e+01 2.935610e+01 2.500000e+01
      vertex 3.825206e+01 2.935610e+01 2.000000e-03
    endloop
  endfacet
  facet normal 8.643103e-01 5.029588e-01 0.000000e+00
    outer loop
      vertex 3.825206e+01 2.935610e+01 2.500000e+01
      vertex 3.787219e+01 3.000889e+01 2.000000e-03
      vertex 3.787219e+01 3.000889e+01 2.500000e+01
    endloop
  endfacet
  facet normal 9.648488e-01 2.628054e-01 0.000000e+00
    outer loop
      vertex 3.825206e+01 2.935610e+01 2.000000e-03
      vertex 3.845077e+01 2.862656e+01 2.500000e+01
      vertex 3.845077e+01 2.862656e+01 2.000000e-03
    endloop
  endfacet
  facet normal 9.648488e-01 2.628054e-01 0.000000e+00
    outer loop
      vertex 3.845077e+01 2.862656e+01 2.500000e+01
      vertex 3.825206e+01 2.935610e+01 2.000000e-03
      vertex 3.825206e+01 2.935610e+01 2.500000e+01
    endloop
  endfacet
  facet normal 9.999996e-01 8.535259e-04 0.000000e+00
    outer loop
      vertex 3.845077e+01 2.862656e+01 2.000000e-03
      vertex 3.845142e+01 2.787139e+01 2.500000e+01
      vertex 3.845142e+01 2.787139e+01 2.000000e-03
    endloop
  endfacet
  facet normal 9.999996e-01 8.535259e-04 0.000000e+00
    outer loop
      vertex 3.845142e+01 2.787139e+01 2.500000e+01
      vertex 3.845077e+01 2.862656e+01 2.000000e-03
      vertex 3.845077e+01 2.862656e+01 2.500000e+01
    endloop
  endfacet
  facet normal 9.667621e-01 -2.556778e-01 0.000000e+00
    outer loop
      vertex 3.845142e+01 2.787139e+01 2.500000e+01
      vertex 3.825834e+01 2.714132e+01 2.000000e-03
      vertex 3.845142e+01 2.787139e+01 2.000000e-03
    endloop
  endfacet
  facet normal 9.667621e-01 -2.556778e-01 0.000000e+00
    outer loop
      vertex 3.825834e+01 2.714132e+01 2.000000e-03
      vertex 3.845142e+01 2.787139e+01 2.500000e+01
      vertex 3.825834e+01 2.714132e+01 2.500000e+01
    endloop
  endfacet
  facet normal 8.671501e-01 -4.980470e-01 0.000000e+00
    outer loop
      vertex 3.825834e+01 2.714132e+01 2.500000e+01
      vertex 3.788304e+01 2.648789e+01 2.000000e-03
      vertex 3.825834e+01 2.714132e+01 2.000000e-03
    endloop
  endfacet
  facet normal 8.671501e-01 -4.980470e-01 0.000000e+00
    outer loop
      vertex 3.788304e+01 2.648789e+01 2.000000e-03
      vertex 3.825834e+01 2.714132e+01 2.500000e+01
      vertex 3.788304e+01 2.648789e+01 2.500000e+01
    endloop
  endfacet
  facet normal 7.086203e-01 -7.055900e-01 0.000000e+00
    outer loop
      vertex 3.788304e+01 2.648789e+01 2.500000e+01
      vertex 3.735039e+01 2.595295e+01 2.000000e-03
      vertex 3.788304e+01 2.648789e+01 2.000000e-03
    endloop
  endfacet
  facet normal 7.086203e-01 -7.055900e-01 0.000000e+00
    outer loop
      vertex 3.735039e+01 2.595295e+01 2.000000e-03
      vertex 3.788304e+01 2.648789e+01 2.500000e+01
      vertex 3.735039e+01 2.595295e+01 2.500000e+01
    endloop
  endfacet
  facet normal 5.029548e-01 -8.643126e-01 -0.000000e+00
    outer loop
      vertex 3.735039e+01 2.595295e+01 2.500000e+01
      vertex 3.669760e+01 2.557309e+01 2.000000e-03
      vertex 3.735039e+01 2.595295e+01 2.000000e-03
    endloop
  endfacet
  facet normal 5.029548e-01 -8.643126e-01 0.000000e+00
    outer loop
      vertex 3.669760e+01 2.557309e+01 2.000000e-03
      vertex 3.735039e+01 2.595295e+01 2.500000e+01
      vertex 3.669760e+01 2.557309e+01 2.500000e+01
    endloop
  endfacet
  facet normal 2.617292e-01 -9.651414e-01 -0.000000e+00
    outer loop
      vertex 3.669760e+01 2.557309e+01 2.500000e+01
      vertex 3.596959e+01 2.537566e+01 2.000000e-03
      vertex 3.669760e+01 2.557309e+01 2.000000e-03
    endloop
  endfacet
  facet normal 2.617292e-01 -9.651414e-01 0.000000e+00
    outer loop
      vertex 3.596959e+01 2.537566e+01 2.000000e-03
      vertex 3.669760e+01 2.557309e+01 2.500000e+01
      vertex 3.596959e+01 2.537566e+01 2.500000e+01
    endloop
  endfacet
  facet normal 2.555967e-03 -9.999967e-01 -0.000000e+00
    outer loop
      vertex 3.596959e+01 2.537566e+01 2.500000e+01
      vertex 3.521289e+01 2.537373e+01 2.000000e-03
      vertex 3.596959e+01 2.537566e+01 2.000000e-03
    endloop
  endfacet
  facet normal 2.555967e-03 -9.999967e-01 0.000000e+00
    outer loop
      vertex 3.521289e+01 2.537373e+01 2.000000e-03
      vertex 3.596959e+01 2.537566e+01 2.500000e+01
      vertex 3.521289e+01 2.537373e+01 2.500000e+01
    endloop
  endfacet
  facet normal 0.000000e+00 0.000000e+00 -1.000000e+00
    outer loop
      vertex -3.794880e+01 -3.226961e+01 0.000000e+00
      vertex -3.662061e+01 -3.356708e+01 0.000000e+00
      vertex -3.737029e+01 -3.300612e+01 0.000000e+00
    endloop
  endfacet
  facet normal 0.000000e+00 0.000000e+00 -1.000000e+00
    outer loop
      vertex -3.662061e+01 -3.356708e+01 0.000000e+00
      vertex -3.794880e+01 -3.226961e+01 0.000000e+00
      vertex -3.831798e+01 -3.140908e+01 0.000000e+00
    endloop
  endfacet
  facet normal 0.000000e+00 0.000000e+00 -1.000000e+00
    outer loop
      vertex -3.662061e+01 -3.356708e+01 0.000000e+00
      vertex -3.831798e+01 -3.140908e+01 0.000000e+00
      vertex -3.575043e+01 -3.391409e+01 0.000000e+00
    endloop
  endfacet
  facet normal 0.000000e+00 0.000000e+00 -1.000000e+00
    outer loop
      vertex -3.575043e+01 -3.391409e+01 0.000000e+00
      vertex -3.831798e+01 -3.140908e+01 0.000000e+00
      vertex -3.845142e+01 -3.048074e+01 0.000000e+00
    endloop
  endfacet
  facet normal 0.000000e+00 0.000000e+00 -1.000000e+00
    outer loop
      vertex -3.575043e+01 -3.391409e+01 0.000000e+00
      vertex -3.845142e+01 -3.048074e+01 0.000000e+00
      vertex -3.482029e+01 -3.402495e+01 0.000000e+00
    endloop
  endfacet
  facet normal 0.000000e+00 0.000000e+00 -1.000000e+00
    outer loop
      vertex -3.482029e+01 -3.402495e+01 0.000000e+00
      vertex -3.845142e+01 -3.048074e+01 0.000000e+00
      vertex -3.834057e+01 -2.955059e+01 0.000000e+00
    endloop
  endfacet
  facet normal 0.000000e+00 0.000000e+00 -1.000000e+00
    outer loop
      vertex -3.482029e+01 -3.402495e+01 0.000000e+00
      vertex -3.834057e+01 -2.955059e+01 0.000000e+00
      vertex -3.389194e+01 -3.389151e+01 0.000000e+00
    endloop
  endfacet
  facet normal 0.000000e+00 0.000000e+00 -1.000000e+00
    outer loop
      vertex -3.389194e+01 -3.389151e+01 0.000000e+00
      vertex -3.834057e+01 -2.955059e+01 0.000000e+00
      vertex -3.799226e+01 -2.868194e+01 0.000000e+00
    endloop
  endfacet
  facet normal 0.000000e+00 0.000000e+00 -1.000000e+00
    outer loop
      vertex -3.389194e+01 -3.389151e+01 0.000000e+00
      vertex -3.799226e+01 -2.868194e+01 0.000000e+00
      vertex -3.303141e+01 -3.352233e+01 0.000000e+00
    endloop
  endfacet
  facet normal 0.000000e+00 0.000000e+00 -1.000000e+00
    outer loop
      vertex -1.963764e+01 -7.419547e+00 0.000000e+00
      vertex -2.211870e+01 -4.998586e+00 0.000000e+00
      vertex -6.243855e+00 1.868324e+01 0.000000e+00
    endloop
  endfacet
  facet normal 0.000000e+00 0.000000e+00 -1.000000e+00
    outer loop
      vertex -1.963764e+01 -7.419547e+00 0.000000e+00
      vertex -6.243855e+00 1.868324e+01 0.000000e+00
      vertex -1.926938e+01 -7.130291e+00 0.000000e+00
    endloop
  endfacet
  facet normal 0.000000e+00 0.000000e+00 -1.000000e+00
    outer loop
      vertex -1.926938e+01 -7.130291e+00 0.000000e+00
      vertex -6.243855e+00 1.868324e+01 0.000000e+00
      vertex -1.898890e+01 -6.755452e+00 0.000000e+00
    endloop
  endfacet
  facet normal -0.000000e+00 0.000000e+00 -1.000000e+00
    outer loop
      vertex -1.031997e+00 1.271282e+01 0.000000e+00
      vertex -1.898890e+01 -6.755452e+00 0.000000e+00
      vertex -6.243855e+00 1.868324e+01 0.000000e+00
    endloop
  endfacet
  facet normal 6.064462e-05 5.293952e-05 -1.000000e+00
    outer loop
      vertex -1.031997e+00 1.271282e+01 0.000000e+00
      vertex -6.243855e+00 1.868324e+01 0.000000e+00
      vertex 1.334267e+01 3.402495e+01 2.000000e-03
    endloop
  endfacet
  facet normal -3.774415e-05 1.193011e-04 -1.000000e+00
    outer loop
      vertex -1.031997e+00 1.271282e+01 0.000000e+00
      vertex 1.334267e+01 3.402495e+01 2.000000e-03
      vertex 9.170915e-01 1.332946e+01 0.000000e+00
    endloop
  endfacet
  facet normal -4.791188e-05 1.254058e-04 -1.000000e+00
    outer loop
      vertex 9.170915e-01 1.332946e+01 0.000000e+00
      vertex 1.334267e+01 3.402495e+01 2.000000e-03
      vertex 2.826152e+00 1.405883e+01 0.000000e+00
    endloop
  endfacet
  facet normal -5.900783e-05 1.312502e-04 -1.000000e+00
    outer loop
      vertex 2.826152e+00 1.405883e+01 0.000000e+00
      vertex 1.334267e+01 3.402495e+01 2.000000e-03
      vertex 4.690593e+00 1.489705e+01 0.000000e+00
    endloop
  endfacet
  facet normal 1.372965e-03 -5.164710e-04 -9.999989e-01
    outer loop
      vertex 4.690593e+00 1.489705e+01 0.000000e+00
      vertex 1.334267e+01 3.402495e+01 2.000000e-03
      vertex 6.503252e+00 1.584332e+01 2.000000e-03
    endloop
  endfacet
  facet normal -1.471377e-03 5.534909e-04 -9.999987e-01
    outer loop
      vertex 6.503252e+00 1.584332e+01 2.000000e-03
      vertex 1.334267e+01 3.402495e+01 2.000000e-03
      vertex 8.258246e+00 1.689530e+01 0.000000e+00
    endloop
  endfacet
  facet normal -9.971736e-05 1.463548e-04 -1.000000e+00
    outer loop
      vertex 8.258246e+00 1.689530e+01 0.000000e+00
      vertex 1.334267e+01 3.402495e+01 2.000000e-03
      vertex 9.947930e+00 1.804655e+01 0.000000e+00
    endloop
  endfacet
  facet normal 1.360924e-03 -1.639703e-04 -9.999990e-01
    outer loop
      vertex 9.947930e+00 1.804655e+01 0.000000e+00
      vertex 1.334267e+01 3.402495e+01 2.000000e-03
      vertex 1.156772e+01 1.929321e+01 2.000000e-03
    endloop
  endfacet
  facet normal -1.446555e-03 1.742876e-04 -9.999989e-01
    outer loop
      vertex 1.156772e+01 1.929321e+01 2.000000e-03
      vertex 1.334267e+01 3.402495e+01 2.000000e-03
      vertex 1.311173e+01 2.063294e+01 0.000000e+00
    endloop
  endfacet
  facet normal -1.482972e-04 1.519001e-04 -1.000000e+00
    outer loop
      vertex 1.311173e+01 2.063294e+01 0.000000e+00
      vertex 1.334267e+01 3.402495e+01 2.000000e-03
      vertex 1.457538e+01 2.206187e+01 0.000000e+00
    endloop
  endfacet
  facet normal -1.647411e-04 1.502057e-04 -1.000000e+00
    outer loop
      vertex 1.457538e+01 2.206187e+01 0.000000e+00
      vertex 1.334267e+01 3.402495e+01 2.000000e-03
      vertex 1.595229e+01 2.357203e+01 0.000000e+00
    endloop
  endfacet
  facet normal -1.805419e-04 1.462609e-04 -1.000000e+00
    outer loop
      vertex 1.595229e+01 2.357203e+01 0.000000e+00
      vertex 1.334267e+01 3.402495e+01 2.000000e-03
      vertex 1.723943e+01 2.516085e+01 0.000000e+00
    endloop
  endfacet
  facet normal -1.949018e-04 1.399481e-04 -1.000000e+00
    outer loop
      vertex 1.723943e+01 2.516085e+01 0.000000e+00
      vertex 1.334267e+01 3.402495e+01 2.000000e-03
      vertex 1.843195e+01 2.682164e+01 0.000000e+00
    endloop
  endfacet
  facet normal 1.524317e-04 3.853462e-04 -9.999999e-01
    outer loop
      vertex 1.843195e+01 2.682164e+01 0.000000e+00
      vertex 1.334267e+01 3.402495e+01 2.000000e-03
      vertex 3.521289e+01 2.537373e+01 2.000000e-03
    endloop
  endfacet
  facet normal 0.000000e+00 0.000000e+00 -1.000000e+00
    outer loop
      vertex 3.521289e+01 2.537373e+01 2.000000e-03
      vertex 1.334267e+01 3.402495e+01 2.000000e-03
      vertex 3.595376e+01 3.110992e+01 2.000000e-03
    endloop
  endfacet
  facet normal 0.000000e+00 0.000000e+00 -1.000000e+00
    outer loop
      vertex 3.521289e+01 2.537373e+01 2.000000e-03
      vertex 3.595376e+01 3.110992e+01 2.000000e-03
      vertex 3.596959e+01 2.537566e+01 2.000000e-03
    endloop
  endfacet
  facet normal 0.000000e+00 0.000000e+00 -1.000000e+00
    outer loop
      vertex 3.596959e+01 2.537566e+01 2.000000e-03
      vertex 3.595376e+01 3.110992e+01 2.000000e-03
      vertex 3.669760e+01 2.557309e+01 2.000000e-03
    endloop
  endfacet
  facet normal 0.000000e+00 0.000000e+00 -1.000000e+00
    outer loop
      vertex 3.669760e+01 2.557309e+01 2.000000e-03
      vertex 3.595376e+01 3.110992e+01 2.000000e-03
      vertex 3.735039e+01 2.595295e+01 2.000000e-03
    endloop
  endfacet
  facet normal 0.000000e+00 0.000000e+00 -1.000000e+00
    outer loop
      vertex 3.735039e+01 2.595295e+01 2.000000e-03
      vertex 3.595376e+01 3.110992e+01 2.000000e-03
      vertex 3.788304e+01 2.648789e+01 2.000000e-03
    endloop
  endfacet
  facet normal 0.000000e+00 0.000000e+00 -1.000000e+00
    outer loop
      vertex 3.788304e+01 2.648789e+01 2.000000e-03
      vertex 3.595376e+01 3.110992e+01 2.000000e-03
      vertex 3.825834e+01 2.714132e+01 2.000000e-03
    endloop
  endfacet
  facet normal 0.000000e+00 0.000000e+00 -1.000000e+00
    outer loop
      vertex 3.825834e+01 2.714132e+01 2.000000e-03
      vertex 3.595376e+01 3.110992e+01 2.000000e-03
      vertex 3.845142e+01 2.787139e+01 2.000000e-03
    endloop
  endfacet
  facet normal 0.000000e+00 0.000000e+00 -1.000000e+00
    outer loop
      vertex 3.845142e+01 2.787139e+01 2.000000e-03
      vertex 3.595376e+01 3.110992e+01 2.000000e-03
      vertex 3.845077e+01 2.862656e+01 2.000000e-03
    endloop
  endfacet
  facet normal 0.000000e+00 0.000000e+00 -1.000000e+00
    outer loop
      vertex 3.845077e+01 2.862656e+01 2.000000e-03
      vertex 3.595376e+01 3.110992e+01 2.000000e-03
      vertex 3.668383e+01 3.091683e+01 2.000000e-03
    endloop
  endfacet
  facet normal 0.000000e+00 0.000000e+00 -1.000000e+00
    outer loop
      vertex 3.845077e+01 2.862656e+01 2.000000e-03
      vertex 3.668383e+01 3.091683e+01 2.000000e-03
      vertex 3.825206e+01 2.935610e+01 2.000000e-03
    endloop
  endfacet
  facet normal 0.000000e+00 0.000000e+00 -1.000000e+00
    outer loop
      vertex 3.825206e+01 2.935610e+01 2.000000e-03
      vertex 3.668383e+01 3.091683e+01 2.000000e-03
      vertex 3.733726e+01 3.054154e+01 2.000000e-03
    endloop
  endfacet
  facet normal 0.000000e+00 0.000000e+00 -1.000000e+00
    outer loop
      vertex 3.825206e+01 2.935610e+01 2.000000e-03
      vertex 3.733726e+01 3.054154e+01 2.000000e-03
      vertex 3.787219e+01 3.000889e+01 2.000000e-03
    endloop
  endfacet
  facet normal 3.563490e-01 -9.343529e-01 -0.000000e+00
    outer loop
      vertex 9.170915e-01 1.332946e+01 2.500000e+01
      vertex 9.170915e-01 1.332946e+01 1.558200e+01
      vertex 1.257502e+00 1.345929e+01 1.603600e+01
    endloop
  endfacet
  facet normal 3.573086e-01 -9.339864e-01 4.175070e-05
    outer loop
      vertex 9.170915e-01 1.332946e+01 2.500000e+01
      vertex 1.257502e+00 1.345929e+01 1.603600e+01
      vertex 2.270044e+00 1.384669e+01 1.683200e+01
    endloop
  endfacet
  facet normal 3.564655e-01 -9.343085e-01 -1.182950e-04
    outer loop
      vertex 9.170915e-01 1.332946e+01 2.500000e+01
      vertex 2.270044e+00 1.384669e+01 1.683200e+01
      vertex 2.826152e+00 1.405883e+01 1.706800e+01
    endloop
  endfacet
  facet normal 3.568945e-01 -9.341447e-01 0.000000e+00
    outer loop
      vertex 2.826152e+00 1.405883e+01 1.706800e+01
      vertex 2.826152e+00 1.405883e+01 2.500000e+01
      vertex 9.170915e-01 1.332946e+01 2.500000e+01
    endloop
  endfacet
  facet normal 3.028995e-01 -9.530226e-01 -0.000000e+00
    outer loop
      vertex -1.031997e+00 1.271282e+01 2.500000e+01
      vertex -1.031997e+00 1.271282e+01 0.000000e+00
      vertex -2.192879e-01 1.297112e+01 1.250000e+01
    endloop
  endfacet
  facet normal 3.016409e-01 -9.534216e-01 9.006869e-05
    outer loop
      vertex -2.192879e-01 1.297112e+01 1.250000e+01
      vertex -1.031997e+00 1.271282e+01 0.000000e+00
      vertex 9.170915e-01 1.332946e+01 0.000000e+00
    endloop
  endfacet
  facet normal 2.999717e-01 -9.539481e-01 -7.678857e-05
    outer loop
      vertex -2.192879e-01 1.297112e+01 1.250000e+01
      vertex 9.170915e-01 1.332946e+01 0.000000e+00
      vertex -4.569990e-02 1.302581e+01 1.120600e+01
    endloop
  endfacet
  facet normal 3.024943e-01 -9.531512e-01 1.615453e-04
    outer loop
      vertex -4.569990e-02 1.302581e+01 1.120600e+01
      vertex 9.170915e-01 1.332946e+01 0.000000e+00
      vertex 4.620230e-01 1.318674e+01 1.000200e+01
    endloop
  endfacet
  facet normal 2.992633e-01 -9.541705e-01 0.000000e+00
    outer loop
      vertex 4.620230e-01 1.318674e+01 1.000200e+01
      vertex 9.170915e-01 1.332946e+01 0.000000e+00
      vertex 9.170915e-01 1.332946e+01 9.420000e+00
    endloop
  endfacet
  facet normal 3.012796e-01 -9.535359e-01 -1.159231e-04
    outer loop
      vertex -1.031997e+00 1.271282e+01 2.500000e+01
      vertex -2.192879e-01 1.297112e+01 1.250000e+01
      vertex -4.569990e-02 1.302581e+01 1.379600e+01
    endloop
  endfacet
  facet normal 3.022032e-01 -9.532435e-01 -2.645037e-05
    outer loop
      vertex -1.031997e+00 1.271282e+01 2.500000e+01
      vertex -4.569990e-02 1.302581e+01 1.379600e+01
      vertex 4.620230e-01 1.318674e+01 1.500000e+01
    endloop
  endfacet
  facet normal 2.997613e-01 -9.540141e-01 -4.277834e-04
    outer loop
      vertex -1.031997e+00 1.271282e+01 2.500000e+01
      vertex 4.620230e-01 1.318674e+01 1.500000e+01
      vertex 9.170915e-01 1.332946e+01 1.558200e+01
    endloop
  endfacet
  facet normal 3.016410e-01 -9.534217e-01 0.000000e+00
    outer loop
      vertex 9.170915e-01 1.332946e+01 1.558200e+01
      vertex 9.170915e-01 1.332946e+01 2.500000e+01
      vertex -1.031997e+00 1.271282e+01 2.500000e+01
    endloop
  endfacet
  facet normal 0.000000e+00 0.000000e+00 1.000000e+00
    outer loop
      vertex -3.662061e+01 -3.356708e+01 2.500000e+01
      vertex -3.794880e+01 -3.226961e+01 2.500000e+01
      vertex -3.737029e+01 -3.300612e+01 2.500000e+01
    endloop
  endfacet
  facet normal 0.000000e+00 0.000000e+00 1.000000e+00
    outer loop
      vertex -3.794880e+01 -3.226961e+01 2.500000e+01
      vertex -3.662061e+01 -3.356708e+01 2.500000e+01
      vertex -3.831798e+01 -3.140908e+01 2.500000e+01
    endloop
  endfacet
  facet normal 0.000000e+00 0.000000e+00 1.000000e+00
    outer loop
      vertex -3.831798e+01 -3.140908e+01 2.500000e+01
      vertex -3.662061e+01 -3.356708e+01 2.500000e+01
      vertex -3.575043e+01 -3.391409e+01 2.500000e+01
    endloop
  endfacet
  facet normal 0.000000e+00 0.000000e+00 1.000000e+00
    outer loop
      vertex -3.831798e+01 -3.140908e+01 2.500000e+01
      vertex -3.575043e+01 -3.391409e+01 2.500000e+01
      vertex -3.845142e+01 -3.048074e+01 2.500000e+01
    endloop
  endfacet
  facet normal 0.000000e+00 0.000000e+00 1.000000e+00
    outer loop
      vertex -3.845142e+01 -3.048074e+01 2.500000e+01
      vertex -3.575043e+01 -3.391409e+01 2.500000e+01
      vertex -3.482029e+01 -3.402495e+01 2.500000e+01
    endloop
  endfacet
  facet normal 0.000000e+00 0.000000e+00 1.000000e+00
    outer loop
      vertex -3.845142e+01 -3.048074e+01 2.500000e+01
      vertex -3.482029e+01 -3.402495e+01 2.500000e+01
      vertex -3.834057e+01 -2.955059e+01 2.500000e+01
    endloop
  endfacet
  facet normal 0.000000e+00 0.000000e+00 1.000000e+00
    outer loop
      vertex -3.834057e+01 -2.955059e+01 2.500000e+01
      vertex -3.482029e+01 -3.402495e+01 2.500000e+01
      vertex -3.389194e+01 -3.389151e+01 2.500000e+01
    endloop
  endfacet
  facet normal 0.000000e+00 0.000000e+00 1.000000e+00
    outer loop
      vertex -3.834057e+01 -2.955059e+01 2.500000e+01
      vertex -3.389194e+01 -3.389151e+01 2.500000e+01
      vertex -3.799226e+01 -2.868194e+01 2.500000e+01
    endloop
  endfacet
  facet normal 0.000000e+00 0.000000e+00 1.000000e+00
    outer loop
      vertex -3.799226e+01 -2.868194e+01 2.500000e+01
      vertex -3.389194e+01 -3.389151e+01 2.500000e+01
      vertex -3.303141e+01 -3.352233e+01 2.500000e+01
    endloop
  endfacet
  facet normal 0.000000e+00 0.000000e+00 1.000000e+00
    outer loop
      vertex -3.799226e+01 -2.868194e+01 2.500000e+01
      vertex -3.303141e+01 -3.352233e+01 2.500000e+01
      vertex -1.963764e+01 -7.419547e+00 2.500000e+01
    endloop
  endfacet
  facet normal 0.000000e+00 0.000000e+00 1.000000e+00
    outer loop
      vertex -3.229491e+01 -3.294382e+01 2.500000e+01
      vertex -1.963764e+01 -7.419547e+00 2.500000e+01
      vertex -3.303141e+01 -3.352233e+01 2.500000e+01
    endloop
  endfacet
  facet normal 0.000000e+00 0.000000e+00 1.000000e+00
    outer loop
      vertex -3.173395e+01 -3.219414e+01 2.500000e+01
      vertex -1.926938e+01 -7.130291e+00 2.500000e+01
      vertex -3.229491e+01 -3.294382e+01 2.500000e+01
    endloop
  endfacet
  facet normal 0.000000e+00 0.000000e+00 1.000000e+00
    outer loop
      vertex -1.898890e+01 -6.755452e+00 2.500000e+01
      vertex -3.173395e+01 -3.219414e+01 2.500000e+01
      vertex -1.638297e+01 -9.740663e+00 2.500000e+01
    endloop
  endfacet
  facet normal 0.000000e+00 0.000000e+00 1.000000e+00
    outer loop
      vertex -6.243855e+00 1.868324e+01 2.500000e+01
      vertex -1.031997e+00 1.271282e+01 2.500000e+01
      vertex 1.334267e+01 3.402495e+01 2.500000e+01
    endloop
  endfacet
  facet normal 0.000000e+00 0.000000e+00 1.000000e+00
    outer loop
      vertex 1.334267e+01 3.402495e+01 2.500000e+01
      vertex -1.031997e+00 1.271282e+01 2.500000e+01
      vertex 9.170915e-01 1.332946e+01 2.500000e+01
    endloop
  endfacet
  facet normal 0.000000e+00 0.000000e+00 1.000000e+00
    outer loop
      vertex 1.334267e+01 3.402495e+01 2.500000e+01
      vertex 9.170915e-01 1.332946e+01 2.500000e+01
      vertex 2.826152e+00 1.405883e+01 2.500000e+01
    endloop
  endfacet
  facet normal 0.000000e+00 0.000000e+00 1.000000e+00
    outer loop
      vertex 1.334267e+01 3.402495e+01 2.500000e+01
      vertex 2.826152e+00 1.405883e+01 2.500000e+01
      vertex 4.690593e+00 1.489705e+01 2.500000e+01
    endloop
  endfacet
  facet normal 0.000000e+00 0.000000e+00 1.000000e+00
    outer loop
      vertex 1.334267e+01 3.402495e+01 2.500000e+01
      vertex 4.690593e+00 1.489705e+01 2.500000e+01
      vertex 6.503252e+00 1.584332e+01 2.500000e+01
    endloop
  endfacet
  facet normal 0.000000e+00 0.000000e+00 1.000000e+00
    outer loop
      vertex 1.334267e+01 3.402495e+01 2.500000e+01
      vertex 6.503252e+00 1.584332e+01 2.500000e+01
      vertex 8.258246e+00 1.689530e+01 2.500000e+01
    endloop
  endfacet
  facet normal 0.000000e+00 0.000000e+00 1.000000e+00
    outer loop
      vertex 1.334267e+01 3.402495e+01 2.500000e+01
      vertex 8.258246e+00 1.689530e+01 2.500000e+01
      vertex 9.947930e+00 1.804655e+01 2.500000e+01
    endloop
  endfacet
  facet normal 0.000000e+00 0.000000e+00 1.000000e+00
    outer loop
      vertex 1.334267e+01 3.402495e+01 2.500000e+01
      vertex 9.947930e+00 1.804655e+01 2.500000e+01
      vertex 1.156772e+01 1.929321e+01 2.500000e+01
    endloop
  endfacet
  facet normal 0.000000e+00 0.000000e+00 1.000000e+00
    outer loop
      vertex 1.334267e+01 3.402495e+01 2.500000e+01
      vertex 1.156772e+01 1.929321e+01 2.500000e+01
      vertex 1.311173e+01 2.063294e+01 2.500000e+01
    endloop
  endfacet
  facet normal 0.000000e+00 0.000000e+00 1.000000e+00
    outer loop
      vertex 1.334267e+01 3.402495e+01 2.500000e+01
      vertex 1.311173e+01 2.063294e+01 2.500000e+01
      vertex 1.457538e+01 2.206187e+01 2.500000e+01
    endloop
  endfacet
  facet normal 0.000000e+00 0.000000e+00 1.000000e+00
    outer loop
      vertex 1.334267e+01 3.402495e+01 2.500000e+01
      vertex 1.457538e+01 2.206187e+01 2.500000e+01
      vertex 1.595229e+01 2.357203e+01 2.500000e+01
    endloop
  endfacet
  facet normal 0.000000e+00 0.000000e+00 1.000000e+00
    outer loop
      vertex 1.334267e+01 3.402495e+01 2.500000e+01
      vertex 1.595229e+01 2.357203e+01 2.500000e+01
      vertex 1.723943e+01 2.516085e+01 2.500000e+01
    endloop
  endfacet
  facet normal 0.000000e+00 0.000000e+00 1.000000e+00
    outer loop
      vertex 1.334267e+01 3.402495e+01 2.500000e+01
      vertex 1.723943e+01 2.516085e+01 2.500000e+01
      vertex 1.843195e+01 2.682164e+01 2.500000e+01
    endloop
  endfacet
  facet normal 0.000000e+00 0.000000e+00 1.000000e+00
    outer loop
      vertex 1.334267e+01 3.402495e+01 2.500000e+01
      vertex 1.843195e+01 2.682164e+01 2.500000e+01
      vertex 3.521289e+01 2.537373e+01 2.500000e+01
    endloop
  endfacet
  facet normal 0.000000e+00 0.000000e+00 1.000000e+00
    outer loop
      vertex 1.334267e+01 3.402495e+01 2.500000e+01
      vertex 3.521289e+01 2.537373e+01 2.500000e+01
      vertex 3.595376e+01 3.110992e+01 2.500000e+01
    endloop
  endfacet
  facet normal 0.000000e+00 0.000000e+00 1.000000e+00
    outer loop
      vertex 3.595376e+01 3.110992e+01 2.500000e+01
      vertex 3.521289e+01 2.537373e+01 2.500000e+01
      vertex 3.596959e+01 2.537566e+01 2.500000e+01
    endloop
  endfacet
  facet normal 0.000000e+00 0.000000e+00 1.000000e+00
    outer loop
      vertex 3.595376e+01 3.110992e+01 2.500000e+01
      vertex 3.596959e+01 2.537566e+01 2.500000e+01
      vertex 3.669760e+01 2.557309e+01 2.500000e+01
    endloop
  endfacet
  facet normal 0.000000e+00 0.000000e+00 1.000000e+00
    outer loop
      vertex 3.595376e+01 3.110992e+01 2.500000e+01
      vertex 3.669760e+01 2.557309e+01 2.500000e+01
      vertex 3.735039e+01 2.595295e+01 2.500000e+01
    endloop
  endfacet
  facet normal 0.000000e+00 0.000000e+00 1.000000e+00
    outer loop
      vertex 3.595376e+01 3.110992e+01 2.500000e+01
      vertex 3.735039e+01 2.595295e+01 2.500000e+01
      vertex 3.788304e+01 2.648789e+01 2.500000e+01
    endloop
  endfacet
  facet normal 0.000000e+00 0.000000e+00 1.000000e+00
    outer loop
      vertex 3.595376e+01 3.110992e+01 2.500000e+01
      vertex 3.788304e+01 2.648789e+01 2.500000e+01
      vertex 3.825834e+01 2.714132e+01 2.500000e+01
    endloop
  endfacet
  facet normal 0.000000e+00 0.000000e+00 1.000000e+00
    outer loop
      vertex 3.595376e+01 3.110992e+01 2.500000e+01
      vertex 3.825834e+01 2.714132e+01 2.500000e+01
      vertex 3.845142e+01 2.787139e+01 2.500000e+01
    endloop
  endfacet
  facet normal 0.000000e+00 0.000000e+00 1.000000e+00
    outer loop
      vertex 3.595376e+01 3.110992e+01 2.500000e+01
      vertex 3.845142e+01 2.787139e+01 2.500000e+01
      vertex 3.845077e+01 2.862656e+01 2.500000e+01
    endloop
  endfacet
  facet normal 0.000000e+00 0.000000e+00 1.000000e+00
    outer loop
      vertex 3.595376e+01 3.110992e+01 2.500000e+01
      vertex 3.845077e+01 2.862656e+01 2.500000e+01
      vertex 3.668383e+01 3.091683e+01 2.500000e+01
    endloop
  endfacet
  facet normal 0.000000e+00 0.000000e+00 1.000000e+00
    outer loop
      vertex 3.668383e+01 3.091683e+01 2.500000e+01
      vertex 3.845077e+01 2.862656e+01 2.500000e+01
      vertex 3.825206e+01 2.935610e+01 2.500000e+01
    endloop
  endfacet
  facet normal 0.000000e+00 0.000000e+00 1.000000e+00
    outer loop
      vertex 3.668383e+01 3.091683e+01 2.500000e+01
      vertex 3.825206e+01 2.935610e+01 2.500000e+01
      vertex 3.733726e+01 3.054154e+01 2.500000e+01
    endloop
  endfacet
  facet normal 0.000000e+00 0.000000e+00 1.000000e+00
    outer loop
      vertex 3.733726e+01 3.054154e+01 2.500000e+01
      vertex 3.825206e+01 2.935610e+01 2.500000e+01
      vertex 3.787219e+01 3.000889e+01 2.500000e+01
    endloop
  endfacet
  facet normal 4.003991e-01 -9.163408e-01 -0.000000e+00
    outer loop
      vertex 4.690593e+00 1.489705e+01 2.500000e+01
      vertex 4.638984e+00 1.487450e+01 1.750200e+01
      vertex 4.690593e+00 1.489705e+01 1.750200e+01
    endloop
  endfacet
  facet normal 4.093122e-01 -9.123943e-01 -0.000000e+00
    outer loop
      vertex 2.826152e+00 1.405883e+01 2.500000e+01
      vertex 2.826152e+00 1.405883e+01 1.706800e+01
      vertex 3.423959e+00 1.432701e+01 1.733000e+01
    endloop
  endfacet
  facet normal 4.108002e-01 -9.117254e-01 1.393635e-04
    outer loop
      vertex 2.826152e+00 1.405883e+01 2.500000e+01
      vertex 3.423959e+00 1.432701e+01 1.733000e+01
      vertex 4.638984e+00 1.487450e+01 1.750200e+01
    endloop
  endfacet
  facet normal 4.100482e-01 -9.120640e-01 -7.927883e-05
    outer loop
      vertex 4.638984e+00 1.487450e+01 1.750200e+01
      vertex 4.690593e+00 1.489705e+01 2.500000e+01
      vertex 2.826152e+00 1.405883e+01 2.500000e+01
    endloop
  endfacet
  facet normal 4.627714e-01 -8.864777e-01 -0.000000e+00
    outer loop
      vertex 4.690593e+00 1.489705e+01 2.500000e+01
      vertex 4.690593e+00 1.489705e+01 1.750200e+01
      vertex 6.503252e+00 1.584332e+01 1.750200e+01
    endloop
  endfacet
  facet normal 4.627714e-01 -8.864777e-01 0.000000e+00
    outer loop
      vertex 6.503252e+00 1.584332e+01 1.750200e+01
      vertex 6.503252e+00 1.584332e+01 2.500000e+01
      vertex 4.690593e+00 1.489705e+01 2.500000e+01
    endloop
  endfacet
  facet normal 5.141301e-01 -8.577123e-01 -0.000000e+00
    outer loop
      vertex 8.258246e+00 1.689530e+01 2.500000e+01
      vertex 6.503252e+00 1.584332e+01 1.750200e+01
      vertex 8.258246e+00 1.689530e+01 1.750200e+01
    endloop
  endfacet
  facet normal 5.141301e-01 -8.577123e-01 0.000000e+00
    outer loop
      vertex 6.503252e+00 1.584332e+01 1.750200e+01
      vertex 8.258246e+00 1.689530e+01 2.500000e+01
      vertex 6.503252e+00 1.584332e+01 2.500000e+01
    endloop
  endfacet
  facet normal 5.630670e-01 -8.264112e-01 -0.000000e+00
    outer loop
      vertex 9.947930e+00 1.804655e+01 2.500000e+01
      vertex 8.258246e+00 1.689530e+01 1.750200e+01
      vertex 9.947930e+00 1.804655e+01 1.750200e+01
    endloop
  endfacet
  facet normal 5.630670e-01 -8.264112e-01 0.000000e+00
    outer loop
      vertex 8.258246e+00 1.689530e+01 1.750200e+01
      vertex 9.947930e+00 1.804655e+01 2.500000e+01
      vertex 8.258246e+00 1.689530e+01 2.500000e+01
    endloop
  endfacet
  facet normal 7.378390e-01 -6.749767e-01 -2.248151e-04
    outer loop
      vertex 1.595229e+01 2.357203e+01 0.000000e+00
      vertex 1.558720e+01 2.317037e+01 7.672001e+00
      vertex 1.470089e+01 2.220158e+01 7.500000e+00
    endloop
  endfacet
  facet normal 7.399801e-01 -6.726288e-01 0.000000e+00
    outer loop
      vertex 1.595229e+01 2.357203e+01 0.000000e+00
      vertex 1.595229e+01 2.357203e+01 7.894000e+00
      vertex 1.558720e+01 2.317037e+01 7.672001e+00
    endloop
  endfacet
  facet normal 7.389547e-01 -6.737551e-01 0.000000e+00
    outer loop
      vertex 1.457538e+01 2.206187e+01 7.500000e+00
      vertex 1.457538e+01 2.206187e+01 0.000000e+00
      vertex 1.595229e+01 2.357203e+01 0.000000e+00
    endloop
  endfacet
  facet normal 7.438985e-01 -6.682896e-01 2.008151e-03
    outer loop
      vertex 1.595229e+01 2.357203e+01 0.000000e+00
      vertex 1.470089e+01 2.220158e+01 7.500000e+00
      vertex 1.457538e+01 2.206187e+01 7.500000e+00
    endloop
  endfacet
  facet normal 7.770175e-01 -6.294789e-01 0.000000e+00
    outer loop
      vertex 1.595229e+01 2.357203e+01 7.894000e+00
      vertex 1.595229e+01 2.357203e+01 0.000000e+00
      vertex 1.723943e+01 2.516085e+01 0.000000e+00
    endloop
  endfacet
  facet normal 7.770597e-01 -6.294270e-01 1.731948e-05
    outer loop
      vertex 1.723943e+01 2.516085e+01 0.000000e+00
      vertex 1.638558e+01 2.410695e+01 8.170000e+00
      vertex 1.595229e+01 2.357203e+01 7.894000e+00
    endloop
  endfacet
  facet normal 7.766587e-01 -6.299217e-01 -8.841730e-05
    outer loop
      vertex 1.723943e+01 2.516085e+01 0.000000e+00
      vertex 1.705523e+01 2.493248e+01 8.966001e+00
      vertex 1.638558e+01 2.410695e+01 8.170000e+00
    endloop
  endfacet
  facet normal 7.783578e-01 -6.278209e-01 0.000000e+00
    outer loop
      vertex 1.723943e+01 2.516085e+01 0.000000e+00
      vertex 1.723943e+01 2.516085e+01 9.340000e+00
      vertex 1.705523e+01 2.493248e+01 8.966001e+00
    endloop
  endfacet
  facet normal -8.596363e-02 -9.962983e-01 0.000000e+00
    outer loop
      vertex 1.843195e+01 2.682164e+01 2.500000e+01
      vertex 3.521289e+01 2.537373e+01 2.000000e-03
      vertex 3.521289e+01 2.537373e+01 2.500000e+01
    endloop
  endfacet
  facet normal -8.596363e-02 -9.962983e-01 0.000000e+00
    outer loop
      vertex 3.521289e+01 2.537373e+01 2.000000e-03
      vertex 1.843195e+01 2.682164e+01 2.500000e+01
      vertex 1.843195e+01 2.682164e+01 0.000000e+00
    endloop
  endfacet
  facet normal 8.255117e-01 -5.643850e-01 0.000000e+00
    outer loop
      vertex -1.031997e+00 1.271282e+01 0.000000e+00
      vertex -1.031997e+00 1.271282e+01 2.500000e+01
      vertex -1.638297e+01 -9.740663e+00 1.250000e+01
    endloop
  endfacet
  facet normal 8.255116e-01 -5.643851e-01 0.000000e+00
    outer loop
      vertex -1.638297e+01 -9.740663e+00 1.250000e+01
      vertex -1.638297e+01 -9.740663e+00 2.500000e+01
      vertex -3.173395e+01 -3.219414e+01 2.500000e+01
    endloop
  endfacet
  facet normal -7.804754e-01 -6.114433e-01 -1.303656e-01
    outer loop
      vertex 1.785183e+01 2.601399e+01 1.379600e+01
      vertex 1.224862e+01 3.316620e+01 1.379600e+01
      vertex 1.795633e+01 2.615692e+01 1.250000e+01
    endloop
  endfacet
  facet normal -7.804785e-01 -6.114880e-01 -1.301369e-01
    outer loop
      vertex 1.795633e+01 2.615692e+01 1.250000e+01
      vertex 1.224862e+01 3.316620e+01 1.379600e+01
      vertex 1.238250e+01 3.327112e+01 1.250000e+01
    endloop
  endfacet
  facet normal -7.804549e-01 -6.114271e-01 1.305637e-01
    outer loop
      vertex 1.224862e+01 3.316620e+01 1.120600e+01
      vertex 1.785183e+01 2.601399e+01 1.120600e+01
      vertex 1.795633e+01 2.615692e+01 1.250000e+01
    endloop
  endfacet
  facet normal -7.804581e-01 -6.114720e-01 1.303347e-01
    outer loop
      vertex 1.224862e+01 3.316620e+01 1.120600e+01
      vertex 1.795633e+01 2.615692e+01 1.250000e+01
      vertex 1.238250e+01 3.327112e+01 1.250000e+01
    endloop
  endfacet
  facet normal -7.269356e-01 -5.691411e-01 3.842436e-01
    outer loop
      vertex 1.185613e+01 3.285914e+01 1.000200e+01
      vertex 1.754728e+01 2.559012e+01 1.000200e+01
      vertex 1.785183e+01 2.601399e+01 1.120600e+01
    endloop
  endfacet
  facet normal -7.273545e-01 -5.698270e-01 3.824298e-01
    outer loop
      vertex 1.185613e+01 3.285914e+01 1.000200e+01
      vertex 1.785183e+01 2.601399e+01 1.120600e+01
      vertex 1.224862e+01 3.316620e+01 1.120600e+01
    endloop
  endfacet
  facet normal -6.255158e-01 -4.899125e-01 6.072196e-01
    outer loop
      vertex 1.123081e+01 3.236905e+01 8.966001e+00
      vertex 1.705523e+01 2.493248e+01 8.966001e+00
      vertex 1.723943e+01 2.516085e+01 9.340000e+00
    endloop
  endfacet
  facet normal -6.250417e-01 -4.894736e-01 6.080612e-01
    outer loop
      vertex 1.123081e+01 3.236905e+01 8.966001e+00
      vertex 1.723943e+01 2.516085e+01 9.340000e+00
      vertex 1.754728e+01 2.559012e+01 1.000200e+01
    endloop
  endfacet
  facet normal -6.248052e-01 -4.891799e-01 6.085406e-01
    outer loop
      vertex 1.123081e+01 3.236905e+01 8.966001e+00
      vertex 1.754728e+01 2.559012e+01 1.000200e+01
      vertex 1.185613e+01 3.285914e+01 1.000200e+01
    endloop
  endfacet
  facet normal -4.795730e-01 -3.756461e-01 7.930321e-01
    outer loop
      vertex 1.705523e+01 2.493248e+01 8.966001e+00
      vertex 1.041395e+01 3.173070e+01 8.170000e+00
      vertex 1.638558e+01 2.410695e+01 8.170000e+00
    endloop
  endfacet
  facet normal -4.794565e-01 -3.755169e-01 7.931637e-01
    outer loop
      vertex 1.041395e+01 3.173070e+01 8.170000e+00
      vertex 1.705523e+01 2.493248e+01 8.966001e+00
      vertex 1.123081e+01 3.236905e+01 8.966001e+00
    endloop
  endfacet
  facet normal -3.017142e-01 -2.362658e-01 9.236596e-01
    outer loop
      vertex 1.595229e+01 2.357203e+01 7.894000e+00
      vertex 9.466019e+00 3.098719e+01 7.672001e+00
      vertex 1.558720e+01 2.317037e+01 7.672001e+00
    endloop
  endfacet
  facet normal -3.008188e-01 -2.354677e-01 9.241552e-01
    outer loop
      vertex 9.466019e+00 3.098719e+01 7.672001e+00
      vertex 1.595229e+01 2.357203e+01 7.894000e+00
      vertex 1.041395e+01 3.173070e+01 8.170000e+00
    endloop
  endfacet
  facet normal -2.994860e-01 -2.345852e-01 9.248124e-01
    outer loop
      vertex 1.595229e+01 2.357203e+01 7.894000e+00
      vertex 1.638558e+01 2.410695e+01 8.170000e+00
      vertex 1.041395e+01 3.173070e+01 8.170000e+00
    endloop
  endfacet
  facet normal -1.036553e-01 -8.116534e-02 9.912960e-01
    outer loop
      vertex 1.558720e+01 2.317037e+01 7.672001e+00
      vertex 8.446681e+00 3.018875e+01 7.500000e+00
      vertex 1.470089e+01 2.220158e+01 7.500000e+00
    endloop
  endfacet
  facet normal -1.036758e-01 -8.118626e-02 9.912921e-01
    outer loop
      vertex 8.446681e+00 3.018875e+01 7.500000e+00
      vertex 1.558720e+01 2.317037e+01 7.672001e+00
      vertex 9.466019e+00 3.098719e+01 7.672001e+00
    endloop
  endfacet
  facet normal 0.000000e+00 0.000000e+00 1.000000e+00
    outer loop
      vertex 4.638984e+00 1.487450e+01 7.500000e+00
      vertex 4.690593e+00 1.489705e+01 7.500000e+00
      vertex -1.347869e+00 2.251943e+01 7.500000e+00
    endloop
  endfacet
  facet normal 0.000000e+00 0.000000e+00 1.000000e+00
    outer loop
      vertex 6.503252e+00 1.584332e+01 7.500000e+00
      vertex -1.347869e+00 2.251943e+01 7.500000e+00
      vertex 4.690593e+00 1.489705e+01 7.500000e+00
    endloop
  endfacet
  facet normal 0.000000e+00 0.000000e+00 1.000000e+00
    outer loop
      vertex -1.347869e+00 2.251943e+01 7.500000e+00
      vertex 6.503252e+00 1.584332e+01 7.500000e+00
      vertex 8.446681e+00 3.018875e+01 7.500000e+00
    endloop
  endfacet
  facet normal 0.000000e+00 0.000000e+00 1.000000e+00
    outer loop
      vertex 6.503252e+00 1.584332e+01 7.500000e+00
      vertex 8.258246e+00 1.689530e+01 7.500000e+00
      vertex 8.446681e+00 3.018875e+01 7.500000e+00
    endloop
  endfacet
  facet normal 0.000000e+00 0.000000e+00 1.000000e+00
    outer loop
      vertex 8.258246e+00 1.689530e+01 7.500000e+00
      vertex 9.947930e+00 1.804655e+01 7.500000e+00
      vertex 8.446681e+00 3.018875e+01 7.500000e+00
    endloop
  endfacet
  facet normal 0.000000e+00 0.000000e+00 1.000000e+00
    outer loop
      vertex 9.947930e+00 1.804655e+01 7.500000e+00
      vertex 1.156772e+01 1.929321e+01 7.500000e+00
      vertex 8.446681e+00 3.018875e+01 7.500000e+00
    endloop
  endfacet
  facet normal 0.000000e+00 0.000000e+00 1.000000e+00
    outer loop
      vertex 1.156772e+01 1.929321e+01 7.500000e+00
      vertex 1.311173e+01 2.063294e+01 7.500000e+00
      vertex 8.446681e+00 3.018875e+01 7.500000e+00
    endloop
  endfacet
  facet normal 0.000000e+00 0.000000e+00 1.000000e+00
    outer loop
      vertex 1.311173e+01 2.063294e+01 7.500000e+00
      vertex 1.457538e+01 2.206187e+01 7.500000e+00
      vertex 8.446681e+00 3.018875e+01 7.500000e+00
    endloop
  endfacet
  facet normal 0.000000e+00 0.000000e+00 1.000000e+00
    outer loop
      vertex 1.457538e+01 2.206187e+01 7.500000e+00
      vertex 1.470089e+01 2.220158e+01 7.500000e+00
      vertex 8.446681e+00 3.018875e+01 7.500000e+00
    endloop
  endfacet
  facet normal 1.037210e-01 8.123720e-02 -9.912832e-01
    outer loop
      vertex 4.638984e+00 1.487450e+01 1.750200e+01
      vertex 3.423959e+00 1.432701e+01 1.733000e+01
      vertex -2.367211e+00 2.172099e+01 1.733000e+01
    endloop
  endfacet
  facet normal 1.036728e-01 8.118768e-02 -9.912924e-01
    outer loop
      vertex -2.367211e+00 2.172099e+01 1.733000e+01
      vertex -1.347869e+00 2.251943e+01 1.750200e+01
      vertex 4.638984e+00 1.487450e+01 1.750200e+01
    endloop
  endfacet
  facet normal -1.036545e-01 -8.116467e-02 -9.912961e-01
    outer loop
      vertex 1.558720e+01 2.317037e+01 1.733000e+01
      vertex 1.470089e+01 2.220158e+01 1.750200e+01
      vertex 8.446681e+00 3.018875e+01 1.750200e+01
    endloop
  endfacet
  facet normal -1.036750e-01 -8.118559e-02 -9.912923e-01
    outer loop
      vertex 8.446681e+00 3.018875e+01 1.750200e+01
      vertex 9.466019e+00 3.098719e+01 1.733000e+01
      vertex 1.558720e+01 2.317037e+01 1.733000e+01
    endloop
  endfacet
  facet normal 0.000000e+00 0.000000e+00 -1.000000e+00
    outer loop
      vertex 4.638984e+00 1.487450e+01 1.750200e+01
      vertex -1.347869e+00 2.251943e+01 1.750200e+01
      vertex 4.690593e+00 1.489705e+01 1.750200e+01
    endloop
  endfacet
  facet normal 0.000000e+00 0.000000e+00 -1.000000e+00
    outer loop
      vertex 6.503252e+00 1.584332e+01 1.750200e+01
      vertex 4.690593e+00 1.489705e+01 1.750200e+01
      vertex -1.347869e+00 2.251943e+01 1.750200e+01
    endloop
  endfacet
  facet normal 0.000000e+00 0.000000e+00 -1.000000e+00
    outer loop
      vertex -1.347869e+00 2.251943e+01 1.750200e+01
      vertex 8.446681e+00 3.018875e+01 1.750200e+01
      vertex 6.503252e+00 1.584332e+01 1.750200e+01
    endloop
  endfacet
  facet normal 0.000000e+00 0.000000e+00 -1.000000e+00
    outer loop
      vertex 6.503252e+00 1.584332e+01 1.750200e+01
      vertex 8.446681e+00 3.018875e+01 1.750200e+01
      vertex 8.258246e+00 1.689530e+01 1.750200e+01
    endloop
  endfacet
  facet normal 0.000000e+00 0.000000e+00 -1.000000e+00
    outer loop
      vertex 8.258246e+00 1.689530e+01 1.750200e+01
      vertex 8.446681e+00 3.018875e+01 1.750200e+01
      vertex 9.947930e+00 1.804655e+01 1.750200e+01
    endloop
  endfacet
  facet normal 0.000000e+00 0.000000e+00 -1.000000e+00
    outer loop
      vertex 9.947930e+00 1.804655e+01 1.750200e+01
      vertex 8.446681e+00 3.018875e+01 1.750200e+01
      vertex 1.156772e+01 1.929321e+01 1.750200e+01
    endloop
  endfacet
  facet normal 0.000000e+00 0.000000e+00 -1.000000e+00
    outer loop
      vertex 1.156772e+01 1.929321e+01 1.750200e+01
      vertex 8.446681e+00 3.018875e+01 1.750200e+01
      vertex 1.311173e+01 2.063294e+01 1.750200e+01
    endloop
  endfacet
  facet normal 0.000000e+00 0.000000e+00 -1.000000e+00
    outer loop
      vertex 1.311173e+01 2.063294e+01 1.750200e+01
      vertex 8.446681e+00 3.018875e+01 1.750200e+01
      vertex 1.457538e+01 2.206187e+01 1.750200e+01
    endloop
  endfacet
  facet normal 0.000000e+00 0.000000e+00 -1.000000e+00
    outer loop
      vertex 1.457538e+01 2.206187e+01 1.750200e+01
      vertex 8.446681e+00 3.018875e+01 1.750200e+01
      vertex 1.470089e+01 2.220158e+01 1.750200e+01
    endloop
  endfacet
  facet normal -7.269356e-01 -5.691411e-01 -3.842436e-01
    outer loop
      vertex 1.754728e+01 2.559012e+01 1.500000e+01
      vertex 1.185613e+01 3.285914e+01 1.500000e+01
      vertex 1.785183e+01 2.601399e+01 1.379600e+01
    endloop
  endfacet
  facet normal -7.273545e-01 -5.698270e-01 -3.824298e-01
    outer loop
      vertex 1.785183e+01 2.601399e+01 1.379600e+01
      vertex 1.185613e+01 3.285914e+01 1.500000e+01
      vertex 1.224862e+01 3.316620e+01 1.379600e+01
    endloop
  endfacet
  facet normal -4.795727e-01 -3.756458e-01 -7.930323e-01
    outer loop
      vertex 1.705523e+01 2.493248e+01 1.603600e+01
      vertex 1.638558e+01 2.410695e+01 1.683200e+01
      vertex 1.041395e+01 3.173070e+01 1.683200e+01
    endloop
  endfacet
  facet normal -4.794561e-01 -3.755165e-01 -7.931640e-01
    outer loop
      vertex 1.041395e+01 3.173070e+01 1.683200e+01
      vertex 1.123081e+01 3.236905e+01 1.603600e+01
      vertex 1.705523e+01 2.493248e+01 1.603600e+01
    endloop
  endfacet
  facet normal 3.017876e-01 2.363748e-01 -9.236078e-01
    outer loop
      vertex 2.826152e+00 1.405883e+01 1.706800e+01
      vertex 2.270044e+00 1.384669e+01 1.683200e+01
      vertex -3.315137e+00 2.097748e+01 1.683200e+01
    endloop
  endfacet
  facet normal 3.008072e-01 2.354858e-01 -9.241545e-01
    outer loop
      vertex -3.315137e+00 2.097748e+01 1.683200e+01
      vertex -2.367211e+00 2.172099e+01 1.733000e+01
      vertex 2.826152e+00 1.405883e+01 1.706800e+01
    endloop
  endfacet
  facet normal 2.998684e-01 2.348653e-01 -9.246174e-01
    outer loop
      vertex 2.826152e+00 1.405883e+01 1.706800e+01
      vertex -2.367211e+00 2.172099e+01 1.733000e+01
      vertex 3.423959e+00 1.432701e+01 1.733000e+01
    endloop
  endfacet
  facet normal -6.255158e-01 -4.899125e-01 -6.072196e-01
    outer loop
      vertex 1.705523e+01 2.493248e+01 1.603600e+01
      vertex 1.123081e+01 3.236905e+01 1.603600e+01
      vertex 1.723943e+01 2.516085e+01 1.566200e+01
    endloop
  endfacet
  facet normal -6.250417e-01 -4.894736e-01 -6.080611e-01
    outer loop
      vertex 1.723943e+01 2.516085e+01 1.566200e+01
      vertex 1.123081e+01 3.236905e+01 1.603600e+01
      vertex 1.754728e+01 2.559012e+01 1.500000e+01
    endloop
  endfacet
  facet normal -6.248052e-01 -4.891799e-01 -6.085406e-01
    outer loop
      vertex 1.754728e+01 2.559012e+01 1.500000e+01
      vertex 1.123081e+01 3.236905e+01 1.603600e+01
      vertex 1.185613e+01 3.285914e+01 1.500000e+01
    endloop
  endfacet
  facet normal 3.568944e-01 -9.341447e-01 -0.000000e+00
    outer loop
      vertex 9.170915e-01 1.332946e+01 9.420000e+00
      vertex 9.170915e-01 1.332946e+01 0.000000e+00
      vertex 2.826152e+00 1.405883e+01 0.000000e+00
    endloop
  endfacet
  facet normal 3.561468e-01 -9.344300e-01 -1.736021e-04
    outer loop
      vertex 9.170915e-01 1.332946e+01 9.420000e+00
      vertex 2.826152e+00 1.405883e+01 0.000000e+00
      vertex 1.257502e+00 1.345929e+01 8.966001e+00
    endloop
  endfacet
  facet normal 3.573890e-01 -9.339556e-01 7.544178e-05
    outer loop
      vertex 1.257502e+00 1.345929e+01 8.966001e+00
      vertex 2.826152e+00 1.405883e+01 0.000000e+00
      vertex 2.270044e+00 1.384669e+01 8.170000e+00
    endloop
  endfacet
  facet normal 3.564216e-01 -9.343252e-01 0.000000e+00
    outer loop
      vertex 2.270044e+00 1.384669e+01 8.170000e+00
      vertex 2.826152e+00 1.405883e+01 0.000000e+00
      vertex 2.826152e+00 1.405883e+01 7.934000e+00
    endloop
  endfacet
  facet normal 4.100482e-01 -9.120638e-01 -0.000000e+00
    outer loop
      vertex 4.690593e+00 1.489705e+01 7.500000e+00
      vertex 2.826152e+00 1.405883e+01 0.000000e+00
      vertex 4.690593e+00 1.489705e+01 0.000000e+00
    endloop
  endfacet
  facet normal 4.003975e-01 -9.163371e-01 2.876581e-03
    outer loop
      vertex 2.826152e+00 1.405883e+01 0.000000e+00
      vertex 4.690593e+00 1.489705e+01 7.500000e+00
      vertex 4.638984e+00 1.487450e+01 7.500000e+00
    endloop
  endfacet
  facet normal 4.108002e-01 -9.117254e-01 -1.393290e-04
    outer loop
      vertex 3.423959e+00 1.432701e+01 7.672001e+00
      vertex 2.826152e+00 1.405883e+01 0.000000e+00
      vertex 4.638984e+00 1.487450e+01 7.500000e+00
    endloop
  endfacet
  facet normal 4.093122e-01 -9.123943e-01 -0.000000e+00
    outer loop
      vertex 2.826152e+00 1.405883e+01 7.934000e+00
      vertex 2.826152e+00 1.405883e+01 0.000000e+00
      vertex 3.423959e+00 1.432701e+01 7.672001e+00
    endloop
  endfacet
  facet normal -6.166354e-01 7.872490e-01 -1.294551e-04
    outer loop
      vertex -6.243855e+00 1.868324e+01 0.000000e+00
      vertex -2.367211e+00 2.172099e+01 7.672001e+00
      vertex 1.334267e+01 3.402495e+01 2.000000e-03
    endloop
  endfacet
  facet normal -6.170847e-01 7.868967e-01 2.370616e-04
    outer loop
      vertex -2.367211e+00 2.172099e+01 7.672001e+00
      vertex -6.243855e+00 1.868324e+01 0.000000e+00
      vertex -3.315137e+00 2.097748e+01 8.170000e+00
    endloop
  endfacet
  facet normal -6.159893e-01 7.877545e-01 -3.965001e-04
    outer loop
      vertex -3.315137e+00 2.097748e+01 8.170000e+00
      vertex -6.243855e+00 1.868324e+01 0.000000e+00
      vertex -4.131993e+00 2.033913e+01 8.966001e+00
    endloop
  endfacet
  facet normal -6.169103e-01 7.870334e-01 -4.639899e-05
    outer loop
      vertex -4.131993e+00 2.033913e+01 8.966001e+00
      vertex -6.243855e+00 1.868324e+01 0.000000e+00
      vertex -4.757318e+00 1.984904e+01 1.000200e+01
    endloop
  endfacet
  facet normal -6.164612e-01 7.873853e-01 -1.541677e-04
    outer loop
      vertex -4.757318e+00 1.984904e+01 1.000200e+01
      vertex -6.243855e+00 1.868324e+01 0.000000e+00
      vertex -5.149804e+00 1.954199e+01 1.120600e+01
    endloop
  endfacet
  facet normal -6.171339e-01 7.868582e-01 -4.809483e-05
    outer loop
      vertex -5.149804e+00 1.954199e+01 1.120600e+01
      vertex -6.243855e+00 1.868324e+01 0.000000e+00
      vertex -5.283693e+00 1.943706e+01 1.250000e+01
    endloop
  endfacet
  facet normal -6.175213e-01 7.865542e-01 0.000000e+00
    outer loop
      vertex -5.283693e+00 1.943706e+01 1.250000e+01
      vertex -6.243855e+00 1.868324e+01 0.000000e+00
      vertex -6.243855e+00 1.868324e+01 2.500000e+01
    endloop
  endfacet
  facet normal -6.166622e-01 7.872279e-01 -2.182029e-04
    outer loop
      vertex 1.334267e+01 3.402495e+01 2.000000e-03
      vertex -2.367211e+00 2.172099e+01 7.672001e+00
      vertex -1.347869e+00 2.251943e+01 7.500000e+00
    endloop
  endfacet
  facet normal -6.171341e-01 7.868580e-01 4.806340e-05
    outer loop
      vertex -5.283693e+00 1.943706e+01 1.250000e+01
      vertex -6.243855e+00 1.868324e+01 2.500000e+01
      vertex -5.149804e+00 1.954199e+01 1.379600e+01
    endloop
  endfacet
  facet normal -6.164612e-01 7.873853e-01 1.541889e-04
    outer loop
      vertex -5.149804e+00 1.954199e+01 1.379600e+01
      vertex -6.243855e+00 1.868324e+01 2.500000e+01
      vertex -4.757318e+00 1.984904e+01 1.500000e+01
    endloop
  endfacet
  facet normal -6.169103e-01 7.870334e-01 4.640643e-05
    outer loop
      vertex -4.757318e+00 1.984904e+01 1.500000e+01
      vertex -6.243855e+00 1.868324e+01 2.500000e+01
      vertex -4.131993e+00 2.033913e+01 1.603600e+01
    endloop
  endfacet
  facet normal -6.159893e-01 7.877544e-01 3.965715e-04
    outer loop
      vertex -4.131993e+00 2.033913e+01 1.603600e+01
      vertex -6.243855e+00 1.868324e+01 2.500000e+01
      vertex -3.315137e+00 2.097748e+01 1.683200e+01
    endloop
  endfacet
  facet normal -6.170847e-01 7.868968e-01 -2.371090e-04
    outer loop
      vertex -3.315137e+00 2.097748e+01 1.683200e+01
      vertex -6.243855e+00 1.868324e+01 2.500000e+01
      vertex -2.367211e+00 2.172099e+01 1.733000e+01
    endloop
  endfacet
  facet normal -6.166515e-01 7.872362e-01 1.162867e-04
    outer loop
      vertex -2.367211e+00 2.172099e+01 1.733000e+01
      vertex -6.243855e+00 1.868324e+01 2.500000e+01
      vertex -1.347869e+00 2.251943e+01 1.750200e+01
    endloop
  endfacet
  facet normal -6.165088e-01 7.873480e-01 2.666747e-04
    outer loop
      vertex -1.347869e+00 2.251943e+01 1.750200e+01
      vertex -6.243855e+00 1.868324e+01 2.500000e+01
      vertex 8.446681e+00 3.018875e+01 1.750200e+01
    endloop
  endfacet
  facet normal -6.175213e-01 7.865541e-01 0.000000e+00
    outer loop
      vertex 1.334267e+01 3.402495e+01 2.000000e-03
      vertex 1.238250e+01 3.327112e+01 1.250000e+01
      vertex 1.334267e+01 3.402495e+01 2.500000e+01
    endloop
  endfacet
  facet normal -6.171285e-01 7.868624e-01 4.877738e-05
    outer loop
      vertex 1.238250e+01 3.327112e+01 1.250000e+01
      vertex 1.334267e+01 3.402495e+01 2.000000e-03
      vertex 1.224862e+01 3.316620e+01 1.120600e+01
    endloop
  endfacet
  facet normal -6.164634e-01 7.873835e-01 1.536665e-04
    outer loop
      vertex 1.224862e+01 3.316620e+01 1.120600e+01
      vertex 1.334267e+01 3.402495e+01 2.000000e-03
      vertex 1.185613e+01 3.285914e+01 1.000200e+01
    endloop
  endfacet
  facet normal -6.169102e-01 7.870335e-01 4.644271e-05
    outer loop
      vertex 1.185613e+01 3.285914e+01 1.000200e+01
      vertex 1.334267e+01 3.402495e+01 2.000000e-03
      vertex 1.123081e+01 3.236905e+01 8.966001e+00
    endloop
  endfacet
  facet normal -6.159894e-01 7.877544e-01 3.965389e-04
    outer loop
      vertex 1.123081e+01 3.236905e+01 8.966001e+00
      vertex 1.334267e+01 3.402495e+01 2.000000e-03
      vertex 1.041395e+01 3.173070e+01 8.170000e+00
    endloop
  endfacet
  facet normal -6.170848e-01 7.868967e-01 -2.371378e-04
    outer loop
      vertex 1.041395e+01 3.173070e+01 8.170000e+00
      vertex 1.334267e+01 3.402495e+01 2.000000e-03
      vertex 9.466019e+00 3.098719e+01 7.672001e+00
    endloop
  endfacet
  facet normal -6.166515e-01 7.872363e-01 1.163795e-04
    outer loop
      vertex 9.466019e+00 3.098719e+01 7.672001e+00
      vertex 1.334267e+01 3.402495e+01 2.000000e-03
      vertex 8.446681e+00 3.018875e+01 7.500000e+00
    endloop
  endfacet
  facet normal -6.165088e-01 7.873480e-01 2.666927e-04
    outer loop
      vertex 8.446681e+00 3.018875e+01 7.500000e+00
      vertex 1.334267e+01 3.402495e+01 2.000000e-03
      vertex -1.347869e+00 2.251943e+01 7.500000e+00
    endloop
  endfacet
  facet normal -6.171287e-01 7.868622e-01 -4.874051e-05
    outer loop
      vertex 1.334267e+01 3.402495e+01 2.500000e+01
      vertex 1.238250e+01 3.327112e+01 1.250000e+01
      vertex 1.224862e+01 3.316620e+01 1.379600e+01
    endloop
  endfacet
  facet normal -6.164634e-01 7.873835e-01 -1.536660e-04
    outer loop
      vertex 1.334267e+01 3.402495e+01 2.500000e+01
      vertex 1.224862e+01 3.316620e+01 1.379600e+01
      vertex 1.185613e+01 3.285914e+01 1.500000e+01
    endloop
  endfacet
  facet normal -6.169102e-01 7.870335e-01 -4.644271e-05
    outer loop
      vertex 1.334267e+01 3.402495e+01 2.500000e+01
      vertex 1.185613e+01 3.285914e+01 1.500000e+01
      vertex 1.123081e+01 3.236905e+01 1.603600e+01
    endloop
  endfacet
  facet normal -6.159894e-01 7.877544e-01 -3.965384e-04
    outer loop
      vertex 1.334267e+01 3.402495e+01 2.500000e+01
      vertex 1.123081e+01 3.236905e+01 1.603600e+01
      vertex 1.041395e+01 3.173070e+01 1.683200e+01
    endloop
  endfacet
  facet normal -6.170848e-01 7.868967e-01 2.371389e-04
    outer loop
      vertex 1.334267e+01 3.402495e+01 2.500000e+01
      vertex 1.041395e+01 3.173070e+01 1.683200e+01
      vertex 9.466019e+00 3.098719e+01 1.733000e+01
    endloop
  endfacet
  facet normal -6.166515e-01 7.872363e-01 -1.163851e-04
    outer loop
      vertex 1.334267e+01 3.402495e+01 2.500000e+01
      vertex 9.466019e+00 3.098719e+01 1.733000e+01
      vertex 8.446681e+00 3.018875e+01 1.750200e+01
    endloop
  endfacet
  facet normal -6.166354e-01 7.872488e-01 -1.333522e-04
    outer loop
      vertex 1.334267e+01 3.402495e+01 2.500000e+01
      vertex 8.446681e+00 3.018875e+01 1.750200e+01
      vertex -6.243855e+00 1.868324e+01 2.500000e+01
    endloop
  endfacet
  facet normal 5.141301e-01 -8.577122e-01 0.000000e+00
    outer loop
      vertex 8.258246e+00 1.689530e+01 0.000000e+00
      vertex 8.258246e+00 1.689530e+01 7.500000e+00
      vertex 6.503252e+00 1.584332e+01 2.000000e-03
    endloop
  endfacet
  facet normal 5.141301e-01 -8.577123e-01 0.000000e+00
    outer loop
      vertex 6.503252e+00 1.584332e+01 2.000000e-03
      vertex 8.258246e+00 1.689530e+01 7.500000e+00
      vertex 6.503252e+00 1.584332e+01 7.500000e+00
    endloop
  endfacet
  facet normal 4.627714e-01 -8.864776e-01 -0.000000e+00
    outer loop
      vertex 4.690593e+00 1.489705e+01 7.500000e+00
      vertex 4.690593e+00 1.489705e+01 0.000000e+00
      vertex 6.503252e+00 1.584332e+01 2.000000e-03
    endloop
  endfacet
  facet normal 4.627714e-01 -8.864776e-01 0.000000e+00
    outer loop
      vertex 6.503252e+00 1.584332e+01 2.000000e-03
      vertex 6.503252e+00 1.584332e+01 7.500000e+00
      vertex 4.690593e+00 1.489705e+01 7.500000e+00
    endloop
  endfacet
  facet normal 6.099160e-01 -7.924662e-01 -0.000000e+00
    outer loop
      vertex 1.156772e+01 1.929321e+01 2.500000e+01
      vertex 9.947930e+00 1.804655e+01 1.750200e+01
      vertex 1.156772e+01 1.929321e+01 1.750200e+01
    endloop
  endfacet
  facet normal 6.099160e-01 -7.924662e-01 0.000000e+00
    outer loop
      vertex 9.947930e+00 1.804655e+01 1.750200e+01
      vertex 1.156772e+01 1.929321e+01 2.500000e+01
      vertex 9.947930e+00 1.804655e+01 2.500000e+01
    endloop
  endfacet
  facet normal 6.099160e-01 -7.924660e-01 -0.000000e+00
    outer loop
      vertex 9.947930e+00 1.804655e+01 7.500000e+00
      vertex 9.947930e+00 1.804655e+01 0.000000e+00
      vertex 1.156772e+01 1.929321e+01 2.000000e-03
    endloop
  endfacet
  facet normal 6.099160e-01 -7.924661e-01 0.000000e+00
    outer loop
      vertex 1.156772e+01 1.929321e+01 2.000000e-03
      vertex 1.156772e+01 1.929321e+01 7.500000e+00
      vertex 9.947930e+00 1.804655e+01 7.500000e+00
    endloop
  endfacet
  facet normal 5.630671e-01 -8.264112e-01 -0.000000e+00
    outer loop
      vertex 9.947930e+00 1.804655e+01 7.500000e+00
      vertex 8.258246e+00 1.689530e+01 0.000000e+00
      vertex 9.947930e+00 1.804655e+01 0.000000e+00
    endloop
  endfacet
  facet normal 5.630671e-01 -8.264112e-01 0.000000e+00
    outer loop
      vertex 8.258246e+00 1.689530e+01 0.000000e+00
      vertex 9.947930e+00 1.804655e+01 7.500000e+00
      vertex 8.258246e+00 1.689530e+01 7.500000e+00
    endloop
  endfacet
  facet normal 6.553727e-01 -7.553057e-01 0.000000e+00
    outer loop
      vertex 1.311173e+01 2.063294e+01 2.500000e+01
      vertex 1.156772e+01 1.929321e+01 1.750200e+01
      vertex 1.311173e+01 2.063294e+01 1.750200e+01
    endloop
  endfacet
  facet normal 6.553727e-01 -7.553057e-01 0.000000e+00
    outer loop
      vertex 1.156772e+01 1.929321e+01 1.750200e+01
      vertex 1.311173e+01 2.063294e+01 2.500000e+01
      vertex 1.156772e+01 1.929321e+01 2.500000e+01
    endloop
  endfacet
  facet normal 6.553727e-01 -7.553056e-01 0.000000e+00
    outer loop
      vertex 1.311173e+01 2.063294e+01 0.000000e+00
      vertex 1.311173e+01 2.063294e+01 7.500000e+00
      vertex 1.156772e+01 1.929321e+01 2.000000e-03
    endloop
  endfacet
  facet normal 6.553727e-01 -7.553057e-01 0.000000e+00
    outer loop
      vertex 1.156772e+01 1.929321e+01 2.000000e-03
      vertex 1.311173e+01 2.063294e+01 7.500000e+00
      vertex 1.156772e+01 1.929321e+01 7.500000e+00
    endloop
  endfacet
  facet normal 6.985701e-01 -7.155417e-01 0.000000e+00
    outer loop
      vertex 1.311173e+01 2.063294e+01 7.500000e+00
      vertex 1.311173e+01 2.063294e+01 0.000000e+00
      vertex 1.457538e+01 2.206187e+01 0.000000e+00
    endloop
  endfacet
  facet normal 6.985701e-01 -7.155417e-01 0.000000e+00
    outer loop
      vertex 1.457538e+01 2.206187e+01 0.000000e+00
      vertex 1.457538e+01 2.206187e+01 7.500000e+00
      vertex 1.311173e+01 2.063294e+01 7.500000e+00
    endloop
  endfacet
  facet normal 6.985700e-01 -7.155417e-01 0.000000e+00
    outer loop
      vertex 1.457538e+01 2.206187e+01 2.500000e+01
      vertex 1.311173e+01 2.063294e+01 1.750200e+01
      vertex 1.457538e+01 2.206187e+01 1.750200e+01
    endloop
  endfacet
  facet normal 6.985700e-01 -7.155417e-01 0.000000e+00
    outer loop
      vertex 1.311173e+01 2.063294e+01 1.750200e+01
      vertex 1.457538e+01 2.206187e+01 2.500000e+01
      vertex 1.311173e+01 2.063294e+01 2.500000e+01
    endloop
  endfacet
  facet normal 7.399801e-01 -6.726288e-01 0.000000e+00
    outer loop
      vertex 1.595229e+01 2.357203e+01 1.710800e+01
      vertex 1.595229e+01 2.357203e+01 2.500000e+01
      vertex 1.558720e+01 2.317037e+01 1.733000e+01
    endloop
  endfacet
  facet normal 7.378390e-01 -6.749767e-01 2.248725e-04
    outer loop
      vertex 1.558720e+01 2.317037e+01 1.733000e+01
      vertex 1.595229e+01 2.357203e+01 2.500000e+01
      vertex 1.470089e+01 2.220158e+01 1.750200e+01
    endloop
  endfacet
  facet normal 7.439000e-01 -6.682909e-01 0.000000e+00
    outer loop
      vertex 1.457538e+01 2.206187e+01 2.500000e+01
      vertex 1.457538e+01 2.206187e+01 1.750200e+01
      vertex 1.470089e+01 2.220158e+01 1.750200e+01
    endloop
  endfacet
  facet normal 7.389547e-01 -6.737551e-01 -1.845932e-04
    outer loop
      vertex 1.470089e+01 2.220158e+01 1.750200e+01
      vertex 1.595229e+01 2.357203e+01 2.500000e+01
      vertex 1.457538e+01 2.206187e+01 2.500000e+01
    endloop
  endfacet
  facet normal 7.783578e-01 -6.278209e-01 0.000000e+00
    outer loop
      vertex 1.723943e+01 2.516085e+01 1.566200e+01
      vertex 1.723943e+01 2.516085e+01 2.500000e+01
      vertex 1.705523e+01 2.493248e+01 1.603600e+01
    endloop
  endfacet
  facet normal 7.766587e-01 -6.299217e-01 8.843617e-05
    outer loop
      vertex 1.705523e+01 2.493248e+01 1.603600e+01
      vertex 1.723943e+01 2.516085e+01 2.500000e+01
      vertex 1.638558e+01 2.410695e+01 1.683200e+01
    endloop
  endfacet
  facet normal 7.770597e-01 -6.294269e-01 -1.732594e-05
    outer loop
      vertex 1.638558e+01 2.410695e+01 1.683200e+01
      vertex 1.723943e+01 2.516085e+01 2.500000e+01
      vertex 1.595229e+01 2.357203e+01 1.710800e+01
    endloop
  endfacet
  facet normal 7.770177e-01 -6.294789e-01 0.000000e+00
    outer loop
      vertex 1.595229e+01 2.357203e+01 1.710800e+01
      vertex 1.723943e+01 2.516085e+01 2.500000e+01
      vertex 1.595229e+01 2.357203e+01 2.500000e+01
    endloop
  endfacet
  facet normal 8.122870e-01 -5.832580e-01 -1.087746e-04
    outer loop
      vertex 1.795633e+01 2.615692e+01 1.250000e+01
      vertex 1.723943e+01 2.516085e+01 0.000000e+00
      vertex 1.843195e+01 2.682164e+01 0.000000e+00
    endloop
  endfacet
  facet normal 8.132561e-01 -5.819059e-01 0.000000e+00
    outer loop
      vertex 1.843195e+01 2.682164e+01 0.000000e+00
      vertex 1.843195e+01 2.682164e+01 2.500000e+01
      vertex 1.795633e+01 2.615692e+01 1.250000e+01
    endloop
  endfacet
  facet normal 7.959259e-01 -6.053885e-01 2.593090e-03
    outer loop
      vertex 1.723943e+01 2.516085e+01 0.000000e+00
      vertex 1.795633e+01 2.615692e+01 1.250000e+01
      vertex 1.785183e+01 2.601399e+01 1.120600e+01
    endloop
  endfacet
  facet normal 8.120441e-01 -5.835960e-01 5.308575e-05
    outer loop
      vertex 1.723943e+01 2.516085e+01 0.000000e+00
      vertex 1.785183e+01 2.601399e+01 1.120600e+01
      vertex 1.754728e+01 2.559012e+01 1.000200e+01
    endloop
  endfacet
  facet normal 8.126304e-01 -5.827795e-01 0.000000e+00
    outer loop
      vertex 1.723943e+01 2.516085e+01 0.000000e+00
      vertex 1.754728e+01 2.559012e+01 1.000200e+01
      vertex 1.723943e+01 2.516085e+01 9.340000e+00
    endloop
  endfacet
  facet normal 8.092089e-01 -5.875207e-01 4.525755e-04
    outer loop
      vertex 1.795633e+01 2.615692e+01 1.250000e+01
      vertex 1.843195e+01 2.682164e+01 2.500000e+01
      vertex 1.785183e+01 2.601399e+01 1.379600e+01
    endloop
  endfacet
  facet normal 8.121290e-01 -5.834779e-01 9.950633e-06
    outer loop
      vertex 1.785183e+01 2.601399e+01 1.379600e+01
      vertex 1.843195e+01 2.682164e+01 2.500000e+01
      vertex 1.754728e+01 2.559012e+01 1.500000e+01
    endloop
  endfacet
  facet normal 8.125565e-01 -5.828825e-01 -1.011839e-04
    outer loop
      vertex 1.754728e+01 2.559012e+01 1.500000e+01
      vertex 1.843195e+01 2.682164e+01 2.500000e+01
      vertex 1.723943e+01 2.516085e+01 1.566200e+01
    endloop
  endfacet
  facet normal 8.122870e-01 -5.832580e-01 0.000000e+00
    outer loop
      vertex 1.723943e+01 2.516085e+01 1.566200e+01
      vertex 1.843195e+01 2.682164e+01 2.500000e+01
      vertex 1.723943e+01 2.516085e+01 2.500000e+01
    endloop
  endfacet
  facet normal 6.247553e-01 4.894177e-01 -6.084005e-01
    outer loop
      vertex 1.257502e+00 1.345929e+01 1.603600e+01
      vertex 9.170915e-01 1.332946e+01 1.558200e+01
      vertex -4.131993e+00 2.033913e+01 1.603600e+01
    endloop
  endfacet
  facet normal 6.247062e-01 4.893872e-01 -6.084754e-01
    outer loop
      vertex 9.170915e-01 1.332946e+01 1.558200e+01
      vertex 4.620230e-01 1.318674e+01 1.500000e+01
      vertex -4.131993e+00 2.033913e+01 1.603600e+01
    endloop
  endfacet
  facet normal 6.246577e-01 4.893658e-01 -6.085424e-01
    outer loop
      vertex -4.757318e+00 1.984904e+01 1.500000e+01
      vertex -4.131993e+00 2.033913e+01 1.603600e+01
      vertex 4.620230e-01 1.318674e+01 1.500000e+01
    endloop
  endfacet
  facet normal 4.796262e-01 3.757272e-01 -7.929614e-01
    outer loop
      vertex 2.270044e+00 1.384669e+01 1.683200e+01
      vertex 1.257502e+00 1.345929e+01 1.603600e+01
      vertex -4.131993e+00 2.033913e+01 1.603600e+01
    endloop
  endfacet
  facet normal 4.794491e-01 3.755278e-01 -7.931629e-01
    outer loop
      vertex -4.131993e+00 2.033913e+01 1.603600e+01
      vertex -3.315137e+00 2.097748e+01 1.683200e+01
      vertex 2.270044e+00 1.384669e+01 1.683200e+01
    endloop
  endfacet
  facet normal 7.272305e-01 5.697228e-01 -3.828205e-01
    outer loop
      vertex 4.620230e-01 1.318674e+01 1.500000e+01
      vertex -4.569990e-02 1.302581e+01 1.379600e+01
      vertex -4.757318e+00 1.984904e+01 1.500000e+01
    endloop
  endfacet
  facet normal 7.274001e-01 5.697705e-01 -3.824274e-01
    outer loop
      vertex -5.149804e+00 1.954199e+01 1.379600e+01
      vertex -4.757318e+00 1.984904e+01 1.500000e+01
      vertex -4.569990e-02 1.302581e+01 1.379600e+01
    endloop
  endfacet
  facet normal 6.247553e-01 4.894177e-01 6.084005e-01
    outer loop
      vertex -4.131993e+00 2.033913e+01 8.966001e+00
      vertex 9.170915e-01 1.332946e+01 9.420000e+00
      vertex 1.257502e+00 1.345929e+01 8.966001e+00
    endloop
  endfacet
  facet normal 6.247062e-01 4.893872e-01 6.084754e-01
    outer loop
      vertex -4.131993e+00 2.033913e+01 8.966001e+00
      vertex 4.620230e-01 1.318674e+01 1.000200e+01
      vertex 9.170915e-01 1.332946e+01 9.420000e+00
    endloop
  endfacet
  facet normal 6.246577e-01 4.893658e-01 6.085424e-01
    outer loop
      vertex 4.620230e-01 1.318674e+01 1.000200e+01
      vertex -4.131993e+00 2.033913e+01 8.966001e+00
      vertex -4.757318e+00 1.984904e+01 1.000200e+01
    endloop
  endfacet
  facet normal 7.272306e-01 5.697229e-01 3.828204e-01
    outer loop
      vertex -4.757318e+00 1.984904e+01 1.000200e+01
      vertex -4.569990e-02 1.302581e+01 1.120600e+01
      vertex 4.620230e-01 1.318674e+01 1.000200e+01
    endloop
  endfacet
  facet normal 7.274001e-01 5.697705e-01 3.824274e-01
    outer loop
      vertex -4.569990e-02 1.302581e+01 1.120600e+01
      vertex -4.757318e+00 1.984904e+01 1.000200e+01
      vertex -5.149804e+00 1.954199e+01 1.120600e+01
    endloop
  endfacet
  facet normal 7.805052e-01 6.113676e-01 1.305423e-01
    outer loop
      vertex -5.149804e+00 1.954199e+01 1.120600e+01
      vertex -2.192879e-01 1.297112e+01 1.250000e+01
      vertex -4.569990e-02 1.302581e+01 1.120600e+01
    endloop
  endfacet
  facet normal 7.805466e-01 6.113584e-01 1.303375e-01
    outer loop
      vertex -2.192879e-01 1.297112e+01 1.250000e+01
      vertex -5.149804e+00 1.954199e+01 1.120600e+01
      vertex -5.283693e+00 1.943706e+01 1.250000e+01
    endloop
  endfacet
  facet normal 7.805258e-01 6.113837e-01 -1.303442e-01
    outer loop
      vertex -4.569990e-02 1.302581e+01 1.379600e+01
      vertex -2.192879e-01 1.297112e+01 1.250000e+01
      vertex -5.149804e+00 1.954199e+01 1.379600e+01
    endloop
  endfacet
  facet normal 7.805671e-01 6.113744e-01 -1.301397e-01
    outer loop
      vertex -5.283693e+00 1.943706e+01 1.250000e+01
      vertex -5.149804e+00 1.954199e+01 1.379600e+01
      vertex -2.192879e-01 1.297112e+01 1.250000e+01
    endloop
  endfacet
  facet normal 4.796266e-01 3.757275e-01 7.929610e-01
    outer loop
      vertex 2.270044e+00 1.384669e+01 8.170000e+00
      vertex -4.131993e+00 2.033913e+01 8.966001e+00
      vertex 1.257502e+00 1.345929e+01 8.966001e+00
    endloop
  endfacet
  facet normal 4.794494e-01 3.755281e-01 7.931625e-01
    outer loop
      vertex -4.131993e+00 2.033913e+01 8.966001e+00
      vertex 2.270044e+00 1.384669e+01 8.170000e+00
      vertex -3.315137e+00 2.097748e+01 8.170000e+00
    endloop
  endfacet
  facet normal 3.017876e-01 2.363748e-01 9.236078e-01
    outer loop
      vertex 2.826152e+00 1.405883e+01 7.934000e+00
      vertex -3.315137e+00 2.097748e+01 8.170000e+00
      vertex 2.270044e+00 1.384669e+01 8.170000e+00
    endloop
  endfacet
  facet normal 3.008065e-01 2.354852e-01 9.241548e-01
    outer loop
      vertex -3.315137e+00 2.097748e+01 8.170000e+00
      vertex 2.826152e+00 1.405883e+01 7.934000e+00
      vertex -2.367211e+00 2.172099e+01 7.672001e+00
    endloop
  endfacet
  facet normal 2.998670e-01 2.348642e-01 9.246181e-01
    outer loop
      vertex 2.826152e+00 1.405883e+01 7.934000e+00
      vertex 3.423959e+00 1.432701e+01 7.672001e+00
      vertex -2.367211e+00 2.172099e+01 7.672001e+00
    endloop
  endfacet
  facet normal 1.037219e-01 8.123787e-02 9.912831e-01
    outer loop
      vertex 4.638984e+00 1.487450e+01 7.500000e+00
      vertex -2.367211e+00 2.172099e+01 7.672001e+00
      vertex 3.423959e+00 1.432701e+01 7.672001e+00
    endloop
  endfacet
  facet normal 1.036737e-01 8.118835e-02 9.912922e-01
    outer loop
      vertex -2.367211e+00 2.172099e+01 7.672001e+00
      vertex 4.638984e+00 1.487450e+01 7.500000e+00
      vertex -1.347869e+00 2.251943e+01 7.500000e+00
    endloop
  endfacet
  facet normal -3.017147e-01 -2.362662e-01 -9.236593e-01
    outer loop
      vertex 1.595229e+01 2.357203e+01 1.710800e+01
      vertex 1.558720e+01 2.317037e+01 1.733000e+01
      vertex 9.466019e+00 3.098719e+01 1.733000e+01
    endloop
  endfacet
  facet normal -3.008196e-01 -2.354684e-01 -9.241549e-01
    outer loop
      vertex 9.466019e+00 3.098719e+01 1.733000e+01
      vertex 1.041395e+01 3.173070e+01 1.683200e+01
      vertex 1.595229e+01 2.357203e+01 1.710800e+01
    endloop
  endfacet
  facet normal -2.994869e-01 -2.345859e-01 -9.248119e-01
    outer loop
      vertex 1.595229e+01 2.357203e+01 1.710800e+01
      vertex 1.041395e+01 3.173070e+01 1.683200e+01
      vertex 1.638558e+01 2.410695e+01 1.683200e+01
    endloop
  endfacet
  facet normal -8.306881e-01 5.567380e-01 0.000000e+00
    outer loop
      vertex -1.418269e+01 6.842446e+00 1.875200e+01
      vertex -1.418269e+01 6.842446e+00 6.250000e+00
      vertex -2.211870e+01 -4.998586e+00 1.250000e+01
    endloop
  endfacet
  facet normal -8.306881e-01 5.567381e-01 0.000000e+00
    outer loop
      vertex -2.211870e+01 -4.998586e+00 0.000000e+00
      vertex -2.211870e+01 -4.998586e+00 1.250000e+01
      vertex -1.418269e+01 6.842446e+00 6.250000e+00
    endloop
  endfacet
  facet normal -8.305915e-01 5.568823e-01 0.000000e+00
    outer loop
      vertex -1.418269e+01 6.842446e+00 1.875200e+01
      vertex -6.243855e+00 1.868324e+01 0.000000e+00
      vertex -1.418269e+01 6.842446e+00 6.250000e+00
    endloop
  endfacet
  facet normal -8.306881e-01 5.567381e-01 0.000000e+00
    outer loop
      vertex -2.211870e+01 -4.998586e+00 2.500000e+01
      vertex -1.418269e+01 6.842446e+00 1.875200e+01
      vertex -2.211870e+01 -4.998586e+00 1.250000e+01
    endloop
  endfacet
  facet normal -8.306666e-01 5.567703e-01 0.000000e+00
    outer loop
      vertex -2.211870e+01 -4.998586e+00 2.500000e+01
      vertex -2.211870e+01 -4.998586e+00 1.250000e+01
      vertex -3.005625e+01 -1.684091e+01 1.875200e+01
    endloop
  endfacet
  facet normal -8.306665e-01 5.567703e-01 0.000000e+00
    outer loop
      vertex -3.005625e+01 -1.684091e+01 6.250000e+00
      vertex -3.005625e+01 -1.684091e+01 1.875200e+01
      vertex -2.211870e+01 -4.998586e+00 1.250000e+01
    endloop
  endfacet
  facet normal -8.306666e-01 5.567703e-01 0.000000e+00
    outer loop
      vertex -2.211870e+01 -4.998586e+00 0.000000e+00
      vertex -3.005625e+01 -1.684091e+01 6.250000e+00
      vertex -2.211870e+01 -4.998586e+00 1.250000e+01
    endloop
  endfacet
  facet normal -8.306881e-01 5.567380e-01 0.000000e+00
    outer loop
      vertex -3.005625e+01 -1.684091e+01 6.250000e+00
      vertex -3.799226e+01 -2.868194e+01 2.500000e+01
      vertex -3.005625e+01 -1.684091e+01 1.875200e+01
    endloop
  endfacet
  facet normal 1.278622e-01 9.917920e-01 0.000000e+00
    outer loop
      vertex 1.334267e+01 3.402495e+01 2.500000e+01
      vertex 3.595376e+01 3.110992e+01 2.500000e+01
      vertex 2.464821e+01 3.256743e+01 1.250000e+01
    endloop
  endfacet
  facet normal 1.278622e-01 9.917920e-01 0.000000e+00
    outer loop
      vertex 3.595376e+01 3.110992e+01 2.000000e-03
      vertex 2.464821e+01 3.256743e+01 1.250000e+01
      vertex 3.595376e+01 3.110992e+01 2.500000e+01
    endloop
  endfacet
  facet normal 8.255117e-01 -5.643850e-01 0.000000e+00
    outer loop
      vertex -1.638297e+01 -9.740663e+00 1.250000e+01
      vertex -1.031997e+00 1.271282e+01 2.500000e+01
      vertex -1.638297e+01 -9.740663e+00 2.500000e+01
    endloop
  endfacet
  facet normal 0.000000e+00 0.000000e+00 1.000000e+00
    outer loop
      vertex -1.898890e+01 -6.755452e+00 2.500000e+01
      vertex -1.638297e+01 -9.740663e+00 2.500000e+01
      vertex -1.031997e+00 1.271282e+01 2.500000e+01
    endloop
  endfacet
  facet normal 8.255116e-01 -5.643851e-01 0.000000e+00
    outer loop
      vertex -1.638297e+01 -9.740663e+00 1.250000e+01
      vertex -3.173395e+01 -3.219414e+01 0.000000e+00
      vertex -1.638297e+01 -9.740663e+00 0.000000e+00
    endloop
  endfacet
  facet normal 0.000000e+00 0.000000e+00 -1.000000e+00
    outer loop
      vertex -1.898890e+01 -6.755452e+00 0.000000e+00
      vertex -1.638297e+01 -9.740663e+00 0.000000e+00
      vertex -3.173395e+01 -3.219414e+01 0.000000e+00
    endloop
  endfacet
  facet normal 0.000000e+00 0.000000e+00 1.000000e+00
    outer loop
      vertex -1.031997e+00 1.271282e+01 2.500000e+01
      vertex -6.243855e+00 1.868324e+01 2.500000e+01
      vertex -1.898890e+01 -6.755452e+00 2.500000e+01
    endloop
  endfacet
  facet normal 0.000000e+00 0.000000e+00 1.000000e+00
    outer loop
      vertex -1.926938e+01 -7.130291e+00 2.500000e+01
      vertex -1.898890e+01 -6.755452e+00 2.500000e+01
      vertex -6.243855e+00 1.868324e+01 2.500000e+01
    endloop
  endfacet
  facet normal 0.000000e+00 0.000000e+00 -1.000000e+00
    outer loop
      vertex -1.898890e+01 -6.755452e+00 0.000000e+00
      vertex -1.031997e+00 1.271282e+01 0.000000e+00
      vertex -1.638297e+01 -9.740663e+00 0.000000e+00
    endloop
  endfacet
  facet normal 0.000000e+00 0.000000e+00 -1.000000e+00
    outer loop
      vertex -1.926938e+01 -7.130291e+00 0.000000e+00
      vertex -1.898890e+01 -6.755452e+00 0.000000e+00
      vertex -3.173395e+01 -3.219414e+01 0.000000e+00
    endloop
  endfacet
  facet normal 0.000000e+00 0.000000e+00 1.000000e+00
    outer loop
      vertex -1.963764e+01 -7.419547e+00 2.500000e+01
      vertex -6.243855e+00 1.868324e+01 2.500000e+01
      vertex -2.211870e+01 -4.998586e+00 2.500000e+01
    endloop
  endfacet
  facet normal -8.306397e-01 5.568101e-01 1.981309e-04
    outer loop
      vertex -2.211870e+01 -4.998586e+00 2.500000e+01
      vertex -6.243855e+00 1.868324e+01 2.500000e+01
      vertex -1.418269e+01 6.842446e+00 1.875200e+01
    endloop
  endfacet
  facet normal -0.000000e+00 0.000000e+00 -1.000000e+00
    outer loop
      vertex -1.963764e+01 -7.419547e+00 0.000000e+00
      vertex -3.799226e+01 -2.868194e+01 0.000000e+00
      vertex -2.211870e+01 -4.998586e+00 0.000000e+00
    endloop
  endfacet
  facet normal -8.306773e-01 5.567542e-01 -4.422823e-05
    outer loop
      vertex -2.211870e+01 -4.998586e+00 0.000000e+00
      vertex -3.799226e+01 -2.868194e+01 0.000000e+00
      vertex -3.005625e+01 -1.684091e+01 6.250000e+00
    endloop
  endfacet
  facet normal 0.000000e+00 0.000000e+00 1.000000e+00
    outer loop
      vertex -1.926938e+01 -7.130291e+00 2.500000e+01
      vertex -3.173395e+01 -3.219414e+01 2.500000e+01
      vertex -1.898890e+01 -6.755452e+00 2.500000e+01
    endloop
  endfacet
  facet normal 0.000000e+00 0.000000e+00 1.000000e+00
    outer loop
      vertex -1.963764e+01 -7.419547e+00 2.500000e+01
      vertex -1.926938e+01 -7.130291e+00 2.500000e+01
      vertex -6.243855e+00 1.868324e+01 2.500000e+01
    endloop
  endfacet
  facet normal -0.000000e+00 0.000000e+00 -1.000000e+00
    outer loop
      vertex -3.173395e+01 -3.219414e+01 0.000000e+00
      vertex -3.229491e+01 -3.294382e+01 0.000000e+00
      vertex -1.926938e+01 -7.130291e+00 0.000000e+00
    endloop
  endfacet
  facet normal 0.000000e+00 0.000000e+00 -1.000000e+00
    outer loop
      vertex -1.963764e+01 -7.419547e+00 0.000000e+00
      vertex -1.926938e+01 -7.130291e+00 0.000000e+00
      vertex -3.229491e+01 -3.294382e+01 0.000000e+00
    endloop
  endfacet
  facet normal 0.000000e+00 0.000000e+00 1.000000e+00
    outer loop
      vertex -1.963764e+01 -7.419547e+00 2.500000e+01
      vertex -3.229491e+01 -3.294382e+01 2.500000e+01
      vertex -1.926938e+01 -7.130291e+00 2.500000e+01
    endloop
  endfacet
  facet normal 0.000000e+00 0.000000e+00 1.000000e+00
    outer loop
      vertex -1.963764e+01 -7.419547e+00 2.500000e+01
      vertex -2.211870e+01 -4.998586e+00 2.500000e+01
      vertex -3.799226e+01 -2.868194e+01 2.500000e+01
    endloop
  endfacet
  facet normal 0.000000e+00 0.000000e+00 -1.000000e+00
    outer loop
      vertex -3.229491e+01 -3.294382e+01 0.000000e+00
      vertex -3.303141e+01 -3.352233e+01 0.000000e+00
      vertex -1.963764e+01 -7.419547e+00 0.000000e+00
    endloop
  endfacet
  facet normal 0.000000e+00 0.000000e+00 -1.000000e+00
    outer loop
      vertex -3.799226e+01 -2.868194e+01 0.000000e+00
      vertex -1.963764e+01 -7.419547e+00 0.000000e+00
      vertex -3.303141e+01 -3.352233e+01 0.000000e+00
    endloop
  endfacet
  facet normal 8.255116e-01 -5.643851e-01 0.000000e+00
    outer loop
      vertex -3.173395e+01 -3.219414e+01 2.500000e+01
      vertex -3.173395e+01 -3.219414e+01 0.000000e+00
      vertex -1.638297e+01 -9.740663e+00 1.250000e+01
    endloop
  endfacet
  facet normal 8.255117e-01 -5.643850e-01 0.000000e+00
    outer loop
      vertex -1.638297e+01 -9.740663e+00 1.250000e+01
      vertex -1.638297e+01 -9.740663e+00 0.000000e+00
      vertex -1.031997e+00 1.271282e+01 0.000000e+00
    endloop
  endfacet
  facet normal -8.305914e-01 5.568823e-01 0.000000e+00
    outer loop
      vertex -6.243855e+00 1.868324e+01 0.000000e+00
      vertex -1.418269e+01 6.842446e+00 1.875200e+01
      vertex -6.243855e+00 1.868324e+01 2.500000e+01
    endloop
  endfacet
  facet normal -8.306397e-01 5.568101e-01 -1.980675e-04
    outer loop
      vertex -2.211870e+01 -4.998586e+00 0.000000e+00
      vertex -1.418269e+01 6.842446e+00 6.250000e+00
      vertex -6.243855e+00 1.868324e+01 0.000000e+00
    endloop
  endfacet
endsolid Default
