solid M3 nut insert
facet normal 0.5 0.866025403784439 3.09212966884838e-17
outer loop
vertex 6.49978643762664 29.3878620307034 2.9999999999998
vertex 8.69957287525409 28.1178147387795 8.59074589243391e-14
vertex 6.49978643762664 29.3878620307034 7.86883447290165e-14
endloop
endfacet
facet normal 0.5 0.866025403784439 3.09212966884838e-17
outer loop
vertex 8.69957287525409 28.1178147387795 8.59074589243391e-14
vertex 6.49978643762664 29.3878620307034 2.9999999999998
vertex 9.49957287525409 27.6559345234278 8.80731931829359e-14
endloop
endfacet
facet normal 0.5 0.866025403784439 3.09212966884838e-17
outer loop
vertex 9.49957287525409 27.6559345234278 8.80731931829359e-14
vertex 6.49978643762664 29.3878620307034 2.9999999999998
vertex 9.49957287525409 27.6559345234278 2.99999999999981
endloop
endfacet
facet normal 0.5 0.866025403784439 3.09212966884838e-17
outer loop
vertex 9.49957287525409 27.6559345234278 2.99999999999981
vertex 6.49978643762664 29.3878620307034 2.9999999999998
vertex 8.69957287525409 28.1178147387795 2.9999999999998
endloop
endfacet
facet normal -0.5 0.866025403784438 -7.51657414394329e-15
outer loop
vertex 6.49978643762664 3.30000000000001 0.999999999999894
vertex 7.9720296240602 4.15 8.3084757056016e-14
vertex 6.49978643762665 3.3 7.54888723177434e-14
endloop
endfacet
facet normal -0.5 0.866025403784438 -7.51657414394329e-15
outer loop
vertex 7.9720296240602 4.15 8.3084757056016e-14
vertex 6.49978643762664 3.30000000000001 0.999999999999894
vertex 7.97202962406019 4.15000000000001 0.999999999999903
endloop
endfacet
facet normal 0.499999999999999 0.866025403784439 -2.44596863963616e-15
outer loop
vertex 6.49978643762665 9.38786203070341 2.99999999999985
vertex 8.6995728752541 8.11781473877951 -1.40772726808791e-14
vertex 6.49978643762665 9.3878620307034 -1.98525640371372e-14
endloop
endfacet
facet normal 0.499999999999999 0.866025403784439 -2.44596863963616e-15
outer loop
vertex 8.6995728752541 8.11781473877951 -1.40772726808791e-14
vertex 6.49978643762665 9.38786203070341 2.99999999999985
vertex 8.6995728752541 8.11781473877952 2.99999999999986
endloop
endfacet
facet normal 1.0 3.14687003676026e-16 3.76407462010651e-31
outer loop
vertex 4.2999999999992 21.8821852612205 -4.87290208184277e-14
vertex 4.2999999999992 8.11781473877951 2.99999999999986
vertex 4.2999999999992 8.11781473877951 -1.40772726808791e-14
endloop
endfacet
facet normal 1.0 3.14687003676026e-16 3.76407462010651e-31
outer loop
vertex 4.2999999999992 8.11781473877951 2.99999999999986
vertex 4.2999999999992 21.8821852612205 -4.87290208184277e-14
vertex 4.2999999999992 21.8821852612205 2.99999999999982
endloop
endfacet
facet normal -0.5 -0.866025403784439 2.16568287895736e-15
outer loop
vertex 9.49957287525409 26.7321740927244 0.999999999999806
vertex 6.49978643762664 28.4641016 2.9999999999998
vertex 6.49978643762664 28.4641016 0.999999999999798
endloop
endfacet
facet normal -0.5 -0.866025403784439 2.16568287895736e-15
outer loop
vertex 6.49978643762664 28.4641016 2.9999999999998
vertex 9.49957287525409 26.7321740927244 0.999999999999806
vertex 9.49957287525409 26.7321740927244 2.99999999999981
endloop
endfacet
facet normal 0.500000000000001 -0.866025403784438 2.16568287895736e-15
outer loop
vertex 6.49978643762664 28.4641016 2.9999999999998
vertex 3.4999999999992 26.7321740927244 0.999999999999806
vertex 6.49978643762664 28.4641016 0.999999999999798
endloop
endfacet
facet normal 0.500000000000001 -0.866025403784438 2.16568287895736e-15
outer loop
vertex 3.4999999999992 26.7321740927244 0.999999999999806
vertex 6.49978643762664 28.4641016 2.9999999999998
vertex 3.4999999999992 26.7321740927244 2.99999999999981
endloop
endfacet
facet normal -1.23621658525252e-30 2.50071518629079e-15 1.0
outer loop
vertex 6.49978643762664 21.5358984 0.999999999999815
vertex 5.02754325119309 24.15 0.999999999999824
vertex 3.4999999999992 23.2678259072756 0.999999999999814
endloop
endfacet
facet normal -1.23621658525252e-30 2.50071518629079e-15 1.0
outer loop
vertex 5.02754325119309 24.15 0.999999999999824
vertex 6.49978643762664 21.5358984 0.999999999999815
vertex 6.49978643762664 23.3 0.999999999999838
endloop
endfacet
facet normal -1.23621658525252e-30 2.50071518629079e-15 1.0
outer loop
vertex 6.49978643762664 23.3 0.999999999999838
vertex 6.49978643762664 21.5358984 0.999999999999815
vertex 7.97202962406018 24.15 0.999999999999845
endloop
endfacet
facet normal -1.23621658525252e-30 2.50071518629079e-15 1.0
outer loop
vertex 7.97202962406018 24.15 0.999999999999845
vertex 6.49978643762664 21.5358984 0.999999999999815
vertex 9.49957287525409 23.2678259072756 0.999999999999814
endloop
endfacet
facet normal -1.23621658525252e-30 2.50071518629079e-15 1.0
outer loop
vertex 7.97202962406018 24.15 0.999999999999845
vertex 9.49957287525409 23.2678259072756 0.999999999999814
vertex 7.97202962406018 25.85 0.999999999999838
endloop
endfacet
facet normal -1.23621658525252e-30 2.50071518629079e-15 1.0
outer loop
vertex 7.97202962406018 25.85 0.999999999999838
vertex 9.49957287525409 23.2678259072756 0.999999999999814
vertex 9.49957287525409 26.7321740927244 0.999999999999806
endloop
endfacet
facet normal -1.23621658525252e-30 2.50071518629079e-15 1.0
outer loop
vertex 3.4999999999992 23.2678259072756 0.999999999999814
vertex 6.49978643762664 28.4641016 0.999999999999798
vertex 3.4999999999992 26.7321740927244 0.999999999999806
endloop
endfacet
facet normal -1.23621658525252e-30 2.50071518629079e-15 1.0
outer loop
vertex 6.49978643762664 28.4641016 0.999999999999798
vertex 3.4999999999992 23.2678259072756 0.999999999999814
vertex 5.02754325119309 25.85 0.999999999999816
endloop
endfacet
facet normal -1.23621658525252e-30 2.50071518629079e-15 1.0
outer loop
vertex 5.02754325119309 25.85 0.999999999999816
vertex 3.4999999999992 23.2678259072756 0.999999999999814
vertex 5.02754325119309 24.15 0.999999999999824
endloop
endfacet
facet normal -1.23621658525252e-30 2.50071518629079e-15 1.0
outer loop
vertex 6.49978643762664 28.4641016 0.999999999999798
vertex 5.02754325119309 25.85 0.999999999999816
vertex 6.49978643762663 26.7 0.999999999999824
endloop
endfacet
facet normal -1.23621658525252e-30 2.50071518629079e-15 1.0
outer loop
vertex 6.49978643762664 28.4641016 0.999999999999798
vertex 6.49978643762663 26.7 0.999999999999824
vertex 7.97202962406018 25.85 0.999999999999838
endloop
endfacet
facet normal -1.23621658525252e-30 2.50071518629079e-15 1.0
outer loop
vertex 6.49978643762664 28.4641016 0.999999999999798
vertex 7.97202962406018 25.85 0.999999999999838
vertex 9.49957287525409 26.7321740927244 0.999999999999806
endloop
endfacet
facet normal 0.5 0.866025403784439 -2.16568287895736e-15
outer loop
vertex 3.4999999999992 23.2678259072756 2.99999999999982
vertex 6.49978643762664 21.5358984 0.999999999999815
vertex 3.4999999999992 23.2678259072756 0.999999999999814
endloop
endfacet
facet normal 0.5 0.866025403784439 -2.16568287895736e-15
outer loop
vertex 6.49978643762664 21.5358984 0.999999999999815
vertex 3.4999999999992 23.2678259072756 2.99999999999982
vertex 6.49978643762664 21.5358984 2.99999999999982
endloop
endfacet
facet normal -0.499999999999999 -0.866025403784439 2.44596863963616e-15
outer loop
vertex 6.49978643762665 20.6121379692966 2.99999999999982
vertex 4.2999999999992 21.8821852612205 -4.87290208184277e-14
vertex 6.49978643762665 20.6121379692966 -4.87290208184277e-14
endloop
endfacet
facet normal -0.499999999999999 -0.866025403784439 2.44596863963616e-15
outer loop
vertex 4.2999999999992 21.8821852612205 -4.87290208184277e-14
vertex 6.49978643762665 20.6121379692966 2.99999999999982
vertex 4.2999999999992 21.8821852612205 2.99999999999982
endloop
endfacet
facet normal -0.5 0.866025403784439 -2.44596863963616e-15
outer loop
vertex 4.2999999999992 8.11781473877951 -1.40772726808791e-14
vertex 6.49978643762665 9.38786203070341 2.99999999999985
vertex 6.49978643762665 9.3878620307034 -1.98525640371372e-14
endloop
endfacet
facet normal -0.5 0.866025403784439 -2.44596863963616e-15
outer loop
vertex 6.49978643762665 9.38786203070341 2.99999999999985
vertex 4.2999999999992 8.11781473877951 -1.40772726808791e-14
vertex 4.2999999999992 8.11781473877951 2.99999999999986
endloop
endfacet
facet normal -0.5 0.866025403784439 -2.16568287895736e-15
outer loop
vertex 6.49978643762664 21.5358984 0.999999999999815
vertex 9.49957287525409 23.2678259072756 2.99999999999982
vertex 9.49957287525409 23.2678259072756 0.999999999999814
endloop
endfacet
facet normal -0.5 0.866025403784439 -2.16568287895736e-15
outer loop
vertex 9.49957287525409 23.2678259072756 2.99999999999982
vertex 6.49978643762664 21.5358984 0.999999999999815
vertex 6.49978643762664 21.5358984 2.99999999999982
endloop
endfacet
facet normal 0.499999999999999 -0.866025403784439 2.44596863963616e-15
outer loop
vertex 8.69957287525409 21.8821852612205 2.99999999999982
vertex 6.49978643762665 20.6121379692966 -4.87290208184277e-14
vertex 8.69957287525409 21.8821852612205 -4.87290208184277e-14
endloop
endfacet
facet normal 0.499999999999999 -0.866025403784439 2.44596863963616e-15
outer loop
vertex 6.49978643762665 20.6121379692966 -4.87290208184277e-14
vertex 8.69957287525409 21.8821852612205 2.99999999999982
vertex 6.49978643762665 20.6121379692966 2.99999999999982
endloop
endfacet
facet normal -1.0 -4.19582671568035e-16 -8.01441965494379e-32
outer loop
vertex 8.6995728752541 8.11781473877952 2.99999999999986
vertex 8.69957287525409 21.8821852612205 -4.87290208184277e-14
vertex 8.6995728752541 8.11781473877951 -1.40772726808791e-14
endloop
endfacet
facet normal -1.0 -4.19582671568035e-16 -8.01441965494379e-32
outer loop
vertex 8.69957287525409 21.8821852612205 -4.87290208184277e-14
vertex 8.6995728752541 8.11781473877952 2.99999999999986
vertex 8.69957287525409 21.8821852612205 2.99999999999982
endloop
endfacet
facet normal -1.16954930044661e-16 3.97724800150692e-15 1.0
outer loop
vertex 6.49978643762664 28.4641016 2.9999999999998
vertex 3.4999999999992 27.6559345234278 2.9999999999998
vertex 3.4999999999992 26.7321740927244 2.99999999999981
endloop
endfacet
facet normal -1.16954930044661e-16 3.97724800150692e-15 1.0
outer loop
vertex 3.4999999999992 27.6559345234278 2.9999999999998
vertex 6.49978643762664 28.4641016 2.9999999999998
vertex 4.2999999999992 28.1178147387795 2.9999999999998
endloop
endfacet
facet normal -1.16954930044661e-16 3.97724800150692e-15 1.0
outer loop
vertex 4.2999999999992 28.1178147387795 2.9999999999998
vertex 6.49978643762664 28.4641016 2.9999999999998
vertex 6.49978643762664 29.3878620307034 2.9999999999998
endloop
endfacet
facet normal -1.16954930044661e-16 3.97724800150692e-15 1.0
outer loop
vertex 6.49978643762664 29.3878620307034 2.9999999999998
vertex 6.49978643762664 28.4641016 2.9999999999998
vertex 8.69957287525409 28.1178147387795 2.9999999999998
endloop
endfacet
facet normal -1.16954930044661e-16 3.97724800150692e-15 1.0
outer loop
vertex 8.69957287525409 28.1178147387795 2.9999999999998
vertex 6.49978643762664 28.4641016 2.9999999999998
vertex 9.49957287525409 26.7321740927244 2.99999999999981
endloop
endfacet
facet normal -1.16954930044661e-16 3.97724800150692e-15 1.0
outer loop
vertex 8.69957287525409 28.1178147387795 2.9999999999998
vertex 9.49957287525409 26.7321740927244 2.99999999999981
vertex 9.49957287525409 27.6559345234278 2.99999999999981
endloop
endfacet
facet normal -0.5 -0.866025403784439 2.6163674395189e-15
outer loop
vertex 4.2999999999992 1.88218526122049 1.56293822328735e-13
vertex 3.4999999999992 2.3440654765722 2.99999999999987
vertex 3.4999999999992 2.34406547657219 1.5484999948967e-13
endloop
endfacet
facet normal -0.5 -0.866025403784439 2.6163674395189e-15
outer loop
vertex 3.4999999999992 2.3440654765722 2.99999999999987
vertex 4.2999999999992 1.88218526122049 1.56293822328735e-13
vertex 6.49978643762665 0.612137969296599 1.59181468006864e-13
endloop
endfacet
facet normal -0.5 -0.866025403784439 2.6163674395189e-15
outer loop
vertex 3.4999999999992 2.3440654765722 2.99999999999987
vertex 6.49978643762665 0.612137969296599 1.59181468006864e-13
vertex 6.49978643762665 0.612137969296608 2.99999999999987
endloop
endfacet
facet normal -0.5 -0.866025403784439 2.6163674395189e-15
outer loop
vertex 3.4999999999992 2.3440654765722 2.99999999999987
vertex 6.49978643762665 0.612137969296608 2.99999999999987
vertex 4.2999999999992 1.8821852612205 2.99999999999987
endloop
endfacet
facet normal 0.5 0.866025403784439 1.11259485418079e-16
outer loop
vertex 5.0275432511931 4.15000000000001 0.99999999999988
vertex 6.49978643762665 3.3 7.54888723177434e-14
vertex 5.02754325119311 4.15 6.06247048798641e-14
endloop
endfacet
facet normal 0.5 0.866025403784439 1.11259485418079e-16
outer loop
vertex 6.49978643762665 3.3 7.54888723177434e-14
vertex 5.0275432511931 4.15000000000001 0.99999999999988
vertex 6.49978643762664 3.30000000000001 0.999999999999894
endloop
endfacet
facet normal -0.5 0.866025403784438 -2.46646931295445e-15
outer loop
vertex 6.49978643762665 1.5358984 0.999999999999874
vertex 9.4995728752541 3.26782590727561 2.99999999999986
vertex 9.4995728752541 3.2678259072756 0.999999999999869
endloop
endfacet
facet normal -0.5 0.866025403784438 -2.46646931295445e-15
outer loop
vertex 9.4995728752541 3.26782590727561 2.99999999999986
vertex 6.49978643762665 1.5358984 0.999999999999874
vertex 6.49978643762665 1.53589840000001 2.99999999999987
endloop
endfacet
facet normal -0.5 -0.866025403784439 -1.11259485418076e-16
outer loop
vertex 7.9720296240602 5.85 7.58164743564092e-14
vertex 6.49978643762664 6.70000000000001 0.99999999999988
vertex 6.49978643762665 6.7 6.09523069185298e-14
endloop
endfacet
facet normal -0.5 -0.866025403784439 -1.11259485418076e-16
outer loop
vertex 6.49978643762664 6.70000000000001 0.99999999999988
vertex 7.9720296240602 5.85 7.58164743564092e-14
vertex 7.97202962406019 5.85000000000001 0.999999999999896
endloop
endfacet
facet normal 0.5 0.866025403784439 1.11259485418078e-16
outer loop
vertex 5.02754325119309 24.15 0.999999999999824
vertex 6.49978643762664 23.3 1.38256447603582e-14
vertex 5.0275432511931 24.15 -1.03852267752116e-15
endloop
endfacet
facet normal 0.5 0.866025403784439 1.11259485418078e-16
outer loop
vertex 6.49978643762664 23.3 1.38256447603582e-14
vertex 5.02754325119309 24.15 0.999999999999824
vertex 6.49978643762664 23.3 0.999999999999838
endloop
endfacet
facet normal -0.5 -0.866025403784439 -1.11259485418078e-16
outer loop
vertex 7.97202962406019 25.85 1.41532467990239e-14
vertex 6.49978643762663 26.7 0.999999999999824
vertex 6.49978643762664 26.7 -7.10920638855411e-16
endloop
endfacet
facet normal -0.5 -0.866025403784439 -1.11259485418078e-16
outer loop
vertex 6.49978643762663 26.7 0.999999999999824
vertex 7.97202962406019 25.85 1.41532467990239e-14
vertex 7.97202962406018 25.85 0.999999999999838
endloop
endfacet
facet normal 3.47700196796731e-17 2.66809004851892e-15 1.0
outer loop
vertex 3.4999999999992 2.3440654765722 2.99999999999987
vertex 6.49978643762665 1.53589840000001 2.99999999999987
vertex 3.4999999999992 3.2678259072756 2.99999999999986
endloop
endfacet
facet normal 3.47700196796731e-17 2.66809004851892e-15 1.0
outer loop
vertex 6.49978643762665 1.53589840000001 2.99999999999987
vertex 3.4999999999992 2.3440654765722 2.99999999999987
vertex 4.2999999999992 1.8821852612205 2.99999999999987
endloop
endfacet
facet normal 3.47700196796731e-17 2.66809004851892e-15 1.0
outer loop
vertex 6.49978643762665 1.53589840000001 2.99999999999987
vertex 4.2999999999992 1.8821852612205 2.99999999999987
vertex 6.49978643762665 0.612137969296608 2.99999999999987
endloop
endfacet
facet normal 3.47700196796731e-17 2.66809004851892e-15 1.0
outer loop
vertex 6.49978643762665 1.53589840000001 2.99999999999987
vertex 6.49978643762665 0.612137969296608 2.99999999999987
vertex 9.4995728752541 3.26782590727561 2.99999999999986
endloop
endfacet
facet normal 3.47700196796731e-17 2.66809004851892e-15 1.0
outer loop
vertex 9.4995728752541 3.26782590727561 2.99999999999986
vertex 6.49978643762665 0.612137969296608 2.99999999999987
vertex 8.6995728752541 1.88218526122051 2.99999999999987
endloop
endfacet
facet normal 3.47700196796731e-17 2.66809004851892e-15 1.0
outer loop
vertex 9.4995728752541 3.26782590727561 2.99999999999986
vertex 8.6995728752541 1.88218526122051 2.99999999999987
vertex 9.4995728752541 2.34406547657221 2.99999999999987
endloop
endfacet
facet normal -0.5 0.866025403784439 -7.51657414394328e-15
outer loop
vertex 6.49978643762664 23.3 0.999999999999838
vertex 7.97202962406019 24.15 2.14215294986307e-14
vertex 6.49978643762664 23.3 1.38256447603582e-14
endloop
endfacet
facet normal -0.5 0.866025403784439 -7.51657414394328e-15
outer loop
vertex 7.97202962406019 24.15 2.14215294986307e-14
vertex 6.49978643762664 23.3 0.999999999999838
vertex 7.97202962406018 24.15 0.999999999999845
endloop
endfacet
facet normal 0.5 -0.866025403784439 7.51657414394328e-15
outer loop
vertex 6.49978643762664 26.7 -7.10920638855411e-16
vertex 5.02754325119309 25.85 0.999999999999816
vertex 5.0275432511931 25.85 -8.30680537712794e-15
endloop
endfacet
facet normal 0.5 -0.866025403784439 7.51657414394328e-15
outer loop
vertex 5.02754325119309 25.85 0.999999999999816
vertex 6.49978643762664 26.7 -7.10920638855411e-16
vertex 6.49978643762663 26.7 0.999999999999824
endloop
endfacet
facet normal -1.0 -3.26125007080977e-29 -7.62783362936136e-15
outer loop
vertex 7.97202962406019 4.15000000000001 0.999999999999903
vertex 7.9720296240602 5.85 7.58164743564092e-14
vertex 7.9720296240602 4.15 8.3084757056016e-14
endloop
endfacet
facet normal -1.0 -3.26125007080977e-29 -7.62783362936136e-15
outer loop
vertex 7.9720296240602 5.85 7.58164743564092e-14
vertex 7.97202962406019 4.15000000000001 0.999999999999903
vertex 7.97202962406019 5.85000000000001 0.999999999999896
endloop
endfacet
facet normal 1.0 3.26125007080976e-29 7.62783362936136e-15
outer loop
vertex 5.0275432511931 25.85 -8.30680537712794e-15
vertex 5.02754325119309 24.15 0.999999999999824
vertex 5.0275432511931 24.15 -1.03852267752116e-15
endloop
endfacet
facet normal 1.0 3.26125007080976e-29 7.62783362936136e-15
outer loop
vertex 5.02754325119309 24.15 0.999999999999824
vertex 5.0275432511931 25.85 -8.30680537712794e-15
vertex 5.02754325119309 25.85 0.999999999999816
endloop
endfacet
facet normal 0.5 0.866025403784439 -2.46646931295445e-15
outer loop
vertex 3.4999999999992 3.2678259072756 2.99999999999986
vertex 6.49978643762665 1.5358984 0.999999999999874
vertex 3.4999999999992 3.2678259072756 0.999999999999869
endloop
endfacet
facet normal 0.5 0.866025403784439 -2.46646931295445e-15
outer loop
vertex 6.49978643762665 1.5358984 0.999999999999874
vertex 3.4999999999992 3.2678259072756 2.99999999999986
vertex 6.49978643762665 1.53589840000001 2.99999999999987
endloop
endfacet
facet normal 1.0 3.05605982594765e-16 -2.02670246920874e-17
outer loop
vertex 9.4995728752541 2.3440654765722 1.5484999948967e-13
vertex 9.4995728752541 3.2678259072756 0.999999999999869
vertex 9.4995728752541 2.34406547657221 2.99999999999987
endloop
endfacet
facet normal 1.0 3.05605982594765e-16 -2.02670246920874e-17
outer loop
vertex 9.4995728752541 3.2678259072756 0.999999999999869
vertex 9.4995728752541 2.3440654765722 1.5484999948967e-13
vertex 9.49957287525409 27.6559345234278 8.80731931829359e-14
endloop
endfacet
facet normal 1.0 3.05605982594765e-16 -2.02670246920874e-17
outer loop
vertex 9.4995728752541 3.2678259072756 0.999999999999869
vertex 9.49957287525409 27.6559345234278 8.80731931829359e-14
vertex 9.4995728752541 6.73217409272441 0.99999999999986
endloop
endfacet
facet normal 1.0 3.05605982594765e-16 -2.02670246920874e-17
outer loop
vertex 9.4995728752541 6.73217409272441 0.99999999999986
vertex 9.49957287525409 27.6559345234278 8.80731931829359e-14
vertex 9.4995728752541 6.73217409272441 2.99999999999986
endloop
endfacet
facet normal 1.0 3.05605982594765e-16 -2.02670246920874e-17
outer loop
vertex 9.4995728752541 6.73217409272441 2.99999999999986
vertex 9.49957287525409 27.6559345234278 8.80731931829359e-14
vertex 9.49957287525409 23.2678259072756 0.999999999999814
endloop
endfacet
facet normal 1.0 3.05605982594765e-16 -2.02670246920874e-17
outer loop
vertex 9.49957287525409 23.2678259072756 0.999999999999814
vertex 9.49957287525409 27.6559345234278 8.80731931829359e-14
vertex 9.49957287525409 26.7321740927244 0.999999999999806
endloop
endfacet
facet normal 1.0 3.05605982594765e-16 -2.02670246920874e-17
outer loop
vertex 9.49957287525409 26.7321740927244 0.999999999999806
vertex 9.49957287525409 27.6559345234278 8.80731931829359e-14
vertex 9.49957287525409 26.7321740927244 2.99999999999981
endloop
endfacet
facet normal 1.0 3.05605982594765e-16 -2.02670246920874e-17
outer loop
vertex 9.49957287525409 26.7321740927244 2.99999999999981
vertex 9.49957287525409 27.6559345234278 8.80731931829359e-14
vertex 9.49957287525409 27.6559345234278 2.99999999999981
endloop
endfacet
facet normal 1.0 3.05605982594765e-16 -2.02670246920874e-17
outer loop
vertex 9.49957287525409 23.2678259072756 2.99999999999982
vertex 9.4995728752541 6.73217409272441 2.99999999999986
vertex 9.49957287525409 23.2678259072756 0.999999999999814
endloop
endfacet
facet normal 1.0 3.05605982594765e-16 -2.02670246920874e-17
outer loop
vertex 9.4995728752541 3.26782590727561 2.99999999999986
vertex 9.4995728752541 2.34406547657221 2.99999999999987
vertex 9.4995728752541 3.2678259072756 0.999999999999869
endloop
endfacet
facet normal -1.0 -3.26125007080977e-29 -7.62783362936136e-15
outer loop
vertex 7.97202962406018 24.15 0.999999999999845
vertex 7.97202962406019 25.85 1.41532467990239e-14
vertex 7.97202962406019 24.15 2.14215294986307e-14
endloop
endfacet
facet normal -1.0 -3.26125007080977e-29 -7.62783362936136e-15
outer loop
vertex 7.97202962406019 25.85 1.41532467990239e-14
vertex 7.97202962406018 24.15 0.999999999999845
vertex 7.97202962406018 25.85 0.999999999999838
endloop
endfacet
facet normal 1.0 3.26125007080977e-29 7.62783362936136e-15
outer loop
vertex 5.02754325119311 5.85 5.33564221802573e-14
vertex 5.0275432511931 4.15000000000001 0.99999999999988
vertex 5.02754325119311 4.15 6.06247048798641e-14
endloop
endfacet
facet normal 1.0 3.26125007080977e-29 7.62783362936136e-15
outer loop
vertex 5.0275432511931 4.15000000000001 0.99999999999988
vertex 5.02754325119311 5.85 5.33564221802573e-14
vertex 5.0275432511931 5.85000000000001 0.999999999999873
endloop
endfacet
facet normal 0.5 -0.866025403784439 2.46646931295446e-15
outer loop
vertex 6.49978643762665 8.46410160000001 2.99999999999986
vertex 3.4999999999992 6.73217409272441 0.99999999999986
vertex 6.49978643762665 8.4641016 0.999999999999853
endloop
endfacet
facet normal 0.5 -0.866025403784439 2.46646931295446e-15
outer loop
vertex 3.4999999999992 6.73217409272441 0.99999999999986
vertex 6.49978643762665 8.46410160000001 2.99999999999986
vertex 3.4999999999992 6.73217409272441 2.99999999999986
endloop
endfacet
facet normal 0.5 -0.866025403784438 2.61244124690202e-15
outer loop
vertex 9.4995728752541 2.34406547657221 2.99999999999987
vertex 8.6995728752541 1.8821852612205 1.55571910909202e-13
vertex 9.4995728752541 2.3440654765722 1.5484999948967e-13
endloop
endfacet
facet normal 0.5 -0.866025403784438 2.61244124690202e-15
outer loop
vertex 8.6995728752541 1.8821852612205 1.55571910909202e-13
vertex 9.4995728752541 2.34406547657221 2.99999999999987
vertex 6.49978643762665 0.612137969296599 1.59181468006864e-13
endloop
endfacet
facet normal 0.5 -0.866025403784438 2.61244124690202e-15
outer loop
vertex 6.49978643762665 0.612137969296599 1.59181468006864e-13
vertex 9.4995728752541 2.34406547657221 2.99999999999987
vertex 8.6995728752541 1.88218526122051 2.99999999999987
endloop
endfacet
facet normal 0.5 -0.866025403784438 2.61244124690202e-15
outer loop
vertex 6.49978643762665 0.612137969296599 1.59181468006864e-13
vertex 8.6995728752541 1.88218526122051 2.99999999999987
vertex 6.49978643762665 0.612137969296608 2.99999999999987
endloop
endfacet
facet normal -1.0 -3.33972150501593e-16 -2.02670246920861e-17
outer loop
vertex 3.4999999999992 3.2678259072756 2.99999999999986
vertex 3.4999999999992 3.2678259072756 0.999999999999869
vertex 3.4999999999992 2.3440654765722 2.99999999999987
endloop
endfacet
facet normal -1.0 -3.33972150501593e-16 -2.02670246920861e-17
outer loop
vertex 3.4999999999992 23.2678259072756 2.99999999999982
vertex 3.4999999999992 23.2678259072756 0.999999999999814
vertex 3.4999999999992 6.73217409272441 2.99999999999986
endloop
endfacet
facet normal -1.0 -3.33972150501593e-16 -2.02670246920861e-17
outer loop
vertex 3.4999999999992 2.34406547657219 1.5484999948967e-13
vertex 3.4999999999992 3.2678259072756 0.999999999999869
vertex 3.4999999999992 27.6559345234278 8.73512817634037e-14
endloop
endfacet
facet normal -1.0 -3.33972150501593e-16 -2.02670246920861e-17
outer loop
vertex 3.4999999999992 3.2678259072756 0.999999999999869
vertex 3.4999999999992 2.34406547657219 1.5484999948967e-13
vertex 3.4999999999992 2.3440654765722 2.99999999999987
endloop
endfacet
facet normal -1.0 -3.33972150501593e-16 -2.02670246920861e-17
outer loop
vertex 3.4999999999992 27.6559345234278 8.73512817634037e-14
vertex 3.4999999999992 3.2678259072756 0.999999999999869
vertex 3.4999999999992 6.73217409272441 0.99999999999986
endloop
endfacet
facet normal -1.0 -3.33972150501593e-16 -2.02670246920861e-17
outer loop
vertex 3.4999999999992 27.6559345234278 8.73512817634037e-14
vertex 3.4999999999992 6.73217409272441 0.99999999999986
vertex 3.4999999999992 6.73217409272441 2.99999999999986
endloop
endfacet
facet normal -1.0 -3.33972150501593e-16 -2.02670246920861e-17
outer loop
vertex 3.4999999999992 27.6559345234278 8.73512817634037e-14
vertex 3.4999999999992 6.73217409272441 2.99999999999986
vertex 3.4999999999992 23.2678259072756 0.999999999999814
endloop
endfacet
facet normal -1.0 -3.33972150501593e-16 -2.02670246920861e-17
outer loop
vertex 3.4999999999992 27.6559345234278 8.73512817634037e-14
vertex 3.4999999999992 23.2678259072756 0.999999999999814
vertex 3.4999999999992 26.7321740927244 0.999999999999806
endloop
endfacet
facet normal -1.0 -3.33972150501593e-16 -2.02670246920861e-17
outer loop
vertex 3.4999999999992 27.6559345234278 8.73512817634037e-14
vertex 3.4999999999992 26.7321740927244 0.999999999999806
vertex 3.4999999999992 26.7321740927244 2.99999999999981
endloop
endfacet
facet normal -1.0 -3.33972150501593e-16 -2.02670246920861e-17
outer loop
vertex 3.4999999999992 27.6559345234278 8.73512817634037e-14
vertex 3.4999999999992 26.7321740927244 2.99999999999981
vertex 3.4999999999992 27.6559345234278 2.9999999999998
endloop
endfacet
facet normal -0.500000000000002 0.866025403784437 4.48996851129847e-18
outer loop
vertex 4.2999999999992 28.1178147387795 8.44636360852746e-14
vertex 6.49978643762664 29.3878620307034 2.9999999999998
vertex 6.49978643762664 29.3878620307034 7.86883447290165e-14
endloop
endfacet
facet normal -0.500000000000002 0.866025403784437 4.48996851129847e-18
outer loop
vertex 6.49978643762664 29.3878620307034 2.9999999999998
vertex 4.2999999999992 28.1178147387795 8.44636360852746e-14
vertex 3.4999999999992 27.6559345234278 8.73512817634037e-14
endloop
endfacet
facet normal -0.500000000000002 0.866025403784437 4.48996851129847e-18
outer loop
vertex 6.49978643762664 29.3878620307034 2.9999999999998
vertex 3.4999999999992 27.6559345234278 8.73512817634037e-14
vertex 4.2999999999992 28.1178147387795 2.9999999999998
endloop
endfacet
facet normal -0.500000000000002 0.866025403784437 4.48996851129847e-18
outer loop
vertex 4.2999999999992 28.1178147387795 2.9999999999998
vertex 3.4999999999992 27.6559345234278 8.73512817634037e-14
vertex 3.4999999999992 27.6559345234278 2.9999999999998
endloop
endfacet
facet normal -1.25469927710018e-30 2.84803344356441e-15 1.0
outer loop
vertex 6.49978643762665 1.5358984 0.999999999999874
vertex 5.0275432511931 4.15000000000001 0.99999999999988
vertex 3.4999999999992 3.2678259072756 0.999999999999869
endloop
endfacet
facet normal -1.25469927710018e-30 2.84803344356441e-15 1.0
outer loop
vertex 5.0275432511931 4.15000000000001 0.99999999999988
vertex 6.49978643762665 1.5358984 0.999999999999874
vertex 6.49978643762664 3.30000000000001 0.999999999999894
endloop
endfacet
facet normal -1.25469927710018e-30 2.84803344356441e-15 1.0
outer loop
vertex 6.49978643762664 3.30000000000001 0.999999999999894
vertex 6.49978643762665 1.5358984 0.999999999999874
vertex 7.97202962406019 4.15000000000001 0.999999999999903
endloop
endfacet
facet normal -1.25469927710018e-30 2.84803344356441e-15 1.0
outer loop
vertex 7.97202962406019 4.15000000000001 0.999999999999903
vertex 6.49978643762665 1.5358984 0.999999999999874
vertex 9.4995728752541 3.2678259072756 0.999999999999869
endloop
endfacet
facet normal -1.25469927710018e-30 2.84803344356441e-15 1.0
outer loop
vertex 7.97202962406019 4.15000000000001 0.999999999999903
vertex 9.4995728752541 3.2678259072756 0.999999999999869
vertex 7.97202962406019 5.85000000000001 0.999999999999896
endloop
endfacet
facet normal -1.25469927710018e-30 2.84803344356441e-15 1.0
outer loop
vertex 3.4999999999992 3.2678259072756 0.999999999999869
vertex 6.49978643762665 8.4641016 0.999999999999853
vertex 3.4999999999992 6.73217409272441 0.99999999999986
endloop
endfacet
facet normal -1.25469927710018e-30 2.84803344356441e-15 1.0
outer loop
vertex 6.49978643762665 8.4641016 0.999999999999853
vertex 3.4999999999992 3.2678259072756 0.999999999999869
vertex 5.0275432511931 5.85000000000001 0.999999999999873
endloop
endfacet
facet normal -1.25469927710018e-30 2.84803344356441e-15 1.0
outer loop
vertex 5.0275432511931 5.85000000000001 0.999999999999873
vertex 3.4999999999992 3.2678259072756 0.999999999999869
vertex 5.0275432511931 4.15000000000001 0.99999999999988
endloop
endfacet
facet normal -1.25469927710018e-30 2.84803344356441e-15 1.0
outer loop
vertex 6.49978643762665 8.4641016 0.999999999999853
vertex 5.0275432511931 5.85000000000001 0.999999999999873
vertex 6.49978643762664 6.70000000000001 0.99999999999988
endloop
endfacet
facet normal -1.25469927710018e-30 2.84803344356441e-15 1.0
outer loop
vertex 6.49978643762665 8.4641016 0.999999999999853
vertex 6.49978643762664 6.70000000000001 0.99999999999988
vertex 7.97202962406019 5.85000000000001 0.999999999999896
endloop
endfacet
facet normal -1.25469927710018e-30 2.84803344356441e-15 1.0
outer loop
vertex 6.49978643762665 8.4641016 0.999999999999853
vertex 7.97202962406019 5.85000000000001 0.999999999999896
vertex 9.4995728752541 6.73217409272441 0.99999999999986
endloop
endfacet
facet normal -1.25469927710018e-30 2.84803344356441e-15 1.0
outer loop
vertex 9.4995728752541 6.73217409272441 0.99999999999986
vertex 7.97202962406019 5.85000000000001 0.999999999999896
vertex 9.4995728752541 3.2678259072756 0.999999999999869
endloop
endfacet
facet normal 0.5 -0.866025403784439 7.51657414394328e-15
outer loop
vertex 6.49978643762665 6.7 6.09523069185298e-14
vertex 5.0275432511931 5.85000000000001 0.999999999999873
vertex 5.02754325119311 5.85 5.33564221802573e-14
endloop
endfacet
facet normal 0.5 -0.866025403784439 7.51657414394328e-15
outer loop
vertex 5.0275432511931 5.85000000000001 0.999999999999873
vertex 6.49978643762665 6.7 6.09523069185298e-14
vertex 6.49978643762664 6.70000000000001 0.99999999999988
endloop
endfacet
facet normal -9.96876003155282e-31 2.79248176133444e-15 1.0
outer loop
vertex 3.4999999999992 6.73217409272441 2.99999999999986
vertex 4.2999999999992 8.11781473877951 2.99999999999986
vertex 4.2999999999992 21.8821852612205 2.99999999999982
endloop
endfacet
facet normal -9.96876003155282e-31 2.79248176133444e-15 1.0
outer loop
vertex 4.2999999999992 8.11781473877951 2.99999999999986
vertex 3.4999999999992 6.73217409272441 2.99999999999986
vertex 6.49978643762665 8.46410160000001 2.99999999999986
endloop
endfacet
facet normal -9.96876003155282e-31 2.79248176133444e-15 1.0
outer loop
vertex 4.2999999999992 8.11781473877951 2.99999999999986
vertex 6.49978643762665 8.46410160000001 2.99999999999986
vertex 6.49978643762665 9.38786203070341 2.99999999999985
endloop
endfacet
facet normal -9.96876003155282e-31 2.79248176133444e-15 1.0
outer loop
vertex 6.49978643762665 9.38786203070341 2.99999999999985
vertex 6.49978643762665 8.46410160000001 2.99999999999986
vertex 8.6995728752541 8.11781473877952 2.99999999999986
endloop
endfacet
facet normal -9.96876003155282e-31 2.79248176133444e-15 1.0
outer loop
vertex 8.6995728752541 8.11781473877952 2.99999999999986
vertex 6.49978643762665 8.46410160000001 2.99999999999986
vertex 9.4995728752541 6.73217409272441 2.99999999999986
endloop
endfacet
facet normal -9.96876003155282e-31 2.79248176133444e-15 1.0
outer loop
vertex 8.6995728752541 8.11781473877952 2.99999999999986
vertex 9.4995728752541 6.73217409272441 2.99999999999986
vertex 9.49957287525409 23.2678259072756 2.99999999999982
endloop
endfacet
facet normal -9.96876003155282e-31 2.79248176133444e-15 1.0
outer loop
vertex 3.4999999999992 23.2678259072756 2.99999999999982
vertex 4.2999999999992 21.8821852612205 2.99999999999982
vertex 6.49978643762664 21.5358984 2.99999999999982
endloop
endfacet
facet normal -9.96876003155282e-31 2.79248176133444e-15 1.0
outer loop
vertex 4.2999999999992 21.8821852612205 2.99999999999982
vertex 3.4999999999992 23.2678259072756 2.99999999999982
vertex 3.4999999999992 6.73217409272441 2.99999999999986
endloop
endfacet
facet normal -9.96876003155282e-31 2.79248176133444e-15 1.0
outer loop
vertex 6.49978643762664 21.5358984 2.99999999999982
vertex 4.2999999999992 21.8821852612205 2.99999999999982
vertex 6.49978643762665 20.6121379692966 2.99999999999982
endloop
endfacet
facet normal -9.96876003155282e-31 2.79248176133444e-15 1.0
outer loop
vertex 6.49978643762664 21.5358984 2.99999999999982
vertex 6.49978643762665 20.6121379692966 2.99999999999982
vertex 9.49957287525409 23.2678259072756 2.99999999999982
endloop
endfacet
facet normal -9.96876003155282e-31 2.79248176133444e-15 1.0
outer loop
vertex 9.49957287525409 23.2678259072756 2.99999999999982
vertex 6.49978643762665 20.6121379692966 2.99999999999982
vertex 8.69957287525409 21.8821852612205 2.99999999999982
endloop
endfacet
facet normal -9.96876003155282e-31 2.79248176133444e-15 1.0
outer loop
vertex 9.49957287525409 23.2678259072756 2.99999999999982
vertex 8.69957287525409 21.8821852612205 2.99999999999982
vertex 8.6995728752541 8.11781473877952 2.99999999999986
endloop
endfacet
facet normal -0.5 -0.866025403784439 2.46646931295445e-15
outer loop
vertex 9.4995728752541 6.73217409272441 0.99999999999986
vertex 6.49978643762665 8.46410160000001 2.99999999999986
vertex 6.49978643762665 8.4641016 0.999999999999853
endloop
endfacet
facet normal -0.5 -0.866025403784439 2.46646931295445e-15
outer loop
vertex 6.49978643762665 8.46410160000001 2.99999999999986
vertex 9.4995728752541 6.73217409272441 0.99999999999986
vertex 9.4995728752541 6.73217409272441 2.99999999999986
endloop
endfacet
facet normal 7.62783362936136e-15 -4.27546041153341e-15 -1.0
outer loop
vertex 4.2999999999992 28.1178147387795 8.44636360852746e-14
vertex 5.0275432511931 25.85 -8.30680537712794e-15
vertex 4.2999999999992 21.8821852612205 -4.87290208184277e-14
endloop
endfacet
facet normal 7.62783362936136e-15 -4.27546041153341e-15 -1.0
outer loop
vertex 5.0275432511931 25.85 -8.30680537712794e-15
vertex 4.2999999999992 28.1178147387795 8.44636360852746e-14
vertex 6.49978643762664 29.3878620307034 7.86883447290165e-14
endloop
endfacet
facet normal 7.62783362936136e-15 -4.27546041153341e-15 -1.0
outer loop
vertex 5.0275432511931 25.85 -8.30680537712794e-15
vertex 6.49978643762664 29.3878620307034 7.86883447290165e-14
vertex 6.49978643762664 26.7 -7.10920638855411e-16
endloop
endfacet
facet normal 7.62783362936136e-15 -4.27546041153341e-15 -1.0
outer loop
vertex 6.49978643762664 26.7 -7.10920638855411e-16
vertex 6.49978643762664 29.3878620307034 7.86883447290165e-14
vertex 8.69957287525409 28.1178147387795 8.59074589243391e-14
endloop
endfacet
facet normal 7.62783362936136e-15 -4.27546041153341e-15 -1.0
outer loop
vertex 6.49978643762664 26.7 -7.10920638855411e-16
vertex 8.69957287525409 28.1178147387795 8.59074589243391e-14
vertex 7.97202962406019 25.85 1.41532467990239e-14
endloop
endfacet
facet normal 7.62783362936136e-15 -4.27546041153341e-15 -1.0
outer loop
vertex 7.97202962406019 25.85 1.41532467990239e-14
vertex 8.69957287525409 28.1178147387795 8.59074589243391e-14
vertex 7.97202962406019 24.15 2.14215294986307e-14
endloop
endfacet
facet normal 7.62783362936136e-15 -4.27546041153341e-15 -1.0
outer loop
vertex 4.2999999999992 28.1178147387795 8.44636360852746e-14
vertex 3.4999999999992 2.34406547657219 1.5484999948967e-13
vertex 3.4999999999992 27.6559345234278 8.73512817634037e-14
endloop
endfacet
facet normal 7.62783362936136e-15 -4.27546041153341e-15 -1.0
outer loop
vertex 3.4999999999992 2.34406547657219 1.5484999948967e-13
vertex 4.2999999999992 28.1178147387795 8.44636360852746e-14
vertex 4.2999999999992 1.88218526122049 1.56293822328735e-13
endloop
endfacet
facet normal 7.62783362936136e-15 -4.27546041153341e-15 -1.0
outer loop
vertex 4.2999999999992 1.88218526122049 1.56293822328735e-13
vertex 4.2999999999992 28.1178147387795 8.44636360852746e-14
vertex 4.2999999999992 21.8821852612205 -4.87290208184277e-14
endloop
endfacet
facet normal 7.62783362936136e-15 -4.27546041153341e-15 -1.0
outer loop
vertex 4.2999999999992 1.88218526122049 1.56293822328735e-13
vertex 4.2999999999992 21.8821852612205 -4.87290208184277e-14
vertex 4.2999999999992 8.11781473877951 -1.40772726808791e-14
endloop
endfacet
facet normal 7.62783362936136e-15 -4.27546041153341e-15 -1.0
outer loop
vertex 4.2999999999992 1.88218526122049 1.56293822328735e-13
vertex 4.2999999999992 8.11781473877951 -1.40772726808791e-14
vertex 5.02754325119311 5.85 5.33564221802573e-14
endloop
endfacet
facet normal 7.62783362936136e-15 -4.27546041153341e-15 -1.0
outer loop
vertex 5.02754325119311 5.85 5.33564221802573e-14
vertex 4.2999999999992 8.11781473877951 -1.40772726808791e-14
vertex 6.49978643762665 9.3878620307034 -1.98525640371372e-14
endloop
endfacet
facet normal 7.62783362936136e-15 -4.27546041153341e-15 -1.0
outer loop
vertex 5.02754325119311 5.85 5.33564221802573e-14
vertex 6.49978643762665 9.3878620307034 -1.98525640371372e-14
vertex 6.49978643762665 6.7 6.09523069185298e-14
endloop
endfacet
facet normal 7.62783362936136e-15 -4.27546041153341e-15 -1.0
outer loop
vertex 6.49978643762665 6.7 6.09523069185298e-14
vertex 6.49978643762665 9.3878620307034 -1.98525640371372e-14
vertex 7.9720296240602 5.85 7.58164743564092e-14
endloop
endfacet
facet normal 7.62783362936136e-15 -4.27546041153341e-15 -1.0
outer loop
vertex 7.9720296240602 5.85 7.58164743564092e-14
vertex 6.49978643762665 9.3878620307034 -1.98525640371372e-14
vertex 8.6995728752541 8.11781473877951 -1.40772726808791e-14
endloop
endfacet
facet normal 7.62783362936136e-15 -4.27546041153341e-15 -1.0
outer loop
vertex 7.9720296240602 5.85 7.58164743564092e-14
vertex 8.6995728752541 8.11781473877951 -1.40772726808791e-14
vertex 7.9720296240602 4.15 8.3084757056016e-14
endloop
endfacet
facet normal 7.62783362936136e-15 -4.27546041153341e-15 -1.0
outer loop
vertex 4.2999999999992 21.8821852612205 -4.87290208184277e-14
vertex 5.0275432511931 24.15 -1.03852267752116e-15
vertex 6.49978643762665 20.6121379692966 -4.87290208184277e-14
endloop
endfacet
facet normal 7.62783362936136e-15 -4.27546041153341e-15 -1.0
outer loop
vertex 5.0275432511931 24.15 -1.03852267752116e-15
vertex 4.2999999999992 21.8821852612205 -4.87290208184277e-14
vertex 5.0275432511931 25.85 -8.30680537712794e-15
endloop
endfacet
facet normal 7.62783362936136e-15 -4.27546041153341e-15 -1.0
outer loop
vertex 6.49978643762665 20.6121379692966 -4.87290208184277e-14
vertex 5.0275432511931 24.15 -1.03852267752116e-15
vertex 6.49978643762664 23.3 1.38256447603582e-14
endloop
endfacet
facet normal 7.62783362936136e-15 -4.27546041153341e-15 -1.0
outer loop
vertex 6.49978643762665 20.6121379692966 -4.87290208184277e-14
vertex 6.49978643762664 23.3 1.38256447603582e-14
vertex 7.97202962406019 24.15 2.14215294986307e-14
endloop
endfacet
facet normal 7.62783362936136e-15 -4.27546041153341e-15 -1.0
outer loop
vertex 6.49978643762665 20.6121379692966 -4.87290208184277e-14
vertex 7.97202962406019 24.15 2.14215294986307e-14
vertex 8.69957287525409 21.8821852612205 -4.87290208184277e-14
endloop
endfacet
facet normal 7.62783362936136e-15 -4.27546041153341e-15 -1.0
outer loop
vertex 8.69957287525409 21.8821852612205 -4.87290208184277e-14
vertex 7.97202962406019 24.15 2.14215294986307e-14
vertex 8.69957287525409 28.1178147387795 8.59074589243391e-14
endloop
endfacet
facet normal 7.62783362936136e-15 -4.27546041153341e-15 -1.0
outer loop
vertex 8.69957287525409 21.8821852612205 -4.87290208184277e-14
vertex 8.69957287525409 28.1178147387795 8.59074589243391e-14
vertex 9.49957287525409 27.6559345234278 8.80731931829359e-14
endloop
endfacet
facet normal 7.62783362936136e-15 -4.27546041153341e-15 -1.0
outer loop
vertex 8.69957287525409 21.8821852612205 -4.87290208184277e-14
vertex 9.49957287525409 27.6559345234278 8.80731931829359e-14
vertex 8.6995728752541 8.11781473877951 -1.40772726808791e-14
endloop
endfacet
facet normal 7.62783362936136e-15 -4.27546041153341e-15 -1.0
outer loop
vertex 8.6995728752541 8.11781473877951 -1.40772726808791e-14
vertex 9.49957287525409 27.6559345234278 8.80731931829359e-14
vertex 8.6995728752541 1.8821852612205 1.55571910909202e-13
endloop
endfacet
facet normal 7.62783362936136e-15 -4.27546041153341e-15 -1.0
outer loop
vertex 8.6995728752541 1.8821852612205 1.55571910909202e-13
vertex 9.49957287525409 27.6559345234278 8.80731931829359e-14
vertex 9.4995728752541 2.3440654765722 1.5484999948967e-13
endloop
endfacet
facet normal 7.62783362936136e-15 -4.27546041153341e-15 -1.0
outer loop
vertex 4.2999999999992 1.88218526122049 1.56293822328735e-13
vertex 5.02754325119311 4.15 6.06247048798641e-14
vertex 6.49978643762665 0.612137969296599 1.59181468006864e-13
endloop
endfacet
facet normal 7.62783362936136e-15 -4.27546041153341e-15 -1.0
outer loop
vertex 5.02754325119311 4.15 6.06247048798641e-14
vertex 4.2999999999992 1.88218526122049 1.56293822328735e-13
vertex 5.02754325119311 5.85 5.33564221802573e-14
endloop
endfacet
facet normal 7.62783362936136e-15 -4.27546041153341e-15 -1.0
outer loop
vertex 6.49978643762665 0.612137969296599 1.59181468006864e-13
vertex 5.02754325119311 4.15 6.06247048798641e-14
vertex 6.49978643762665 3.3 7.54888723177434e-14
endloop
endfacet
facet normal 7.62783362936136e-15 -4.27546041153341e-15 -1.0
outer loop
vertex 6.49978643762665 0.612137969296599 1.59181468006864e-13
vertex 6.49978643762665 3.3 7.54888723177434e-14
vertex 7.9720296240602 4.15 8.3084757056016e-14
endloop
endfacet
facet normal 7.62783362936136e-15 -4.27546041153341e-15 -1.0
outer loop
vertex 6.49978643762665 0.612137969296599 1.59181468006864e-13
vertex 7.9720296240602 4.15 8.3084757056016e-14
vertex 8.6995728752541 1.8821852612205 1.55571910909202e-13
endloop
endfacet
facet normal 7.62783362936136e-15 -4.27546041153341e-15 -1.0
outer loop
vertex 8.6995728752541 1.8821852612205 1.55571910909202e-13
vertex 7.9720296240602 4.15 8.3084757056016e-14
vertex 8.6995728752541 8.11781473877951 -1.40772726808791e-14
endloop
endfacet
endsolid M3 nut insert
